<?xml version="1.0" encoding="utf-8"?>
<!-- Generator: Adobe Illustrator 19.2.1, SVG Export Plug-In . SVG Version: 6.00 Build 0)  -->
<svg version="1.1" id="Layer_1" xmlns="http://www.w3.org/2000/svg" xmlns:xlink="http://www.w3.org/1999/xlink" x="0px" y="0px"
	 viewBox="0 0 640 480" style="enable-background:new 0 0 640 480;" xml:space="preserve">
<style type="text/css">
	.st0{fill:#263238;}
	.st1{fill:#0F90F9;}
	.st2{fill:#FFFFFF;}
</style>
<path class="st0" d="M542,212.2h-28.4V86.4c0-46.1-37.7-83.9-83.9-83.9H210.2c-46.1,0-83.9,37.7-83.9,83.9v125.8H98
	c-8.1,0-14.8,6.7-14.8,14.8v235.6c0,8.1,6.7,14.8,14.8,14.8h444c8.1,0,14.8-6.7,14.8-14.8V227C556.8,218.9,550.2,212.2,542,212.2z
	 M341.6,346.5V401c0,8.1-6.7,14.8-14.8,14.8h-13.6c-8.1,0-14.8-6.7-14.8-14.8v-54.5c-10.3-5.1-18.7-14-23.2-25.5
	c-9.7-24.7,2.6-52.6,27.3-62.3c24.7-9.7,52.6,2.6,62.3,27.3C373.9,309.4,363.6,335.5,341.6,346.5z M476.8,212.2H163.2V103.5
	c0-31.9,25.8-57.7,57.7-57.7h198.2c31.9,0,57.7,25.8,57.7,57.7V212.2z"/>
<g>
	<path class="st1" d="M631,319.1l-113-79.1c4.1-11.6,6.3-24,6.3-36.9c0-61.2-49.6-110.7-110.7-110.7S302.9,141.9,302.9,203
		s49.6,110.7,110.7,110.7c24.1,0,46.4-7.7,64.5-20.7L593,373.4c5.8,4.1,13.8,2.6,17.9-3.2l23.3-33.3
		C638.3,331.2,636.8,323.1,631,319.1z"/>
	<circle class="st2" cx="413.6" cy="203" r="90.6"/>
</g>
</svg>
