<?xml version="1.0" encoding="utf-8"?>
<!-- Generator: Adobe Illustrator 19.2.1, SVG Export Plug-In . SVG Version: 6.00 Build 0)  -->
<svg version="1.1" id="Layer_1" xmlns="http://www.w3.org/2000/svg" xmlns:xlink="http://www.w3.org/1999/xlink" x="0px" y="0px"
	 viewBox="0 0 2048 2048" style="enable-background:new 0 0 2048 2048;" xml:space="preserve">
<style type="text/css">
	.st0{fill:#F9B701;}
	.st1{fill:#263238;}
	.st2{fill:#344FC1;}
	.st3{fill:#2638A2;}
</style>
<g id="Layer_2">
	<path class="st0" d="M1287.3,116.6L1287.3,116.6c-149.2-81.1-329.3-81.1-478.6,0l0,0C624.3,208,555,660.6,569.5,867.7
		c7.6,108.5,71.7,212.7,131,287.3c67.4,84.8,103.7,190.2,103.7,298.6v84.5c0,62.5,50.6,113.1,113.1,113.1h261.6
		c62.5,0,113.1-50.6,113.1-113.1v-84.5c0-108.4,36.3-213.8,103.7-298.6c59.3-74.6,123.4-178.8,131-287.3
		C1541,660.6,1471.7,208,1287.3,116.6z"/>
	<path class="st0" d="M1237.2,1789.7H858.8c-16.7,0-30.3-13.7-30.3-30.3v-1.9c0-16.7,13.7-30.3,30.3-30.3h378.4
		c16.7,0,30.3,13.7,30.3,30.3v1.9C1267.5,1776,1253.9,1789.7,1237.2,1789.7z"/>
	<path class="st0" d="M1237.2,1883.6H858.8c-16.7,0-30.3-13.7-30.3-30.3v-1.9c0-16.7,13.7-30.3,30.3-30.3h378.4
		c16.7,0,30.3,13.7,30.3,30.3v1.9C1267.5,1869.9,1253.9,1883.6,1237.2,1883.6z"/>
	<path class="st0" d="M1206.1,1977.4H889.9c-15.4,0-27.9-12.6-27.9-27.9v-6.7c0-15.4,12.6-27.9,27.9-27.9h316.2
		c15.4,0,27.9,12.6,27.9,27.9v6.7C1234,1964.9,1221.5,1977.4,1206.1,1977.4z"/>
</g>
<g id="svg2" inkscape:export-filename="./Portal Design - Logotipo Quadrado - Somente ÃƒÆ’cone - 1.0.0 - 2048x2048.png" inkscape:export-xdpi="90" inkscape:export-ydpi="90" inkscape:version="0.48.5 r10040" sodipodi:docname="Portal Design - Logotipo Horizontal - ÃƒÆ’cone + Nome - 1.0.0.svg" xmlns:cc="http://creativecommons.org/ns#" xmlns:dc="http://purl.org/dc/elements/1.1/" xmlns:inkscape="http://www.inkscape.org/namespaces/inkscape" xmlns:rdf="http://www.w3.org/1999/02/22-rdf-syntax-ns#" xmlns:sodipodi="http://sodipodi.sourceforge.net/DTD/sodipodi-0.dtd" xmlns:svg="http://www.w3.org/2000/svg">
	
		<sodipodi:namedview  bordercolor="#666666" borderlayer="true" borderopacity="1.0" fit-margin-bottom="0" fit-margin-left="0" fit-margin-right="0" fit-margin-top="0" id="base" inkscape:bbox-nodes="true" inkscape:bbox-paths="true" inkscape:current-layer="layer1" inkscape:cx="78.949786" inkscape:cy="-2233.8547" inkscape:document-units="px" inkscape:object-nodes="true" inkscape:object-paths="true" inkscape:pageopacity="0.0" inkscape:pageshadow="2" inkscape:snap-bbox="true" inkscape:snap-bbox-edge-midpoints="true" inkscape:snap-bbox-midpoints="true" inkscape:snap-center="true" inkscape:snap-global="false" inkscape:snap-intersection-paths="true" inkscape:snap-midpoints="true" inkscape:snap-nodes="false" inkscape:snap-object-midpoints="true" inkscape:snap-page="true" inkscape:snap-smooth-nodes="true" inkscape:window-height="744" inkscape:window-maximized="1" inkscape:window-width="1321" inkscape:window-x="45" inkscape:window-y="24" inkscape:zoom="0.04" pagecolor="#ffffff" showgrid="false" showguides="true">
		<sodipodi:guide  id="guide3895" orientation="2048.0,0" position="0.0,0"></sodipodi:guide>
		<sodipodi:guide  id="guide3897" orientation="2048.0,0" position="1024.0,0"></sodipodi:guide>
		<sodipodi:guide  id="guide3899" orientation="2048.0,0" position="2048.0,0"></sodipodi:guide>
		<sodipodi:guide  id="guide3901" orientation="0,2048.0" position="0,0.0"></sodipodi:guide>
		<sodipodi:guide  id="guide3903" orientation="0,2048.0" position="0,1024.0"></sodipodi:guide>
		<sodipodi:guide  id="guide3905" orientation="0,2048.0" position="0,2048.0"></sodipodi:guide>
	</sodipodi:namedview>
	<g id="layer1" transform="translate(-317.55875,1048.9015)" inkscape:groupmode="layer" inkscape:label="Camada 1">
		<g id="g3861" transform="matrix(2.0086469,0,0,2.0086469,-1890.9288,644.28405)">
			<path id="path3021" inkscape:connector-curvature="0" class="st1" d="M1961.2-825.1c-1.7,0-3.8,0.8-5.5,3.2
				c-2.5,3.6-331.4,460.1-406.3,595c1.7,0.6,3.7,1.2,5.5,1.8c11.6,4.2,24.3,9.8,37.9,17.5c16.2,9.1,33.7,21,51.6,36.9
				c82.2-133.3,320.1-640.5,322.1-644.5c1.6-4.4,0-7.5-1.7-8.7c-0.1-0.1-0.2-0.2-0.4-0.2C1963.7-824.7,1962.6-825.2,1961.2-825.1
				L1961.2-825.1z M1540.4-209.6c-1.3,2.6-2.3,5.1-3.3,7.1c-27.9,68.1-69.5,149.8-81.1,181c22.2,3.5,41.4,15.6,54.1,32.9
				c21.6-25.2,72.5-101.1,118.1-158.1c1.7-2.1,3.8-4.8,5.8-7.8c-16.4-14.5-32.1-25.7-46.8-34.3c-14.1-8.2-27.1-14.1-38.8-18.2
				C1545.7-207.9,1542.9-208.9,1540.4-209.6L1540.4-209.6z"/>
			<g id="g3795">
				<path id="path3793" inkscape:connector-curvature="0" class="st2" d="M1438.6,157.7c-0.4,0-0.6,0-1,0c-3.5-0.2-7-0.5-10.5-0.9
					c-3.6-0.4-7.1-0.8-10.8-1.2c-3.7-0.4-7.2-1.1-10.8-1.6c-3.6-0.7-7-1.4-10.4-2.2c-3.4-0.9-6.6-1.7-9.7-2.8
					c-1.4-0.5-3.1-1.1-4.4-1.6c-1.4-0.6-2.7-1.2-4.2-1.8c-1.3-0.7-2.5-1.3-3.8-2c-1.2-0.7-2.2-1.4-3.4-2.2c-1.1-0.8-1.9-1.5-2.8-2.4
					c-0.9-0.9-1.6-1.7-2.3-2.6s-1.3-1.8-1.8-2.8c-0.5-1-0.9-2-1.3-3.2c-0.3-1.1-0.5-2.1-0.6-3.4c-0.1-1.2-0.1-2.3,0.1-3.7
					c0.1-1.3,0.2-2.4,0.2-3.7c0-1.2-0.2-2.3-0.4-3.5c-0.2-1.2-0.5-2.2-0.8-3.4c-0.4-1.1-0.8-2.1-1.3-3.2c-0.5-1.1-1.1-2-1.6-3
					c-0.6-1-1.3-1.9-2-2.8c-0.8-1-1.5-1.8-2.3-2.7c-0.8-0.9-1.7-1.7-2.6-2.5c-1-0.9-1.9-1.6-2.9-2.4c-1-0.8-2-1.5-3.3-2.2
					c-0.5-0.3-1-0.6-1.4-0.9c-16.6,36.9-43.1,59.8-97.5,69.9c-8.9,1.6-6,12.6,0,12.6C1309.4,175,1383.3,174.7,1438.6,157.7
					L1438.6,157.7z"/>
				<path id="path3849" inkscape:connector-curvature="0" class="st3" d="M1437.1-13.2c-40.6,0-74.4,29.3-81.3,67.9
					c-3.8,14-7.9,26.5-13,37.8c0.5,0.3,1,0.6,1.4,0.9c1.1,0.8,2.1,1.4,3.3,2.2c1,0.8,1.9,1.5,2.9,2.4c1,0.9,1.8,1.6,2.6,2.5
					c0.8,0.9,1.6,1.7,2.3,2.7c0.8,1,1.4,1.8,2,2.8c0.6,1,1.2,1.9,1.6,3c0.5,1.1,0.9,2,1.3,3.2c0.4,1.1,0.6,2.1,0.8,3.4
					c0.2,1.2,0.3,2.2,0.4,3.5c0,1.2,0,2.4-0.2,3.7c-0.1,1.3-0.2,2.4-0.1,3.7c0.1,1.2,0.3,2.2,0.6,3.4c0.3,1.1,0.7,2.1,1.3,3.2
					c0.5,1,1.1,1.9,1.8,2.8c0.7,0.9,1.4,1.7,2.3,2.6c0.9,0.9,1.8,1.6,2.8,2.4c1.1,0.8,2.1,1.5,3.4,2.2c1.2,0.7,2.4,1.4,3.8,2
					c1.3,0.6,2.6,1.3,4.2,1.8c1.4,0.6,2.9,1.2,4.4,1.6c3,1.1,6.3,1.9,9.7,2.8c3.4,0.9,6.8,1.5,10.4,2.2c3.6,0.7,7.1,1.2,10.8,1.6
					c3.7,0.5,7.2,0.9,10.8,1.2c3.6,0.3,7,0.6,10.5,0.9c0.4,0,0.6,0,1,0c31.9-9.8,57.4-25.2,71.5-49.3c6.2-11.6,9.8-24.8,9.8-38.8
					C1519.7,23.8,1482.7-13.2,1437.1-13.2L1437.1-13.2z"/>
			</g>
		</g>
	</g>
</g>
</svg>
