<?xml version="1.0" encoding="utf-8"?>
<!-- Generator: Adobe Illustrator 20.1.0, SVG Export Plug-In . SVG Version: 6.00 Build 0)  -->
<svg version="1.1" id="Layer_1" xmlns="http://www.w3.org/2000/svg" xmlns:xlink="http://www.w3.org/1999/xlink" x="0px" y="0px"
	 viewBox="0 0 640 480" style="enable-background:new 0 0 640 480;" xml:space="preserve">
<style type="text/css">
	.st0{display:none;opacity:0.35;}
	.st1{display:inline;}
	.st2{fill:none;stroke:#000000;stroke-miterlimit:10;}
	.st3{display:inline;fill:none;stroke:#000000;stroke-miterlimit:10;}
	.st4{fill:#FFFFFF;stroke:#1DE9B6;stroke-width:5;stroke-miterlimit:10;}
	.st5{fill:#1DE9B6;}
	.st6{fill:#00BFA5;}
	.st7{fill:#F9B701;}
	.st8{opacity:0.2;enable-background:new    ;}
	.st9{clip-path:url(#SVGID_5_);}
	.st10{clip-path:url(#SVGID_10_);}
	.st11{clip-path:url(#SVGID_11_);}
	.st12{clip-path:url(#SVGID_17_);}
	.st13{clip-path:url(#SVGID_18_);}
	.st14{clip-path:url(#SVGID_19_);}
	.st15{clip-path:url(#SVGID_26_);}
	.st16{clip-path:url(#SVGID_27_);}
	.st17{clip-path:url(#SVGID_28_);}
	.st18{clip-path:url(#SVGID_29_);}
	.st19{clip-path:url(#SVGID_37_);}
	.st20{clip-path:url(#SVGID_38_);}
	.st21{clip-path:url(#SVGID_39_);}
	.st22{clip-path:url(#SVGID_40_);}
	.st23{clip-path:url(#SVGID_41_);}
	.st24{clip-path:url(#SVGID_50_);}
	.st25{clip-path:url(#SVGID_51_);}
	.st26{clip-path:url(#SVGID_52_);}
	.st27{clip-path:url(#SVGID_53_);}
	.st28{clip-path:url(#SVGID_54_);}
	.st29{clip-path:url(#SVGID_55_);}
	.st30{clip-path:url(#SVGID_65_);}
	.st31{clip-path:url(#SVGID_66_);}
	.st32{clip-path:url(#SVGID_67_);}
	.st33{clip-path:url(#SVGID_68_);}
	.st34{clip-path:url(#SVGID_69_);}
	.st35{clip-path:url(#SVGID_70_);}
	.st36{clip-path:url(#SVGID_71_);}
	.st37{clip-path:url(#SVGID_82_);}
	.st38{clip-path:url(#SVGID_83_);}
	.st39{clip-path:url(#SVGID_84_);}
	.st40{clip-path:url(#SVGID_85_);}
	.st41{clip-path:url(#SVGID_86_);}
	.st42{clip-path:url(#SVGID_87_);}
	.st43{clip-path:url(#SVGID_88_);}
	.st44{clip-path:url(#SVGID_89_);}
	.st45{clip-path:url(#SVGID_101_);}
	.st46{clip-path:url(#SVGID_102_);}
	.st47{clip-path:url(#SVGID_103_);}
	.st48{clip-path:url(#SVGID_104_);}
	.st49{clip-path:url(#SVGID_105_);}
	.st50{clip-path:url(#SVGID_106_);}
	.st51{clip-path:url(#SVGID_107_);}
	.st52{clip-path:url(#SVGID_108_);}
	.st53{clip-path:url(#SVGID_109_);}
	.st54{clip-path:url(#SVGID_122_);}
	.st55{clip-path:url(#SVGID_123_);}
	.st56{clip-path:url(#SVGID_124_);}
	.st57{clip-path:url(#SVGID_125_);}
	.st58{clip-path:url(#SVGID_126_);}
	.st59{clip-path:url(#SVGID_127_);}
	.st60{clip-path:url(#SVGID_128_);}
	.st61{clip-path:url(#SVGID_129_);}
	.st62{clip-path:url(#SVGID_130_);}
	.st63{clip-path:url(#SVGID_131_);}
	.st64{clip-path:url(#SVGID_145_);}
	.st65{clip-path:url(#SVGID_146_);}
	.st66{clip-path:url(#SVGID_147_);}
	.st67{clip-path:url(#SVGID_148_);}
	.st68{clip-path:url(#SVGID_149_);}
	.st69{clip-path:url(#SVGID_150_);}
	.st70{clip-path:url(#SVGID_151_);}
	.st71{clip-path:url(#SVGID_152_);}
	.st72{clip-path:url(#SVGID_153_);}
	.st73{clip-path:url(#SVGID_154_);}
	.st74{clip-path:url(#SVGID_155_);}
	.st75{clip-path:url(#SVGID_156_);fill:#F9B701;}
	.st76{clip-path:url(#SVGID_169_);}
	.st77{clip-path:url(#SVGID_170_);}
	.st78{clip-path:url(#SVGID_171_);}
	.st79{clip-path:url(#SVGID_172_);}
	.st80{clip-path:url(#SVGID_173_);}
	.st81{clip-path:url(#SVGID_174_);}
	.st82{clip-path:url(#SVGID_175_);}
	.st83{clip-path:url(#SVGID_176_);}
	.st84{clip-path:url(#SVGID_177_);}
	.st85{clip-path:url(#SVGID_178_);}
	.st86{clip-path:url(#SVGID_179_);}
	.st87{clip-path:url(#SVGID_180_);fill:#F9B701;}
	.st88{clip-path:url(#SVGID_193_);}
	.st89{clip-path:url(#SVGID_194_);}
	.st90{clip-path:url(#SVGID_195_);}
	.st91{clip-path:url(#SVGID_196_);}
	.st92{clip-path:url(#SVGID_197_);}
	.st93{clip-path:url(#SVGID_198_);}
	.st94{clip-path:url(#SVGID_199_);}
	.st95{clip-path:url(#SVGID_200_);}
	.st96{clip-path:url(#SVGID_201_);}
	.st97{clip-path:url(#SVGID_202_);}
	.st98{clip-path:url(#SVGID_203_);}
	.st99{clip-path:url(#SVGID_204_);fill:#F9B701;}
	.st100{enable-background:new    ;}
	.st101{fill:#263832;}
</style>
<g>
	<g class="st0">
		<g class="st1">
			<rect x="46.5" y="129" class="st2" width="547" height="323"/>
			<line class="st2" x1="46.5" y1="195" x2="593.5" y2="195"/>
			<line class="st2" x1="46.5" y1="258" x2="593.5" y2="258"/>
			<line class="st2" x1="46.5" y1="325" x2="593.5" y2="325"/>
			<line class="st2" x1="46.5" y1="389" x2="593.5" y2="389"/>
		</g>
		<line class="st3" x1="269" y1="129" x2="269" y2="452"/>
		<line class="st3" x1="116" y1="129" x2="116" y2="452"/>
		<line class="st3" x1="192.5" y1="129" x2="192.5" y2="452"/>
		<line class="st3" x1="345.5" y1="129" x2="345.5" y2="452"/>
		<line class="st3" x1="428.8" y1="129" x2="428.8" y2="452"/>
		<line class="st3" x1="512" y1="129" x2="512" y2="452"/>
	</g>
	<path class="st4" d="M599,464.3H41c-6.6,0-12-5.4-12-12v-390c0-6.6,5.4-12,12-12h558c6.6,0,12,5.4,12,12v390
		C611,458.9,605.6,464.3,599,464.3z"/>
	<path class="st5" d="M611,151H29V67.3c0-9.4,5.4-17,12-17h558c6.6,0,12,7.7,12,17V151z"/>
	<rect x="29.5" y="135" class="st6" width="582" height="16"/>
	<path class="st7" d="M156.2,84.9h-11.9c-8.7,0-15.8-7.1-15.8-15.8V31.5c0-8.7,7.1-15.8,15.8-15.8h11.9c8.7,0,15.8,7.1,15.8,15.8
		v37.6C172,77.8,164.9,84.9,156.2,84.9z"/>
	<path class="st7" d="M496.2,84.9h-11.9c-8.7,0-15.8-7.1-15.8-15.8V31.5c0-8.7,7.1-15.8,15.8-15.8h11.9c8.7,0,15.8,7.1,15.8,15.8
		v37.6C512,77.8,504.9,84.9,496.2,84.9z"/>
	<g id="Layer_2_1_" class="st8">
		<g>
			<g>
				<g>
					<defs>
						<rect id="SVGID_1_" x="176.8" y="155" width="286.4" height="283.3"/>
					</defs>
					<clipPath id="SVGID_2_">
						<use xlink:href="#SVGID_1_"  style="overflow:visible;"/>
					</clipPath>
				</g>
				<g>
					<defs>
						<rect id="SVGID_3_" x="176.8" y="155" width="286.4" height="283.3"/>
					</defs>
					<defs>
						<rect id="SVGID_4_" x="176.8" y="155" width="286.4" height="283.3"/>
					</defs>
					<clipPath id="SVGID_5_">
						<use xlink:href="#SVGID_3_"  style="overflow:visible;"/>
					</clipPath>
					<clipPath id="SVGID_6_" class="st9">
						<use xlink:href="#SVGID_4_"  style="overflow:visible;"/>
					</clipPath>
				</g>
				<g>
					<defs>
						<rect id="SVGID_7_" x="176.8" y="155" width="286.4" height="283.3"/>
					</defs>
					<defs>
						<rect id="SVGID_8_" x="176.8" y="155" width="286.4" height="283.3"/>
					</defs>
					<defs>
						<rect id="SVGID_9_" x="176.8" y="155" width="286.4" height="283.3"/>
					</defs>
					<clipPath id="SVGID_10_">
						<use xlink:href="#SVGID_7_"  style="overflow:visible;"/>
					</clipPath>
					<clipPath id="SVGID_11_" class="st10">
						<use xlink:href="#SVGID_8_"  style="overflow:visible;"/>
					</clipPath>
					<clipPath id="SVGID_12_" class="st11">
						<use xlink:href="#SVGID_9_"  style="overflow:visible;"/>
					</clipPath>
				</g>
				<g>
					<defs>
						<rect id="SVGID_13_" x="176.8" y="155" width="286.4" height="283.3"/>
					</defs>
					<defs>
						<rect id="SVGID_14_" x="176.8" y="155" width="286.4" height="283.3"/>
					</defs>
					<defs>
						<rect id="SVGID_15_" x="176.8" y="155" width="286.4" height="283.3"/>
					</defs>
					<defs>
						<rect id="SVGID_16_" x="176.8" y="155" width="286.4" height="283.3"/>
					</defs>
					<clipPath id="SVGID_17_">
						<use xlink:href="#SVGID_13_"  style="overflow:visible;"/>
					</clipPath>
					<clipPath id="SVGID_18_" class="st12">
						<use xlink:href="#SVGID_14_"  style="overflow:visible;"/>
					</clipPath>
					<clipPath id="SVGID_19_" class="st13">
						<use xlink:href="#SVGID_15_"  style="overflow:visible;"/>
					</clipPath>
					<clipPath id="SVGID_20_" class="st14">
						<use xlink:href="#SVGID_16_"  style="overflow:visible;"/>
					</clipPath>
				</g>
				<g>
					<defs>
						<rect id="SVGID_21_" x="176.8" y="155" width="286.4" height="283.3"/>
					</defs>
					<defs>
						<rect id="SVGID_22_" x="176.8" y="155" width="286.4" height="283.3"/>
					</defs>
					<defs>
						<rect id="SVGID_23_" x="176.8" y="155" width="286.4" height="283.3"/>
					</defs>
					<defs>
						<rect id="SVGID_24_" x="176.8" y="155" width="286.4" height="283.3"/>
					</defs>
					<defs>
						<rect id="SVGID_25_" x="176.8" y="155" width="286.4" height="283.3"/>
					</defs>
					<clipPath id="SVGID_26_">
						<use xlink:href="#SVGID_21_"  style="overflow:visible;"/>
					</clipPath>
					<clipPath id="SVGID_27_" class="st15">
						<use xlink:href="#SVGID_22_"  style="overflow:visible;"/>
					</clipPath>
					<clipPath id="SVGID_28_" class="st16">
						<use xlink:href="#SVGID_23_"  style="overflow:visible;"/>
					</clipPath>
					<clipPath id="SVGID_29_" class="st17">
						<use xlink:href="#SVGID_24_"  style="overflow:visible;"/>
					</clipPath>
					<clipPath id="SVGID_30_" class="st18">
						<use xlink:href="#SVGID_25_"  style="overflow:visible;"/>
					</clipPath>
				</g>
				<g>
					<defs>
						<rect id="SVGID_31_" x="176.8" y="155" width="286.4" height="283.3"/>
					</defs>
					<defs>
						<rect id="SVGID_32_" x="176.8" y="155" width="286.4" height="283.3"/>
					</defs>
					<defs>
						<rect id="SVGID_33_" x="176.8" y="155" width="286.4" height="283.3"/>
					</defs>
					<defs>
						<rect id="SVGID_34_" x="176.8" y="155" width="286.4" height="283.3"/>
					</defs>
					<defs>
						<rect id="SVGID_35_" x="176.8" y="155" width="286.4" height="283.3"/>
					</defs>
					<defs>
						<rect id="SVGID_36_" x="176.8" y="155" width="286.4" height="283.3"/>
					</defs>
					<clipPath id="SVGID_37_">
						<use xlink:href="#SVGID_31_"  style="overflow:visible;"/>
					</clipPath>
					<clipPath id="SVGID_38_" class="st19">
						<use xlink:href="#SVGID_32_"  style="overflow:visible;"/>
					</clipPath>
					<clipPath id="SVGID_39_" class="st20">
						<use xlink:href="#SVGID_33_"  style="overflow:visible;"/>
					</clipPath>
					<clipPath id="SVGID_40_" class="st21">
						<use xlink:href="#SVGID_34_"  style="overflow:visible;"/>
					</clipPath>
					<clipPath id="SVGID_41_" class="st22">
						<use xlink:href="#SVGID_35_"  style="overflow:visible;"/>
					</clipPath>
					<clipPath id="SVGID_42_" class="st23">
						<use xlink:href="#SVGID_36_"  style="overflow:visible;"/>
					</clipPath>
				</g>
				<g>
					<defs>
						<rect id="SVGID_43_" x="176.8" y="155" width="286.4" height="283.3"/>
					</defs>
					<defs>
						<rect id="SVGID_44_" x="176.8" y="155" width="286.4" height="283.3"/>
					</defs>
					<defs>
						<rect id="SVGID_45_" x="176.8" y="155" width="286.4" height="283.3"/>
					</defs>
					<defs>
						<rect id="SVGID_46_" x="176.8" y="155" width="286.4" height="283.3"/>
					</defs>
					<defs>
						<rect id="SVGID_47_" x="176.8" y="155" width="286.4" height="283.3"/>
					</defs>
					<defs>
						<rect id="SVGID_48_" x="176.8" y="155" width="286.4" height="283.3"/>
					</defs>
					<defs>
						<rect id="SVGID_49_" x="176.8" y="155" width="286.4" height="283.3"/>
					</defs>
					<clipPath id="SVGID_50_">
						<use xlink:href="#SVGID_43_"  style="overflow:visible;"/>
					</clipPath>
					<clipPath id="SVGID_51_" class="st24">
						<use xlink:href="#SVGID_44_"  style="overflow:visible;"/>
					</clipPath>
					<clipPath id="SVGID_52_" class="st25">
						<use xlink:href="#SVGID_45_"  style="overflow:visible;"/>
					</clipPath>
					<clipPath id="SVGID_53_" class="st26">
						<use xlink:href="#SVGID_46_"  style="overflow:visible;"/>
					</clipPath>
					<clipPath id="SVGID_54_" class="st27">
						<use xlink:href="#SVGID_47_"  style="overflow:visible;"/>
					</clipPath>
					<clipPath id="SVGID_55_" class="st28">
						<use xlink:href="#SVGID_48_"  style="overflow:visible;"/>
					</clipPath>
					<clipPath id="SVGID_56_" class="st29">
						<use xlink:href="#SVGID_49_"  style="overflow:visible;"/>
					</clipPath>
				</g>
				<g>
					<defs>
						<rect id="SVGID_57_" x="176.8" y="155" width="286.4" height="283.3"/>
					</defs>
					<defs>
						<rect id="SVGID_58_" x="176.8" y="155" width="286.4" height="283.3"/>
					</defs>
					<defs>
						<rect id="SVGID_59_" x="176.8" y="155" width="286.4" height="283.3"/>
					</defs>
					<defs>
						<rect id="SVGID_60_" x="176.8" y="155" width="286.4" height="283.3"/>
					</defs>
					<defs>
						<rect id="SVGID_61_" x="176.8" y="155" width="286.4" height="283.3"/>
					</defs>
					<defs>
						<rect id="SVGID_62_" x="176.8" y="155" width="286.4" height="283.3"/>
					</defs>
					<defs>
						<rect id="SVGID_63_" x="176.8" y="155" width="286.4" height="283.3"/>
					</defs>
					<defs>
						<rect id="SVGID_64_" x="176.8" y="155" width="286.4" height="283.3"/>
					</defs>
					<clipPath id="SVGID_65_">
						<use xlink:href="#SVGID_57_"  style="overflow:visible;"/>
					</clipPath>
					<clipPath id="SVGID_66_" class="st30">
						<use xlink:href="#SVGID_58_"  style="overflow:visible;"/>
					</clipPath>
					<clipPath id="SVGID_67_" class="st31">
						<use xlink:href="#SVGID_59_"  style="overflow:visible;"/>
					</clipPath>
					<clipPath id="SVGID_68_" class="st32">
						<use xlink:href="#SVGID_60_"  style="overflow:visible;"/>
					</clipPath>
					<clipPath id="SVGID_69_" class="st33">
						<use xlink:href="#SVGID_61_"  style="overflow:visible;"/>
					</clipPath>
					<clipPath id="SVGID_70_" class="st34">
						<use xlink:href="#SVGID_62_"  style="overflow:visible;"/>
					</clipPath>
					<clipPath id="SVGID_71_" class="st35">
						<use xlink:href="#SVGID_63_"  style="overflow:visible;"/>
					</clipPath>
					<clipPath id="SVGID_72_" class="st36">
						<use xlink:href="#SVGID_64_"  style="overflow:visible;"/>
					</clipPath>
				</g>
				<g>
					<defs>
						<rect id="SVGID_73_" x="176.8" y="155" width="286.4" height="283.3"/>
					</defs>
					<defs>
						<rect id="SVGID_74_" x="176.8" y="155" width="286.4" height="283.3"/>
					</defs>
					<defs>
						<rect id="SVGID_75_" x="176.8" y="155" width="286.4" height="283.3"/>
					</defs>
					<defs>
						<rect id="SVGID_76_" x="176.8" y="155" width="286.4" height="283.3"/>
					</defs>
					<defs>
						<rect id="SVGID_77_" x="176.8" y="155" width="286.4" height="283.3"/>
					</defs>
					<defs>
						<rect id="SVGID_78_" x="176.8" y="155" width="286.4" height="283.3"/>
					</defs>
					<defs>
						<rect id="SVGID_79_" x="176.8" y="155" width="286.4" height="283.3"/>
					</defs>
					<defs>
						<rect id="SVGID_80_" x="176.8" y="155" width="286.4" height="283.3"/>
					</defs>
					<defs>
						<rect id="SVGID_81_" x="176.8" y="155" width="286.4" height="283.3"/>
					</defs>
					<clipPath id="SVGID_82_">
						<use xlink:href="#SVGID_73_"  style="overflow:visible;"/>
					</clipPath>
					<clipPath id="SVGID_83_" class="st37">
						<use xlink:href="#SVGID_74_"  style="overflow:visible;"/>
					</clipPath>
					<clipPath id="SVGID_84_" class="st38">
						<use xlink:href="#SVGID_75_"  style="overflow:visible;"/>
					</clipPath>
					<clipPath id="SVGID_85_" class="st39">
						<use xlink:href="#SVGID_76_"  style="overflow:visible;"/>
					</clipPath>
					<clipPath id="SVGID_86_" class="st40">
						<use xlink:href="#SVGID_77_"  style="overflow:visible;"/>
					</clipPath>
					<clipPath id="SVGID_87_" class="st41">
						<use xlink:href="#SVGID_78_"  style="overflow:visible;"/>
					</clipPath>
					<clipPath id="SVGID_88_" class="st42">
						<use xlink:href="#SVGID_79_"  style="overflow:visible;"/>
					</clipPath>
					<clipPath id="SVGID_89_" class="st43">
						<use xlink:href="#SVGID_80_"  style="overflow:visible;"/>
					</clipPath>
					<clipPath id="SVGID_90_" class="st44">
						<use xlink:href="#SVGID_81_"  style="overflow:visible;"/>
					</clipPath>
				</g>
				<g>
					<defs>
						<rect id="SVGID_91_" x="176.8" y="155" width="286.4" height="283.3"/>
					</defs>
					<defs>
						<rect id="SVGID_92_" x="176.8" y="155" width="286.4" height="283.3"/>
					</defs>
					<defs>
						<rect id="SVGID_93_" x="176.8" y="155" width="286.4" height="283.3"/>
					</defs>
					<defs>
						<rect id="SVGID_94_" x="176.8" y="155" width="286.4" height="283.3"/>
					</defs>
					<defs>
						<rect id="SVGID_95_" x="176.8" y="155" width="286.4" height="283.3"/>
					</defs>
					<defs>
						<rect id="SVGID_96_" x="176.8" y="155" width="286.4" height="283.3"/>
					</defs>
					<defs>
						<rect id="SVGID_97_" x="176.8" y="155" width="286.4" height="283.3"/>
					</defs>
					<defs>
						<rect id="SVGID_98_" x="176.8" y="155" width="286.4" height="283.3"/>
					</defs>
					<defs>
						<rect id="SVGID_99_" x="176.8" y="155" width="286.4" height="283.3"/>
					</defs>
					<defs>
						<rect id="SVGID_100_" x="176.8" y="155" width="286.4" height="283.3"/>
					</defs>
					<clipPath id="SVGID_101_">
						<use xlink:href="#SVGID_91_"  style="overflow:visible;"/>
					</clipPath>
					<clipPath id="SVGID_102_" class="st45">
						<use xlink:href="#SVGID_92_"  style="overflow:visible;"/>
					</clipPath>
					<clipPath id="SVGID_103_" class="st46">
						<use xlink:href="#SVGID_93_"  style="overflow:visible;"/>
					</clipPath>
					<clipPath id="SVGID_104_" class="st47">
						<use xlink:href="#SVGID_94_"  style="overflow:visible;"/>
					</clipPath>
					<clipPath id="SVGID_105_" class="st48">
						<use xlink:href="#SVGID_95_"  style="overflow:visible;"/>
					</clipPath>
					<clipPath id="SVGID_106_" class="st49">
						<use xlink:href="#SVGID_96_"  style="overflow:visible;"/>
					</clipPath>
					<clipPath id="SVGID_107_" class="st50">
						<use xlink:href="#SVGID_97_"  style="overflow:visible;"/>
					</clipPath>
					<clipPath id="SVGID_108_" class="st51">
						<use xlink:href="#SVGID_98_"  style="overflow:visible;"/>
					</clipPath>
					<clipPath id="SVGID_109_" class="st52">
						<use xlink:href="#SVGID_99_"  style="overflow:visible;"/>
					</clipPath>
					<clipPath id="SVGID_110_" class="st53">
						<use xlink:href="#SVGID_100_"  style="overflow:visible;"/>
					</clipPath>
				</g>
				<g>
					<defs>
						<rect id="SVGID_111_" x="176.8" y="155" width="286.4" height="283.3"/>
					</defs>
					<defs>
						<rect id="SVGID_112_" x="176.8" y="155" width="286.4" height="283.3"/>
					</defs>
					<defs>
						<rect id="SVGID_113_" x="176.8" y="155" width="286.4" height="283.3"/>
					</defs>
					<defs>
						<rect id="SVGID_114_" x="176.8" y="155" width="286.4" height="283.3"/>
					</defs>
					<defs>
						<rect id="SVGID_115_" x="176.8" y="155" width="286.4" height="283.3"/>
					</defs>
					<defs>
						<rect id="SVGID_116_" x="176.8" y="155" width="286.4" height="283.3"/>
					</defs>
					<defs>
						<rect id="SVGID_117_" x="176.8" y="155" width="286.4" height="283.3"/>
					</defs>
					<defs>
						<rect id="SVGID_118_" x="176.8" y="155" width="286.4" height="283.3"/>
					</defs>
					<defs>
						<rect id="SVGID_119_" x="176.8" y="155" width="286.4" height="283.3"/>
					</defs>
					<defs>
						<rect id="SVGID_120_" x="176.8" y="155" width="286.4" height="283.3"/>
					</defs>
					<defs>
						<rect id="SVGID_121_" x="176.8" y="155" width="286.4" height="283.3"/>
					</defs>
					<clipPath id="SVGID_122_">
						<use xlink:href="#SVGID_111_"  style="overflow:visible;"/>
					</clipPath>
					<clipPath id="SVGID_123_" class="st54">
						<use xlink:href="#SVGID_112_"  style="overflow:visible;"/>
					</clipPath>
					<clipPath id="SVGID_124_" class="st55">
						<use xlink:href="#SVGID_113_"  style="overflow:visible;"/>
					</clipPath>
					<clipPath id="SVGID_125_" class="st56">
						<use xlink:href="#SVGID_114_"  style="overflow:visible;"/>
					</clipPath>
					<clipPath id="SVGID_126_" class="st57">
						<use xlink:href="#SVGID_115_"  style="overflow:visible;"/>
					</clipPath>
					<clipPath id="SVGID_127_" class="st58">
						<use xlink:href="#SVGID_116_"  style="overflow:visible;"/>
					</clipPath>
					<clipPath id="SVGID_128_" class="st59">
						<use xlink:href="#SVGID_117_"  style="overflow:visible;"/>
					</clipPath>
					<clipPath id="SVGID_129_" class="st60">
						<use xlink:href="#SVGID_118_"  style="overflow:visible;"/>
					</clipPath>
					<clipPath id="SVGID_130_" class="st61">
						<use xlink:href="#SVGID_119_"  style="overflow:visible;"/>
					</clipPath>
					<clipPath id="SVGID_131_" class="st62">
						<use xlink:href="#SVGID_120_"  style="overflow:visible;"/>
					</clipPath>
					<clipPath id="SVGID_132_" class="st63">
						<use xlink:href="#SVGID_121_"  style="overflow:visible;"/>
					</clipPath>
				</g>
				<g>
					<defs>
						<rect id="SVGID_133_" x="176.8" y="155" width="286.4" height="283.3"/>
					</defs>
					<defs>
						<rect id="SVGID_134_" x="176.8" y="155" width="286.4" height="283.3"/>
					</defs>
					<defs>
						<rect id="SVGID_135_" x="176.8" y="155" width="286.4" height="283.3"/>
					</defs>
					<defs>
						<rect id="SVGID_136_" x="176.8" y="155" width="286.4" height="283.3"/>
					</defs>
					<defs>
						<rect id="SVGID_137_" x="176.8" y="155" width="286.4" height="283.3"/>
					</defs>
					<defs>
						<rect id="SVGID_138_" x="176.8" y="155" width="286.4" height="283.3"/>
					</defs>
					<defs>
						<rect id="SVGID_139_" x="176.8" y="155" width="286.4" height="283.3"/>
					</defs>
					<defs>
						<rect id="SVGID_140_" x="176.8" y="155" width="286.4" height="283.3"/>
					</defs>
					<defs>
						<rect id="SVGID_141_" x="176.8" y="155" width="286.4" height="283.3"/>
					</defs>
					<defs>
						<rect id="SVGID_142_" x="176.8" y="155" width="286.4" height="283.3"/>
					</defs>
					<defs>
						<rect id="SVGID_143_" x="176.8" y="155" width="286.4" height="283.3"/>
					</defs>
					<defs>
						<rect id="SVGID_144_" x="176.8" y="155" width="286.4" height="283.3"/>
					</defs>
					<clipPath id="SVGID_145_">
						<use xlink:href="#SVGID_133_"  style="overflow:visible;"/>
					</clipPath>
					<clipPath id="SVGID_146_" class="st64">
						<use xlink:href="#SVGID_134_"  style="overflow:visible;"/>
					</clipPath>
					<clipPath id="SVGID_147_" class="st65">
						<use xlink:href="#SVGID_135_"  style="overflow:visible;"/>
					</clipPath>
					<clipPath id="SVGID_148_" class="st66">
						<use xlink:href="#SVGID_136_"  style="overflow:visible;"/>
					</clipPath>
					<clipPath id="SVGID_149_" class="st67">
						<use xlink:href="#SVGID_137_"  style="overflow:visible;"/>
					</clipPath>
					<clipPath id="SVGID_150_" class="st68">
						<use xlink:href="#SVGID_138_"  style="overflow:visible;"/>
					</clipPath>
					<clipPath id="SVGID_151_" class="st69">
						<use xlink:href="#SVGID_139_"  style="overflow:visible;"/>
					</clipPath>
					<clipPath id="SVGID_152_" class="st70">
						<use xlink:href="#SVGID_140_"  style="overflow:visible;"/>
					</clipPath>
					<clipPath id="SVGID_153_" class="st71">
						<use xlink:href="#SVGID_141_"  style="overflow:visible;"/>
					</clipPath>
					<clipPath id="SVGID_154_" class="st72">
						<use xlink:href="#SVGID_142_"  style="overflow:visible;"/>
					</clipPath>
					<clipPath id="SVGID_155_" class="st73">
						<use xlink:href="#SVGID_143_"  style="overflow:visible;"/>
					</clipPath>
					<clipPath id="SVGID_156_" class="st74">
						<use xlink:href="#SVGID_144_"  style="overflow:visible;"/>
					</clipPath>
					<path class="st75" d="M184.1,208.1c15.8,51.2,63.4,45.4,63.4,45.4c9.4,0.6,50.8,41.7,50.8,41.7l28.9-28.9
						c-35.9-32.3-47.1-56.1-47.1-56.1c4.3-63.5-67.1-54.5-67.1-54.5l-3.6,7.3l38.1,21.8c1.3,28.8-23.6,41.7-23.6,41.7l-38.1-21.8"/>
				</g>
				<g>
					<defs>
						<rect id="SVGID_157_" x="176.8" y="155" width="286.4" height="283.3"/>
					</defs>
					<defs>
						<rect id="SVGID_158_" x="176.8" y="155" width="286.4" height="283.3"/>
					</defs>
					<defs>
						<rect id="SVGID_159_" x="176.8" y="155" width="286.4" height="283.3"/>
					</defs>
					<defs>
						<rect id="SVGID_160_" x="176.8" y="155" width="286.4" height="283.3"/>
					</defs>
					<defs>
						<rect id="SVGID_161_" x="176.8" y="155" width="286.4" height="283.3"/>
					</defs>
					<defs>
						<rect id="SVGID_162_" x="176.8" y="155" width="286.4" height="283.3"/>
					</defs>
					<defs>
						<rect id="SVGID_163_" x="176.8" y="155" width="286.4" height="283.3"/>
					</defs>
					<defs>
						<rect id="SVGID_164_" x="176.8" y="155" width="286.4" height="283.3"/>
					</defs>
					<defs>
						<rect id="SVGID_165_" x="176.8" y="155" width="286.4" height="283.3"/>
					</defs>
					<defs>
						<rect id="SVGID_166_" x="176.8" y="155" width="286.4" height="283.3"/>
					</defs>
					<defs>
						<rect id="SVGID_167_" x="176.8" y="155" width="286.4" height="283.3"/>
					</defs>
					<defs>
						<rect id="SVGID_168_" x="176.8" y="155" width="286.4" height="283.3"/>
					</defs>
					<clipPath id="SVGID_169_">
						<use xlink:href="#SVGID_157_"  style="overflow:visible;"/>
					</clipPath>
					<clipPath id="SVGID_170_" class="st76">
						<use xlink:href="#SVGID_158_"  style="overflow:visible;"/>
					</clipPath>
					<clipPath id="SVGID_171_" class="st77">
						<use xlink:href="#SVGID_159_"  style="overflow:visible;"/>
					</clipPath>
					<clipPath id="SVGID_172_" class="st78">
						<use xlink:href="#SVGID_160_"  style="overflow:visible;"/>
					</clipPath>
					<clipPath id="SVGID_173_" class="st79">
						<use xlink:href="#SVGID_161_"  style="overflow:visible;"/>
					</clipPath>
					<clipPath id="SVGID_174_" class="st80">
						<use xlink:href="#SVGID_162_"  style="overflow:visible;"/>
					</clipPath>
					<clipPath id="SVGID_175_" class="st81">
						<use xlink:href="#SVGID_163_"  style="overflow:visible;"/>
					</clipPath>
					<clipPath id="SVGID_176_" class="st82">
						<use xlink:href="#SVGID_164_"  style="overflow:visible;"/>
					</clipPath>
					<clipPath id="SVGID_177_" class="st83">
						<use xlink:href="#SVGID_165_"  style="overflow:visible;"/>
					</clipPath>
					<clipPath id="SVGID_178_" class="st84">
						<use xlink:href="#SVGID_166_"  style="overflow:visible;"/>
					</clipPath>
					<clipPath id="SVGID_179_" class="st85">
						<use xlink:href="#SVGID_167_"  style="overflow:visible;"/>
					</clipPath>
					<clipPath id="SVGID_180_" class="st86">
						<use xlink:href="#SVGID_168_"  style="overflow:visible;"/>
					</clipPath>
					<path class="st87" d="M463.3,374.9c-15.8-51.2-63.4-45.4-63.4-45.4c-9.4-0.6-50.8-41.7-50.8-41.7l-29,29
						c35.9,32.3,47.1,56.1,47.1,56.1c-4.3,63.4,67.1,54.4,67.1,54.4l3.6-7.3l-38.1-21.7c-1.3-28.8,23.6-41.7,23.6-41.7l38.1,21.8"/>
				</g>
				<g>
					<defs>
						<rect id="SVGID_181_" x="176.8" y="155" width="286.4" height="283.3"/>
					</defs>
					<defs>
						<rect id="SVGID_182_" x="176.8" y="155" width="286.4" height="283.3"/>
					</defs>
					<defs>
						<rect id="SVGID_183_" x="176.8" y="155" width="286.4" height="283.3"/>
					</defs>
					<defs>
						<rect id="SVGID_184_" x="176.8" y="155" width="286.4" height="283.3"/>
					</defs>
					<defs>
						<rect id="SVGID_185_" x="176.8" y="155" width="286.4" height="283.3"/>
					</defs>
					<defs>
						<rect id="SVGID_186_" x="176.8" y="155" width="286.4" height="283.3"/>
					</defs>
					<defs>
						<rect id="SVGID_187_" x="176.8" y="155" width="286.4" height="283.3"/>
					</defs>
					<defs>
						<rect id="SVGID_188_" x="176.8" y="155" width="286.4" height="283.3"/>
					</defs>
					<defs>
						<rect id="SVGID_189_" x="176.8" y="155" width="286.4" height="283.3"/>
					</defs>
					<defs>
						<rect id="SVGID_190_" x="176.8" y="155" width="286.4" height="283.3"/>
					</defs>
					<defs>
						<rect id="SVGID_191_" x="176.8" y="155" width="286.4" height="283.3"/>
					</defs>
					<defs>
						<rect id="SVGID_192_" x="176.8" y="155" width="286.4" height="283.3"/>
					</defs>
					<clipPath id="SVGID_193_">
						<use xlink:href="#SVGID_181_"  style="overflow:visible;"/>
					</clipPath>
					<clipPath id="SVGID_194_" class="st88">
						<use xlink:href="#SVGID_182_"  style="overflow:visible;"/>
					</clipPath>
					<clipPath id="SVGID_195_" class="st89">
						<use xlink:href="#SVGID_183_"  style="overflow:visible;"/>
					</clipPath>
					<clipPath id="SVGID_196_" class="st90">
						<use xlink:href="#SVGID_184_"  style="overflow:visible;"/>
					</clipPath>
					<clipPath id="SVGID_197_" class="st91">
						<use xlink:href="#SVGID_185_"  style="overflow:visible;"/>
					</clipPath>
					<clipPath id="SVGID_198_" class="st92">
						<use xlink:href="#SVGID_186_"  style="overflow:visible;"/>
					</clipPath>
					<clipPath id="SVGID_199_" class="st93">
						<use xlink:href="#SVGID_187_"  style="overflow:visible;"/>
					</clipPath>
					<clipPath id="SVGID_200_" class="st94">
						<use xlink:href="#SVGID_188_"  style="overflow:visible;"/>
					</clipPath>
					<clipPath id="SVGID_201_" class="st95">
						<use xlink:href="#SVGID_189_"  style="overflow:visible;"/>
					</clipPath>
					<clipPath id="SVGID_202_" class="st96">
						<use xlink:href="#SVGID_190_"  style="overflow:visible;"/>
					</clipPath>
					<clipPath id="SVGID_203_" class="st97">
						<use xlink:href="#SVGID_191_"  style="overflow:visible;"/>
					</clipPath>
					<clipPath id="SVGID_204_" class="st98">
						<use xlink:href="#SVGID_192_"  style="overflow:visible;"/>
					</clipPath>
					<path class="st99" d="M294.6,309.6l-14.5-9l-7.2,7.3c0,0-0.6,26.6-36.2,32.6l-59.9,59.7c0,0-0.2,33,38.1,38.1l59.8-59.8
						c0,0,2.1-33.2,32.6-36.2l7.3-7.3l-9-14.5l105.2-105.1l14.5-3.6l25.4-36.2l-10.9-10.9L403.5,190l-3.4,14.7L294.6,309.6z"/>
				</g>
			</g>
		</g>
	</g>
	<g class="st100">
		<path class="st101" d="M263.5,324.3c-9.3,5.2-25.5,14.8-37.6,21.4l0.9-0.2c1.8-0.2,3.9-0.2,6.1-0.2c15,0,37.3,3.4,48.3,10.2
			c8.9,5.7,13.7,21.4,13.7,25.3c-0.2,1.4-1.4,2-3.2,2c-3.2,0-8-1.6-11.6-3.9c-5.2-3-15.3-4.1-26.4-4.1c-11.8,0-25,1.4-34.8,3.2
			c-13.9,2.7-30.7,9.8-36.4,9.8c-2.3,0-17.3-13.9-17.3-25.3c0-5,6.4-7.7,19.1-10.5c10.9-8.9,55.8-44.2,64.9-51.2
			c25.7-19.8,57.2-50.1,57.2-60.8c0-3.6-3.6-5-8-5c-9.3,0-25,5.9-38,11.4c-11.6,5-33,20-43,20c-9.1,0-14.1-19.4-14.1-26.2
			c0-0.5,0.2-0.9,0.2-1.4c0.7-3.9,49.9-36.9,90.8-36.9c1.6,0,3.4,0.2,5,0.2c15,1.1,40.3,26.9,40.3,47.4c0,1.8-0.2,3.6-0.7,5.2
			C330.5,287.5,281.8,314.6,263.5,324.3z"/>
		<path class="st101" d="M474.8,234.6c0,2-0.5,3.9-2,5c-20,14.6-107.5,113.2-117.3,133c-1.6,3.2-1.8,5.5-1.8,7.1c0,1.1,0,1.8,0,2.5
			c0,0.9-0.5,1.4-1.4,1.4c-6.4,0-13.2-14.8-13.2-20.7c0-9.1,49.4-82.2,87.4-127.3c-10.7,1.6-22.5,2.7-32.3,2.7
			c-7.7,0-14.1-0.7-18.2-2.5c-7.7-3.4-16.2-26.9-16.2-32.6c0-4.3,1.8-6.1,3.9-6.1c1.6,0,3.6,1.4,5,3.6c2.7,4.8,33.2,7.1,44.9,7.1
			c14.8,0,30.3-3.2,45.3-3.2c12.3,0,15.3,19.6,15.9,28.7C474.8,233.7,474.8,234.2,474.8,234.6z"/>
	</g>
</g>
<g>
	<path d="M246.3,61.7h41.5v14h-25.8v13.7h23.9v13.7h-23.8v23h-15.8V61.7H246.3z M258.1,123.1v-23h23.8v-7.8h-23.8V72.7h25.8v-8
		h-33.7v58.5H258.1z M251.8,66.2h31v0.5h-30.6L251.8,66.2z M253.9,68.4h28.9v0.5h-28.4L253.9,68.4z M256.1,70.5h26.7v0.6h-26.3
		L256.1,70.5z M258.1,93.8h22.7v0.6h-22.7V93.8z M258.1,95.9h22.7v0.6h-22.7V95.9z M258.1,98.1h22.7v0.6h-22.7V98.1z"/>
	<path d="M294.5,61.7h42.6v14h-26.9v11.6h24.8v13.7h-24.8v11.7h28v13.5h-43.8V61.7z M334.3,123.1v-7.5h-28V98H331v-7.8h-24.8V72.7
		h26.9v-8h-34.7v58.5H334.3z M300.4,121.2h32.8v0.6h-33.4L300.4,121.2z M299.9,66.2H332v0.5h-31.6L299.9,66.2z M302,68.4h30v0.5
		h-29.4L302,68.4z M302.6,119.1h30.6v0.5H302L302.6,119.1z M304.2,70.5H332v0.6h-27.3L304.2,70.5z M304.9,116.9h28.4v0.6h-29
		L304.9,116.9z M306.3,91.6h23.8v0.5h-23.8V91.6z M306.3,93.8h23.8v0.6h-23.8V93.8z M306.3,95.9h23.8v0.6h-23.8V95.9z"/>
	<path d="M346,61.7h25.9c10.7,0,19.3,8,19.3,18c0,6-2.5,9.8-6.9,13.2v0.2c6.7,4.8,9.4,9.2,9.4,15.9c0,9-7,17.1-19.3,17.1H346
		L346,61.7L346,61.7z M374.4,123.1c9.8,0,15.4-6.8,15.4-14.1c0-5.6-3-11.2-10.4-15.4v-0.8c6-3.6,8-8,8-13.1c0-8.4-6.9-15-15.4-15
		h-22v58.5H374.4z M357.7,66.2h17.4l1.9,0.5h-19.3V66.2z M357.7,68.2H380l-0.1-0.1l0.8,0.6h-23L357.7,68.2L357.7,68.2z M357.7,70.4
		h24.8l0.5,0.5h-25.2v-0.5H357.7z M357.7,72.4h11.5c6,0,10.1,3.8,10.1,9c0,5.4-4.2,9.1-10.1,9.1h-11.5V72.4z M357.7,91.6h21.6
		l-0.7,0.5h-20.9V91.6z M357.7,93.8h20.3l0.7,0.6h-21V93.8z M357.7,95.9h23.3l0.6,0.5h-23.9V95.9z M357.7,97.7h13.5
		c6,0,10,3.9,10,8.7c0,5.3-3.9,8.6-10,8.6h-13.5V97.7z M357.7,117.1h28.2l-0.5,0.5h-27.6v-0.5H357.7z M357.7,119.2h25.9l-0.7,0.6
		h-25.2V119.2z M357.7,121.4h21.2l-4.5,0.6h-16.7V121.4z M369.1,87.3c3.7,0,6.2-2.5,6.2-6c0-3.3-2.6-6-6.2-6h-7.5v11.9H369.1z
		 M371.1,112c3.7,0,6-2.1,6-5.6c0-3.1-2.4-5.7-6-5.7h-9.5v11.2h9.5V112z M384.2,72.5l0.2,0.6h-8.6l-1.2-0.6H384.2z M376.3,89.5h5.8
		l-0.6,0.6h-5.8L376.3,89.5z M376.9,115H387l-0.2,0.5h-10.9L376.9,115z M383.4,98l0.6,0.6h-6l-0.8-0.6H383.4z M377.7,74.7h7.4
		l0.2,0.6h-7L377.7,74.7z M378.4,87.3h5.4l-0.5,0.6h-5.5L378.4,87.3z M379.3,76.8h6.7v0.5h-6.4L379.3,76.8z M379.7,112.9h8.2
		l-0.2,0.5h-8.6L379.7,112.9z M379.7,85.3h5.3l-0.4,0.6h-5.3L379.7,85.3z M385.3,100.1l0.5,0.6h-5.6l-0.5-0.6H385.3z M380.1,78.9h6
		v0.6h-6V78.9z M380.3,83.2h5.5l-0.2,0.6h-5.5L380.3,83.2z M380.5,81h5.7v0.6h-5.7V81z M381.3,110.7h7.3l-0.2,0.6h-7.4L381.3,110.7z
		 M386.7,102.3l0.4,0.5h-5.5l-0.4-0.5H386.7z M382,108.6h6.7v0.6h-6.8L382,108.6z M382,104.4h5.7l0.2,0.5h-5.8L382,104.4z
		 M382.2,106.4h6.1v0.5h-6.1V106.4z"/>
</g>
</svg>
