<?xml version="1.0" encoding="utf-8"?>
<!-- Generator: Adobe Illustrator 19.2.1, SVG Export Plug-In . SVG Version: 6.00 Build 0)  -->
<svg version="1.1" id="Layer_1" xmlns="http://www.w3.org/2000/svg" xmlns:xlink="http://www.w3.org/1999/xlink" x="0px" y="0px"
	 viewBox="0 0 640 480" style="enable-background:new 0 0 640 480;" xml:space="preserve">
<style type="text/css">
	.st0{fill:#263238;}
</style>
<g id="Layer_2_1_">
	<path class="st0" d="M99.5,96.3c25.6,82.9,102.9,73.5,102.9,73.5c15.3,0.9,82.3,67.6,82.3,67.6l47-47
		c-58.2-52.3-76.4-91.1-76.4-91.1C262.4-3.7,146.5,11,146.5,11l-5.9,11.8l61.7,35.3c2.1,46.7-38.2,67.6-38.2,67.6l-61.7-35.3"/>
	<path class="st0" d="M552.3,366.8c-25.6-82.9-102.9-73.5-102.9-73.5c-15.3-0.9-82.3-67.6-82.3-67.6l-47,47
		c58.2,52.3,76.4,91.1,76.4,91.1c-7.1,102.9,108.8,88.2,108.8,88.2l5.9-11.8L449.4,405c-2.1-46.7,38.2-67.6,38.2-67.6l61.7,35.3"/>
	<path class="st0" d="M278.8,260.9l-23.5-14.7L243.6,258c0,0-0.9,43.2-58.8,52.9l-97,97c0,0-0.3,53.5,61.7,61.7l97-97
		c0,0,3.5-53.8,52.9-58.8l11.8-11.8l-14.7-23.5L467,108.1l23.5-5.9l41.2-58.8l-17.6-17.6l-58.8,41.2l-5.6,23.8L278.8,260.9z"/>
</g>
</svg>
