<?xml version="1.0" encoding="utf-8"?>
<!-- Generator: Adobe Illustrator 19.2.1, SVG Export Plug-In . SVG Version: 6.00 Build 0)  -->
<svg version="1.1" id="Layer_1" xmlns="http://www.w3.org/2000/svg" xmlns:xlink="http://www.w3.org/1999/xlink" x="0px" y="0px"
	 viewBox="0 0 640 480" style="enable-background:new 0 0 640 480;" xml:space="preserve">
<style type="text/css">
	.st0{fill:none;}
	.st1{fill:#2F2F2F;}
	.st2{fill:#B7B7B7;}
	.st3{fill:#F9B701;}
	.st4{fill:none;stroke:#F9B701;stroke-width:3;stroke-miterlimit:10;}
</style>
<g id="Computer">
	<g>
		<g>
			<g>
				<g>
					<rect x="79" y="25" class="st0" width="482" height="315"/>
					<path class="st1" d="M592,31.7C592,15.8,579.2,3,563.3,3H75.7C59.8,3,47,15.8,47,31.7v330.7c0,15.8,12.8,28.7,28.7,28.7h487.7
						c15.8,0,28.7-12.8,28.7-28.7V31.7H592z M561,340H79V25h482V340z"/>
				</g>
				<polygon class="st1" points="251,390 246.9,411 393.3,411 389.8,390 				"/>
			</g>
			<path class="st1" d="M247.1,411h146.2c0,0,7.7,39.9,39.5,69H207C207,480,234.5,459,247.1,411z"/>
		</g>
		<circle class="st2" cx="526.8" cy="365.1" r="8.6"/>
	</g>
</g>
<circle class="st3" cx="195.5" cy="239.1" r="20.2"/>
<circle class="st3" cx="287.7" cy="159.8" r="20.2"/>
<circle class="st3" cx="400.7" cy="218.8" r="20.2"/>
<circle class="st3" cx="492.8" cy="139.5" r="20.2"/>
<line class="st4" x1="287.7" y1="159.8" x2="195.5" y2="239.1"/>
<line class="st4" x1="396.9" y1="221.7" x2="291.6" y2="160.9"/>
<line class="st4" x1="492.9" y1="139.5" x2="400.7" y2="218.8"/>
</svg>
