<?xml version="1.0" encoding="utf-8"?>
<!-- Generator: Adobe Illustrator 20.1.0, SVG Export Plug-In . SVG Version: 6.00 Build 0)  -->
<svg version="1.1" id="Layer_1" xmlns="http://www.w3.org/2000/svg" xmlns:xlink="http://www.w3.org/1999/xlink" x="0px" y="0px"
	 viewBox="0 0 640 480" style="enable-background:new 0 0 640 480;" xml:space="preserve">
<style type="text/css">
	.st0{fill:#FFFFFF;stroke:#1DE9B6;stroke-width:5;stroke-miterlimit:10;}
	.st1{opacity:0.35;}
	.st2{fill:none;stroke:#000000;stroke-miterlimit:10;}
	.st3{fill:#1DE9B6;}
	.st4{fill:#00BFA5;}
	.st5{fill:#F9B701;}
	.st6{opacity:0.2;}
	.st7{clip-path:url(#SVGID_2_);}
	.st8{clip-path:url(#SVGID_6_);}
	.st9{clip-path:url(#SVGID_7_);}
	.st10{clip-path:url(#SVGID_8_);fill:#F9B701;}
	.st11{enable-background:new    ;}
	.st12{fill:#263832;}
</style>
<g>
	<path class="st0" d="M599,464.3H41c-6.6,0-12-5.4-12-12v-390c0-6.6,5.4-12,12-12h558c6.6,0,12,5.4,12,12v390
		C611,458.9,605.6,464.3,599,464.3z"/>
	<g class="st1">
		<g>
			<rect x="46.5" y="129" class="st2" width="547" height="323"/>
			<line class="st2" x1="46.5" y1="195" x2="593.5" y2="195"/>
			<line class="st2" x1="46.5" y1="258" x2="593.5" y2="258"/>
			<line class="st2" x1="46.5" y1="325" x2="593.5" y2="325"/>
			<line class="st2" x1="46.5" y1="389" x2="593.5" y2="389"/>
		</g>
		<line class="st2" x1="269" y1="129" x2="269" y2="452"/>
		<line class="st2" x1="116" y1="129" x2="116" y2="452"/>
		<line class="st2" x1="192.5" y1="129" x2="192.5" y2="452"/>
		<line class="st2" x1="345.5" y1="129" x2="345.5" y2="452"/>
		<line class="st2" x1="428.8" y1="129" x2="428.8" y2="452"/>
		<line class="st2" x1="512" y1="129" x2="512" y2="452"/>
	</g>
	<path class="st3" d="M611,121.3H29v-59c0-6.6,5.4-12,12-12h558c6.6,0,12,5.4,12,12V121.3z"/>
	<rect x="29" y="105.3" class="st4" width="582" height="16"/>
	<path class="st5" d="M156.2,84.9h-11.9c-8.7,0-15.8-7.1-15.8-15.8V31.5c0-8.7,7.1-15.8,15.8-15.8h11.9c8.7,0,15.8,7.1,15.8,15.8
		v37.6C172,77.8,164.9,84.9,156.2,84.9z"/>
	<path class="st5" d="M496.2,84.9h-11.9c-8.7,0-15.8-7.1-15.8-15.8V31.5c0-8.7,7.1-15.8,15.8-15.8h11.9c8.7,0,15.8,7.1,15.8,15.8
		v37.6C512,77.8,504.9,84.9,496.2,84.9z"/>
	<g>
		<g>
			<g id="Layer_2_1_" class="st6">
				<defs>
					<rect id="SVGID_1_" x="164.6" y="131" class="st6" width="310.7" height="307.3"/>
				</defs>
				<clipPath id="SVGID_2_">
					<use xlink:href="#SVGID_1_"  style="overflow:visible;"/>
				</clipPath>
				<g class="st7">
					<g>
						<defs>
							<rect id="SVGID_3_" x="164.6" y="131" width="310.7" height="307.3"/>
						</defs>
						<defs>
							<rect id="SVGID_4_" x="164.6" y="131" width="310.7" height="307.3"/>
						</defs>
						<defs>
							<rect id="SVGID_5_" x="164.6" y="131" width="310.7" height="307.3"/>
						</defs>
						<clipPath id="SVGID_6_">
							<use xlink:href="#SVGID_3_"  style="overflow:visible;"/>
						</clipPath>
						<clipPath id="SVGID_7_" class="st8">
							<use xlink:href="#SVGID_4_"  style="overflow:visible;"/>
						</clipPath>
						<clipPath id="SVGID_8_" class="st9">
							<use xlink:href="#SVGID_5_"  style="overflow:visible;"/>
						</clipPath>
						<path class="st10" d="M172.5,188.6c17.1,55.5,68.8,49.2,68.8,49.2c10.2,0.6,55.1,45.2,55.1,45.2l31.4-31.4
							c-38.9-35-51.1-60.9-51.1-60.9c4.7-68.9-72.8-59.1-72.8-59.1l-3.9,7.9l41.3,23.6c1.4,31.2-25.6,45.2-25.6,45.2l-41.3-23.6"/>
						<path class="st10" d="M475.4,369.5c-17.1-55.5-68.8-49.2-68.8-49.2c-10.2-0.6-55.1-45.2-55.1-45.2L320,306.6
							c38.9,35,51.1,60.9,51.1,60.9c-4.7,68.8,72.8,59,72.8,59l3.9-7.9l-41.3-23.5c-1.4-31.2,25.6-45.2,25.6-45.2l41.3,23.6"/>
						<path class="st10" d="M292.4,298.7l-15.7-9.8l-7.8,7.9c0,0-0.6,28.9-39.3,35.4l-65,64.8c0,0-0.2,35.8,41.3,41.3l64.9-64.9
							c0,0,2.3-36,35.4-39.3l7.9-7.9l-9.8-15.7l114.1-114l15.7-3.9l27.6-39.3l-11.8-11.8L410.5,169l-3.7,15.9L292.4,298.7z"/>
					</g>
				</g>
			</g>
			<g class="st11">
				<path class="st12" d="M263.5,324.3c-9.3,5.2-25.5,14.8-37.6,21.4l0.9-0.2c1.8-0.2,3.9-0.2,6.1-0.2c15,0,37.3,3.4,48.3,10.2
					c8.9,5.7,13.7,21.4,13.7,25.3c-0.2,1.4-1.4,2-3.2,2c-3.2,0-8-1.6-11.6-3.9c-5.2-3-15.3-4.1-26.4-4.1c-11.8,0-25,1.4-34.8,3.2
					c-13.9,2.7-30.7,9.8-36.4,9.8c-2.3,0-17.3-13.9-17.3-25.3c0-5,6.4-7.7,19.1-10.5c10.9-8.9,55.8-44.2,64.9-51.2
					c25.7-19.8,57.2-50.1,57.2-60.8c0-3.6-3.6-5-8-5c-9.3,0-25,5.9-38,11.4c-11.6,5-33,20-43,20c-9.1,0-14.1-19.4-14.1-26.2
					c0-0.5,0.2-0.9,0.2-1.4c0.7-3.9,49.9-36.9,90.8-36.9c1.6,0,3.4,0.2,5,0.2c15,1.1,40.3,26.9,40.3,47.4c0,1.8-0.2,3.6-0.7,5.2
					C330.5,287.5,281.8,314.6,263.5,324.3z"/>
				<path class="st12" d="M474.8,234.6c0,2-0.5,3.9-2,5c-20,14.6-107.5,113.2-117.3,133c-1.6,3.2-1.8,5.5-1.8,7.1c0,1.1,0,1.8,0,2.5
					c0,0.9-0.5,1.4-1.4,1.4c-6.4,0-13.2-14.8-13.2-20.7c0-9.1,49.4-82.2,87.4-127.3c-10.7,1.6-22.5,2.7-32.3,2.7
					c-7.7,0-14.1-0.7-18.2-2.5c-7.7-3.4-16.2-26.9-16.2-32.6c0-4.3,1.8-6.1,3.9-6.1c1.6,0,3.6,1.4,5,3.6c2.7,4.8,33.2,7.1,44.9,7.1
					c14.8,0,30.3-3.2,45.3-3.2c12.3,0,15.3,19.6,15.9,28.7C474.8,233.7,474.8,234.2,474.8,234.6z"/>
			</g>
		</g>
	</g>
</g>
</svg>
