<?xml version="1.0" encoding="utf-8"?>
<!-- Generator: Adobe Illustrator 19.2.1, SVG Export Plug-In . SVG Version: 6.00 Build 0)  -->
<svg version="1.1" id="Layer_1" xmlns="http://www.w3.org/2000/svg" xmlns:xlink="http://www.w3.org/1999/xlink" x="0px" y="0px"
	 viewBox="0 0 640 480" style="enable-background:new 0 0 640 480;" xml:space="preserve">
<style type="text/css">
	.st0{fill:#2F2F2F;}
	.st1{fill:#B7B7B7;}
	.st2{fill:#464342;}
	.st3{fill:#2638A2;}
	.st4{fill-rule:evenodd;clip-rule:evenodd;fill:#2F2F2F;}
</style>
<g id="Computer">
	<g>
		<g>
			<path class="st0" d="M247.1,411h146.2c0,0,7.7,39.9,39.5,69H207C207,480,234.5,459,247.1,411z"/>
		</g>
		<circle class="st1" cx="526.8" cy="365.1" r="8.6"/>
	</g>
</g>
<g id="XMLID_1_">
	<path class="st2" d="M230,136.1l47,128.7c-32.8-15.9-55.5-49.6-55.5-88.6C221.5,161.9,224.6,148.4,230,136.1z"/>
	<polygon class="st2" points="371.1,228.4 368.9,235.9 366.4,228.4 	"/>
	<path class="st2" d="M406.5,148.6c0.4-3.3,0.6-6.4,0.6-9.5c0-3.6-0.3-7-0.7-10.1c3.4,6.2,6.2,12.8,8.2,19.7l-1.5-2.5
		c-1.1-1.9-3.9-1.9-5.1,0L406.5,148.6z"/>
	<path class="st2" d="M352,267.6c0.2,0.5,0.4,1,0.7,1.4c-10.2,3.6-21.2,5.6-32.7,5.6c-9.7,0-19-1.4-27.8-4l29.5-85.8L352,267.6z"/>
	<path class="st3" d="M366.4,228.4h-3.3c-2.3,0-3.7-2.3-2.5-4.2l2.8-4.7l21-34.5l22.2-36.5l1.4-2.4c1.1-1.9,4-1.9,5.1,0l1.5,2.5
		l14.9,24.5l5.2,8.6l16,26.3l9.8,16.1c1.1,1.9-0.3,4.2-2.6,4.2h-7.3h-25.5v40.8c0,1.8-1.5,3.3-3.3,3.3H397c-1.8,0-3.3-1.5-3.3-3.3
		v-5v-7v-15.6v-13.2h-12.7h-9.8H366.4z"/>
	<path class="st2" d="M386.5,103.5c-0.4,0-0.9-0.1-1.3-0.1c-9.6,0-16.5,8.4-16.5,17.5c0,8.1,4.7,15,9.7,23.1
		c3.7,6.6,8.1,15,8.1,27.2c0,4.2-0.8,8.7-2.2,13.8l-21,34.5l-30.1-89.4c6-0.3,11.3-0.9,11.3-0.9c5.3-0.6,4.7-8.4-0.6-8.1
		c0,0-15.9,1.2-26.2,1.2c-9.6,0-25.9-1.2-25.9-1.2c-5.3-0.3-5.9,7.8-0.6,8.1c0,0,5,0.6,10.3,0.9l15.3,42l-21.5,64.6L259.5,130
		c6-0.3,11.3-0.9,11.3-0.9c5.3-0.6,4.7-8.4-0.6-8.1c0,0-15.9,1.2-26.2,1.2c-1.8,0-4,0-6.3-0.1c17.6-26.8,47.9-44.4,82.3-44.4
		C345.6,77.7,369,87.5,386.5,103.5z"/>
	<path class="st2" d="M393.7,228.4v13.2c-6.9,7.8-15.1,14.5-24.2,19.8l11.4-33H393.7z"/>
	<path class="st4" d="M450.7,340H79V25h482v20.2V340H450.7z M390,391.1h8.3h71.2h93.9c15.8,0,28.7-12.8,28.7-28.7v-2.2v-315V31.7
		H592C592,15.8,579.2,3,563.3,3H75.7C59.8,3,47,15.8,47,31.7v330.7c0,15.8,12.8,28.7,28.7,28.7h175.1l-3.9,19.9h146.4L390,391.1z"/>
	<path class="st2" d="M434.8,176.2c0,1.9,0,3.7-0.1,5.5l-5.2-8.6c-1.6-59-50.1-106.4-109.5-106.4c-60.4,0-109.5,49.1-109.5,109.5
		S259.6,285.7,320,285.7c28.4,0,54.2-10.8,73.7-28.5v7C373.7,280.9,348,291,320,291c-63.3,0-114.8-51.5-114.8-114.8
		S256.7,61.4,320,61.4S434.8,112.9,434.8,176.2z"/>
</g>
</svg>
