<?xml version="1.0" encoding="utf-8"?>
<!-- Generator: Adobe Illustrator 20.1.0, SVG Export Plug-In . SVG Version: 6.00 Build 0)  -->
<svg version="1.1" id="Layer_1" xmlns="http://www.w3.org/2000/svg" xmlns:xlink="http://www.w3.org/1999/xlink" x="0px" y="0px"
	 viewBox="0 0 640 480" style="enable-background:new 0 0 640 480;" xml:space="preserve">
<style type="text/css">
	.st0{fill:#FFFFFF;stroke:#186AAD;stroke-width:5;stroke-miterlimit:10;}
	.st1{fill:#1E90FF;}
	.st2{fill:#186AAD;}
	.st3{fill:#F9B701;}
	.st4{clip-path:url(#SVGID_2_);}
	.st5{clip-path:url(#SVGID_4_);}
	.st6{clip-path:url(#SVGID_6_);}
	.st7{opacity:0.2;}
	.st8{clip-path:url(#SVGID_8_);}
	.st9{clip-path:url(#SVGID_14_);}
	.st10{clip-path:url(#SVGID_15_);}
	.st11{clip-path:url(#SVGID_16_);}
	.st12{clip-path:url(#SVGID_17_);}
	.st13{clip-path:url(#SVGID_18_);fill:#2638A2;}
	.st14{fill:#263238;}
</style>
<g>
	<path class="st0" d="M599,464.3H41c-6.6,0-12-5.4-12-12v-390c0-6.6,5.4-12,12-12h558c6.6,0,12,5.4,12,12v390
		C611,458.9,605.6,464.3,599,464.3z"/>
	<path class="st1" d="M611,121.3H29v-59c0-6.6,5.4-12,12-12h558c6.6,0,12,5.4,12,12V121.3z"/>
	<rect x="29" y="105.3" class="st2" width="582" height="16"/>
	<path class="st3" d="M496.2,84.9h-11.9c-8.7,0-15.8-7.1-15.8-15.8V31.5c0-8.7,7.1-15.8,15.8-15.8h11.9c8.7,0,15.8,7.1,15.8,15.8
		v37.6C512,77.8,504.9,84.9,496.2,84.9z"/>
	<path class="st3" d="M156.2,84.9h-11.9c-8.7,0-15.8-7.1-15.8-15.8V31.5c0-8.7,7.1-15.8,15.8-15.8h11.9c8.7,0,15.8,7.1,15.8,15.8
		v37.6C172,77.8,164.9,84.9,156.2,84.9z"/>
	<g>
		<g>
			<g>
				<defs>
					<rect id="SVGID_1_" x="155.8" y="126" width="328.4" height="328.4"/>
				</defs>
				<clipPath id="SVGID_2_">
					<use xlink:href="#SVGID_1_"  style="overflow:visible;"/>
				</clipPath>
				<g class="st4">
					<g id="Artwork_4">
						<defs>
							<rect id="SVGID_3_" x="155.8" y="126" width="328.4" height="328.4"/>
						</defs>
						<clipPath id="SVGID_4_">
							<use xlink:href="#SVGID_3_"  style="overflow:visible;"/>
						</clipPath>
						<g class="st5">
							<g>
								<defs>
									<rect id="SVGID_5_" x="155.8" y="126" width="328.4" height="328.4"/>
								</defs>
								<clipPath id="SVGID_6_">
									<use xlink:href="#SVGID_5_"  style="overflow:visible;"/>
								</clipPath>
								<g class="st6">
									<g>
										<g class="st7">
											<defs>
												<rect id="SVGID_7_" x="155.8" y="126" class="st7" width="328.5" height="328.5"/>
											</defs>
											<clipPath id="SVGID_8_">
												<use xlink:href="#SVGID_7_"  style="overflow:visible;"/>
											</clipPath>
											<g class="st8">
												<g>
													<defs>
														<rect id="SVGID_9_" x="155.8" y="126" width="328.4" height="328.4"/>
													</defs>
													<defs>
														<rect id="SVGID_10_" x="155.8" y="126" width="328.4" height="328.4"/>
													</defs>
													<defs>
														<rect id="SVGID_11_" x="155.8" y="126" width="328.4" height="328.4"/>
													</defs>
													<defs>
														<rect id="SVGID_12_" x="155.8" y="126" width="328.4" height="328.4"/>
													</defs>
													<defs>
														<rect id="SVGID_13_" x="155.8" y="126" width="328.4" height="328.4"/>
													</defs>
													<clipPath id="SVGID_14_">
														<use xlink:href="#SVGID_9_"  style="overflow:visible;"/>
													</clipPath>
													<clipPath id="SVGID_15_" class="st9">
														<use xlink:href="#SVGID_10_"  style="overflow:visible;"/>
													</clipPath>
													<clipPath id="SVGID_16_" class="st10">
														<use xlink:href="#SVGID_11_"  style="overflow:visible;"/>
													</clipPath>
													<clipPath id="SVGID_17_" class="st11">
														<use xlink:href="#SVGID_12_"  style="overflow:visible;"/>
													</clipPath>
													<clipPath id="SVGID_18_" class="st12">
														<use xlink:href="#SVGID_13_"  style="overflow:visible;"/>
													</clipPath>
													<path class="st13" d="M179.2,290.2c0,55.8,32.4,103.9,79.4,126.8l-67.2-184.2C183.5,250.3,179.2,269.7,179.2,290.2"/>
													<path class="st13" d="M415.2,283.1c0-17.5-6.2-29.5-11.6-38.8c-7.1-11.6-13.8-21.4-13.8-33c0-12.9,9.9-25,23.7-25
														c0.6,0,1.2,0.1,1.9,0.1c-25-23-58.5-37-95.1-37c-49.2,0-92.5,25.2-117.7,63.5c3.4,0.1,6.4,0.2,9.1,0.2
														c14.7,0,37.6-1.8,37.6-1.8c7.6-0.5,8.5,10.7,0.9,11.6c0,0-7.6,0.9-16.2,1.4l51.3,152.6l30.9-92.5l-22-60.1
														c-7.6-0.5-14.8-1.4-14.8-1.4c-7.6-0.5-6.7-12,0.9-11.6c0,0,23.3,1.8,37.1,1.8c14.7,0,37.6-1.8,37.6-1.8
														c7.6-0.5,8.5,10.7,0.9,11.6c0,0-7.7,0.9-16.2,1.4l51,151.3l14.1-46.9C410.6,309.1,415.2,295.1,415.2,283.1"/>
													<path class="st13" d="M322.5,302.5l-42.3,122.8c12.6,3.7,25.9,5.7,39.8,5.7c16.4,0,32.1-2.9,46.8-8
														c-0.4-0.6-0.7-1.3-1-2L322.5,302.5z"/>
													<path class="st13" d="M443.7,222.6c0.6,4.5,1,9.3,1,14.5c0,14.3-2.7,30.4-10.7,50.5L391,412
														c41.9-24.5,70.1-69.8,70.1-121.8C460.9,265.7,454.6,242.6,443.7,222.6"/>
													<path class="st13" d="M320,126c-90.5,0-164.2,73.6-164.2,164.2S229.4,454.5,320,454.5c90.5,0,164.2-73.6,164.2-164.2
														S410.6,126,320,126 M320,446.9c-86.4,0-156.7-70.3-156.7-156.7S233.7,133.6,320,133.6s156.7,70.3,156.7,156.7
														S406.4,446.9,320,446.9"/>
												</g>
											</g>
										</g>
									</g>
								</g>
							</g>
						</g>
					</g>
					<g>
						<path class="st14" d="M299.8,230.5c0,1.4-0.5,2.8-1.4,3.7c-17,18.4-77.8,121.1-83.7,142.5c-0.5,2.1-0.7,3.7-0.7,5
							c0,2.8,0.7,4.4,0.7,5.3s-1.1,1.1-1.8,1.1c-6.7,0-16.5-13.5-16.5-19.7c0-19,66.8-162.9,81.4-166.1c0.7-0.2,1.4-0.2,2.1-0.2
							c10.1,0,17.2,17.2,19.5,25.5C299.5,228.4,299.8,229.6,299.8,230.5z"/>
						<path class="st14" d="M450,236.7c-4.4,0-7.6-6.2-21.6-6.2c-20.4,0-52.1,7.8-56.9,9.4c-5.3,1.8-18.1,36.9-19,40.1
							c11.7-5.7,32.6-12.8,56-12.8c1.8,0,3.9,0.2,6,0.2c12.6,0.7,26.6,27.3,26.6,42.7c0,0.9-0.2,1.8-0.2,2.5
							c-1.6,12.4-37.9,77.3-91.1,77.3c-30.1,0-53.5-25.2-53.5-37.6c0-14.7,16.1-20.2,20.4-20.2c2.1,0,2.5,0.9,2.5,2.3
							c0,1.6-0.7,3.7-0.7,5c0,3.9,4.1,19,18.1,19c17,0,70.4-42,70.4-61.9c0-4.6-3.4-6.2-10.8-6.2c-14.5,0-39.5,7.3-47.3,14.5
							c-4.1,3.7-10.6,5-16.3,5c-6.9,0-12.6-1.8-12.6-4.6c0-10.3,25.7-94.3,27.8-99.6c1.4-3.9,3-7.6,5-7.6c0.5,0,9.6,6.7,14.9,6.7
							c11.5,0,38.3-1.8,57.8-1.8c23.9,0,29.1,0.9,31.2,25.7C456.9,231.9,454.6,236.7,450,236.7z"/>
					</g>
				</g>
			</g>
		</g>
	</g>
</g>
</svg>
