<?xml version="1.0" encoding="utf-8"?>
<!-- Generator: Adobe Illustrator 19.2.1, SVG Export Plug-In . SVG Version: 6.00 Build 0)  -->
<svg version="1.1" id="Logo" xmlns="http://www.w3.org/2000/svg" xmlns:xlink="http://www.w3.org/1999/xlink" x="0px" y="0px"
	 viewBox="0 0 960 560" style="enable-background:new 0 0 960 560;" xml:space="preserve">
<style type="text/css">
	.st0{fill:#FF9900;stroke:#B7B7B7;stroke-miterlimit:10;}
	.st1{fill:none;stroke:#B7B7B7;stroke-width:2.1082;stroke-miterlimit:10;}
	.st2{fill:#263238;stroke:#B7B7B7;stroke-miterlimit:10;}
	.st3{fill:#2638A2;stroke:#2638A2;stroke-width:1.4595;stroke-miterlimit:10;}
	.st4{fill:#FFFFFF;}
	.st5{font-family:'TrajanPro3-Regular';}
	.st6{font-size:90.4714px;}
	.st7{fill:none;}
	.st8{font-size:72px;}
</style>
<g>
	<g>
		<g>
			<path class="st0" d="M-1.6,208.6c0,0,0.6-0.7,1.7-2.1c1.1-1.3,2.6-3.3,4.8-5.6c4.2-4.9,10.2-11.7,17.8-19.5
				c7.6-7.9,16.7-16.9,26.6-26.4c2.5-2.4,5.1-4.7,7.7-7.2c2.6-2.4,5.3-4.9,7.9-7.2c5.4-4.9,11-9.7,16.4-14.6
				c5.6-4.9,11.3-9.6,16.8-14.3c2.8-2.4,5.6-4.6,8.3-6.8c2.8-2.2,5.6-4.5,8.3-6.7c11-8.7,21.5-16.5,30.6-23.1s17.1-11.8,22.7-15.5
				c2.8-1.8,5.1-3.1,6.6-4.1c1.5-0.9,2.3-1.4,2.3-1.4s-0.6,0.7-1.7,2.1c-1.1,1.3-2.6,3.3-4.8,5.6c-4.2,4.9-10.2,11.7-17.8,19.5
				s-16.5,16.9-26.6,26.4c-2.5,2.4-5.1,4.7-7.7,7.2c-2.6,2.4-5.3,4.9-7.9,7.2c-5.4,4.9-11,9.7-16.5,14.6
				c-5.6,4.9-11.3,9.6-16.8,14.3c-2.8,2.4-5.6,4.6-8.3,6.8c-2.8,2.2-5.6,4.5-8.3,6.7c-11,8.7-21.5,16.5-30.6,23.1
				s-17,11.8-22.7,15.5c-2.8,1.8-5.1,3.1-6.6,4.1C-0.8,208.2-1.6,208.6-1.6,208.6z"/>
		</g>
		<g>
			<path class="st0" d="M263.5,111.8c0,0-0.5-0.1-1.1-0.4c-0.8-0.3-1.9-0.8-3.1-1.4c-2.6-1.2-6.2-3.1-10-5.6c-4-2.5-8.3-5.5-12.7-9
				c-4.3-3.5-8.8-7.5-13-11.5c-4.2-4.2-8-8.5-11.3-12.7c-1.7-2.1-3.2-4.2-4.6-6.3c-1.4-2.1-2.6-4.1-3.7-5.9
				c-2.2-3.7-3.9-7.1-4.8-9.4c-0.5-1.2-0.8-2.2-1.1-2.9s-0.3-1-0.3-1s0.5,0.1,1.1,0.4c0.8,0.3,1.9,0.8,3.1,1.4
				c2.6,1.2,6.2,3.1,10,5.6c2,1.2,4,2.6,6.2,4.2c2.2,1.6,4.3,3.1,6.5,5c4.3,3.5,8.8,7.5,12.8,11.7c4.2,4.2,8,8.5,11.3,12.7
				c3.4,4.3,6.2,8.4,8.3,12.2c2.2,3.7,3.9,7.1,4.8,9.4c0.5,1.2,0.8,2.2,1.1,2.8C263.3,111.4,263.5,111.8,263.5,111.8z"/>
		</g>
		<g>
			<path class="st0" d="M111.9,222.9c0,0,0.2-0.5,0.6-1.3c0.5-0.8,1.1-2.1,2.2-3.5c1.9-3,4.6-7.2,8.3-12.1s8.2-10.4,13.3-16
				c1.2-1.4,2.6-2.9,4-4.2c1.4-1.4,2.8-2.9,4.2-4.3c2.8-2.9,5.7-5.8,8.8-8.5c2.9-2.8,6-5.5,9.1-8.3c1.5-1.3,3.1-2.6,4.6-3.9
				c1.5-1.3,3.1-2.5,4.6-3.8c6.2-4.9,12-9.2,17.5-12.7c5.4-3.5,10-6.3,13.4-8.1c1.7-0.9,3.1-1.6,4-2.1s1.5-0.7,1.5-0.7
				s-0.2,0.5-0.6,1.3s-1.1,2.1-2,3.5c-1.9,3-4.6,7.3-8.3,12.2s-8.2,10.4-13.3,16c-1.2,1.4-2.6,2.9-4,4.2c-1.4,1.4-2.8,2.9-4.2,4.3
				c-2.8,2.9-5.7,5.6-8.8,8.5c-2.9,2.8-6,5.5-9.1,8.3c-1.5,1.3-3.1,2.6-4.6,3.9c-1.5,1.3-3.1,2.5-4.6,3.8
				c-6.2,4.9-12.2,9.2-17.5,12.7c-5.4,3.5-10,6.3-13.4,8.1c-1.7,0.9-3.1,1.6-4,2.1C112.4,222.6,111.9,222.9,111.9,222.9z"/>
		</g>
		<g>
			<path class="st0" d="M388.4,0c-4.8,6.6-10,12.8-15.4,19c-2.6,3.1-5.4,6.2-8,9.2c-2.8,3-5.6,6-8.3,9c-2.8,3-5.6,5.9-8.5,8.9
				c-2.8,3-5.7,5.8-8.6,8.8c-2.9,2.9-5.9,5.8-8.8,8.7s-6,5.6-9,8.5c-2.9,2.9-6,5.6-9.1,8.4c-2.9,2.8-6.2,5.5-9.1,8.3
				c-3.1,2.8-6.2,5.5-9.3,8.3c-3.1,2.8-6.3,5.4-9.4,8.1c-3.1,2.8-6.3,5.4-9.6,8c-3.2,2.6-6.5,5.2-9.7,7.9c-3.2,2.6-6.6,5.1-9.9,7.7
				c-3.4,2.5-6.6,5.1-10,7.6l-2,1.4l-1.5-0.1c-5.7-0.5-11.4-1-17-1.7c-2.8-0.4-5.7-0.7-8.5-1l-4.3-0.7c-1.4-0.3-2.8-0.4-4.3-0.7
				c1.4-0.3,2.8-0.5,4.3-0.7l4.3-0.7c2.8-0.4,5.7-0.8,8.5-1c5.7-0.7,11.4-1.2,17-1.7l-3.6,1.3c2.6-3,5.4-6,8.2-9s5.6-5.9,8.3-8.9
				c2.8-2.9,5.7-5.9,8.6-8.8s5.7-5.8,8.6-8.7c2.9-2.9,5.9-5.8,8.8-8.5c2.9-2.9,6-5.6,9-8.4c3.1-2.8,6-5.6,9.1-8.4s6.2-5.5,9.3-8.3
				c3.1-2.8,6.2-5.5,9.4-8.1c3.2-2.6,6.3-5.4,9.6-8c3.2-2.6,6.3-5.4,9.7-7.9c3.2-2.6,6.5-5.2,9.9-7.7c3.2-2.6,6.6-5.1,10-7.6
				s6.8-5,10.2-7.5C374.2,9.4,381.1,4.6,388.4,0z"/>
		</g>
		<g>
			<path class="st0" d="M414.2,12.5c0,0,0.3,0.1,0.9,0.4s1.4,0.7,2.3,1.2c2,1,4.6,2.6,7.4,4.6s5.9,4.6,8.8,7.5s5.7,6.2,8.2,9.4
				c2.5,3.4,4.6,6.9,6.3,10.4c1.7,3.5,3.1,6.9,3.9,10c0.9,3,1.4,5.8,1.5,7.7c0.2,0.9,0.2,1.8,0.2,2.4c0,0.5,0,0.8,0,0.8
				s-0.3-0.1-0.9-0.4s-1.4-0.7-2.3-1.2c-2-1-4.6-2.6-7.4-4.6s-5.9-4.6-8.8-7.5s-5.7-6.2-8.2-9.4c-2.5-3.4-4.6-6.9-6.3-10.4
				c-1.7-3.5-3.1-6.9-3.9-10c-0.9-3-1.4-5.8-1.5-7.7c-0.2-0.9-0.2-1.8-0.2-2.4C414.2,12.7,414.2,12.5,414.2,12.5z"/>
		</g>
		<g>
			<path class="st0" d="M454.8,65.7c0,0,0-0.1,0.2-0.4s0.2-0.7,0.5-1c0.5-0.9,1.1-2.1,2-3.4c0.9-1.3,2.2-2.6,3.7-3.8
				c0.8-0.7,1.5-1.2,2.3-1.8c0.8-0.5,1.7-1,2.6-1.6c0.9-0.5,1.9-0.9,2.8-1.3c0.9-0.4,1.9-0.8,2.9-1c1.9-0.7,3.9-1,5.6-1.3
				s3.4-0.3,4.5-0.3c0.6,0,1.1,0,1.4,0.1c0.3,0,0.5,0,0.5,0l0.3,0.5c0,0-0.5,0.3-1.2,0.8c-0.8,0.4-1.9,1.2-3.2,2
				c-2.6,1.6-6.2,3.5-9.9,5.6c-3.7,2-7.3,3.9-10,5.4c-1.4,0.8-2.5,1.3-3.4,1.7c-0.8,0.4-1.2,0.7-1.2,0.7L454.8,65.7z"/>
		</g>
		<g>
			<path class="st0" d="M546.7,106.7c0,0-0.5-0.1-1.1-0.3c-0.6-0.3-1.7-0.5-2.9-1c-2.5-0.9-5.9-2.4-9.7-4.3c-3.9-2-8-4.5-12.4-7.3
				c-4.3-2.9-8.5-6.2-12.5-9.7s-7.7-7.2-11-10.9c-3.2-3.7-6-7.3-8.2-10.6c-2.2-3.3-3.7-6.3-4.8-8.4c-0.5-1-0.8-2-1.1-2.6
				c-0.5-0.7-0.5-0.9-0.5-0.9s0.5,0.1,1.1,0.3c0.6,0.3,1.7,0.5,2.9,1c2.5,0.9,5.9,2.4,9.7,4.3c3.9,2,8,4.5,12.4,7.3
				c4.3,2.9,8.5,6.2,12.5,9.7s7.7,7.2,11,10.9c3.2,3.7,6,7.3,8.2,10.6c2.2,3.3,3.7,6.3,4.8,8.4c0.5,1,0.8,2,1.1,2.5
				C546.5,106.5,546.7,106.7,546.7,106.7z"/>
		</g>
		<g>
			<path class="st0" d="M350.1,229.2c0,0,0.3-0.5,0.9-1.6c0.6-1,1.4-2.6,2.6-4.5c2.3-3.8,5.7-9.2,10.2-15.3
				c4.5-6.2,9.9-13.2,15.9-20.6c1.5-1.8,3.1-3.7,4.6-5.5s3.2-3.8,4.9-5.6c3.4-3.8,6.8-7.5,10.3-11.3c3.6-3.7,7.1-7.3,10.8-10.9
				c1.9-1.8,3.6-3.5,5.4-5.2s3.6-3.4,5.4-5.1c7.1-6.6,14.1-12.6,20.4-17.6c6.2-5,11.6-8.9,15.4-11.7c2-1.3,3.6-2.4,4.6-3
				c1.1-0.7,1.7-1,1.7-1s-0.3,0.5-0.9,1.6c-0.6,1-1.4,2.6-2.6,4.5c-2.3,3.8-5.7,9.2-10.2,15.3c-4.5,6.2-9.9,13.2-15.9,20.6
				c-1.5,1.8-3.1,3.7-4.6,5.5s-3.2,3.8-4.9,5.6c-3.4,3.8-6.8,7.5-10.3,11.3c-3.6,3.7-7.1,7.3-10.8,10.9c-1.9,1.8-3.6,3.5-5.4,5.2
				s-3.6,3.4-5.4,5.1c-7.1,6.6-14.1,12.6-20.4,17.6c-6.2,5-11.6,8.9-15.4,11.7c-2,1.3-3.6,2.4-4.6,3
				C350.7,228.8,350.1,229.2,350.1,229.2z"/>
		</g>
		<g>
			<path class="st0" d="M463.5,110.1c0,0,0.3,0,0.8-0.1c0.5,0,1.2-0.1,2.2-0.1c0.9,0,2-0.1,3.2,0c1.2,0,2.6,0,4.2,0.1
				c3.1,0.1,6.5,0.5,10.2,1.2c1.9,0.3,3.7,0.7,5.6,1c1.9,0.4,3.7,0.9,5.6,1.4s3.7,1,5.6,1.7c1.9,0.5,3.6,1.2,5.3,1.8
				c3.4,1.3,6.5,2.8,9,4.1c1.2,0.7,2.5,1.3,3.6,2c1.1,0.5,1.9,1.2,2.6,1.7c0.8,0.5,1.2,0.9,1.7,1.2c0.3,0.3,0.6,0.4,0.6,0.4
				l-0.2,0.5c0,0-0.9-0.3-2.6-0.7c-1.7-0.4-4-1-6.8-1.7c-5.6-1.4-13.1-3.5-20.5-5.5c-7.4-2.1-15-4.2-20.5-5.8
				c-2.8-0.8-5.1-1.4-6.8-2c-1.7-0.5-2.6-0.8-2.6-0.8L463.5,110.1z"/>
		</g>
		<g>
			<path class="st0" d="M610.8,58.6c0,0-0.2,0.4-0.6,1c-0.5,0.7-1.1,1.7-1.9,3c-1.7,2.5-4.3,6-7.6,9.8c-3.4,3.9-7.4,8.3-12.2,12.7
				c-4.6,4.5-9.9,8.9-15.3,13.1c-5.4,4.2-11.1,8.3-16.8,11.8c-5.6,3.5-11.1,6.7-15.9,9.2c-4.9,2.5-9.1,4.3-12.2,5.5
				c-1.5,0.7-2.8,1-3.7,1.3s-1.4,0.4-1.4,0.4s0.2-0.4,0.6-1s1.1-1.7,1.9-3c1.7-2.5,4.2-6,7.6-9.8c3.4-3.9,7.4-8.3,12.2-12.7
				c4.6-4.5,9.9-8.9,15.4-13.1c5.6-4.2,11.1-8.3,16.8-11.8c5.6-3.5,11.1-6.7,15.9-9.2c4.9-2.5,9.1-4.3,12.2-5.5
				c1.5-0.7,2.8-1,3.7-1.3C610.2,58.7,610.8,58.6,610.8,58.6z"/>
		</g>
		<g>
			<path class="st0" d="M635.4,61.4c0,0,0.6,0.7,1.9,1.8c1.1,1.2,2.8,2.9,4.9,5.2c4.2,4.5,9.9,11,16.4,19s13.9,17.4,21.5,27.8
				c1.9,2.6,3.7,5.2,5.7,7.9c1.9,2.6,3.9,5.4,5.7,8.1c3.9,5.5,7.6,11.1,11.3,16.8c3.7,5.6,7.4,11.3,10.8,16.9
				c1.7,2.8,3.6,5.6,5.1,8.4c1.7,2.8,3.4,5.5,4.9,8.3c6.3,10.9,12,21.1,16.5,30c4.6,8.9,8,16.5,10.3,21.9c1.2,2.6,2,4.9,2.6,6.3
				c0.6,1.4,0.9,2.2,0.9,2.2s-0.6-0.7-1.9-1.8c-1.1-1.2-2.8-2.9-4.9-5.2c-4.2-4.5-9.9-11-16.5-19c-6.5-8-13.9-17.4-21.5-27.8
				c-1.9-2.6-3.7-5.2-5.7-7.9c-1.9-2.6-3.9-5.4-5.7-8.1c-3.9-5.5-7.6-11.1-11.3-16.8c-3.7-5.6-7.4-11.3-10.8-16.9
				c-1.7-2.8-3.4-5.6-5.1-8.4c-1.7-2.8-3.4-5.5-4.9-8.3c-6.3-10.9-12-21.1-16.5-30c-4.6-8.9-8-16.5-10.3-21.9
				c-1.2-2.6-2-4.9-2.6-6.3C635.7,62.1,635.4,61.4,635.4,61.4z"/>
		</g>
		<path class="st1" d="M71.3,150.8l34.1-3l14.8-6.6c5.1-2.2,11.4-2,16.2,0.9l9.4,5.6c5.1,3,11.6,3.8,17.5,2l40-12.2"/>
		<path class="st1" d="M247.5,138.5l9.3,2.5c7,1.8,14.4,0.5,19.9-3.4l41.7-30.2c7.9-5.8,19.9-4.6,26.1,2.5l0.6,0.7
			c4.2,4.7,11.6,6.7,18.2,4.9l9.7-2.8c6.6-1.8,14.1,0.7,17.1,6l5.6,9.6c3.2,5.6,10.2,9.3,17.6,9.3H427"/>
		<path class="st1" d="M427,185.7l10.8,3c7.3,2.1,15.1,0.8,21.2-3.1l41.9-28.3c8-5.4,19.5-5.1,27,0.7l25.6,19.4
			c7.9,6,19.8,6.6,28.4,1.3l14.4-8.8c10.2-6.2,24.2-5,32.7,2.8l6,5.4c8.6,7.9,23.2,8.8,33.1,2l23-16"/>
	</g>
	<g>
		<g>
			<path class="st2" d="M112.7,295.4c0,0,0.8-1,2.3-2.9c1.5-1.8,3.9-4.6,7-8s7-7.3,11.7-11.8c4.6-4.5,10.2-9.2,16.5-14.2
				s13.6-10.1,21.6-15.1s17-9.8,26.7-14.2c4.8-2.2,9.9-4.2,15.1-6c5.3-1.8,10.7-3.5,16.2-5c5.6-1.4,11.3-2.6,17.1-3.5
				c5.9-0.8,11.7-1.4,17.8-1.7c11.9-0.5,23.9,0.4,35.5,2.6c2.8,0.7,5.7,1.2,8.5,1.8c2.8,0.8,5.6,1.4,8.2,2.4c1.4,0.4,2.6,0.9,4,1.3
				c1.4,0.4,2.6,0.9,3.9,1.4c1.2,0.5,2.6,0.9,3.9,1.4c1.2,0.5,2.5,1,3.7,1.6c9.9,4.3,18.8,9.3,26.7,14.6
				c7.9,5.2,14.8,10.8,20.7,16.1c3.1,2.6,5.7,5.4,8.3,7.9c2.5,2.6,4.8,5.1,7,7.3c2.2,2.4,4,4.6,5.9,6.7c1.7,2.1,3.2,4.1,4.6,5.8
				c2.9,3.5,4.8,6.4,6.2,8.4c1.4,2,2.2,3,2.2,3s-0.9-0.9-2.8-2.6s-4.3-4.2-7.7-7.3c-1.7-1.6-3.6-3.3-5.6-5.1
				c-2.2-1.8-4.3-3.8-6.6-5.9c-4.9-4.1-10.5-8.7-16.8-13.2c-6.3-4.7-13.4-9.4-21.3-13.9c-7.9-4.6-16.5-8.8-25.8-12.3
				s-19.3-6.4-29.8-8.3c-2.6-0.4-5.3-0.9-7.9-1l-4-0.4l-4-0.3l-2-0.1h-2l-4-0.1c-2.6,0-5.4,0-8,0.1c-10.8,0.4-21.5,2-31.8,4.5
				s-20.4,5.6-29.7,9.4c-9.4,3.7-18.2,7.9-26.3,12.2c-8.2,4.3-15.6,8.8-22.2,13.1s-12.8,8.4-18.1,12.2c-5.3,3.8-9.7,7.2-13.3,10.1
				s-6.5,5.2-8.3,6.8C113.6,294.5,112.7,295.4,112.7,295.4z"/>
		</g>
		<g>
			<path class="st2" d="M635.4,348c0,0,0.6-1.3,2-3.9c1.4-2.5,3.6-6.2,6.5-10.8c2.9-4.6,6.8-10,11.4-16.1c4.8-6,10.3-12.7,17-19.8
				c6.6-6.9,14.4-14.3,23.3-21.5c9-7.1,19-14.2,30.6-20.5c5.7-3.1,11.9-6,18.4-8.5s13.3-4.7,20.4-6.4c7.1-1.6,14.5-2.9,22.1-3.4
				s15.1-0.3,22.7,0.4c7.6,0.8,15,2.4,22.1,4.3c3.6,1.2,7.1,2.1,10.5,3.5c1.7,0.7,3.4,1.3,5.1,2c1.7,0.8,3.2,1.4,4.9,2.2
				c1.7,0.7,3.2,1.4,4.8,2.4c1.5,0.8,3.1,1.6,4.6,2.4c2.9,1.7,5.9,3.4,8.8,5.2c1.4,0.9,2.8,1.8,4.2,2.8c1.4,0.9,2.8,1.8,4,2.9
				c1.2,0.9,2.6,2,3.9,2.9l1.9,1.4l1.9,1.6c9.9,8,18.2,16.4,25.5,24.8c1.9,2.1,3.6,4.2,5.3,6.3c1.7,2.1,3.4,4.1,4.9,6.2
				c3.1,4.1,6,8,8.6,11.9c1.2,2,2.6,3.8,3.9,5.8c1.2,1.8,2.3,3.7,3.4,5.5c1.1,1.8,2.2,3.5,3.2,5.2c1.1,1.7,2,3.4,2.9,5.1
				c3.7,6.6,6.6,12.3,9,17.2c1.2,2.4,2.2,4.6,3.1,6.4c0.8,1.8,1.5,3.5,2.2,4.9c1.1,2.6,1.7,3.9,1.7,3.9s-0.9-1.2-2.8-3.5
				c-1.9-2.4-4.3-5.8-7.7-10.1c-3.4-4.3-7.4-9.6-12.2-15.3c-1.2-1.4-2.5-3-3.7-4.6s-2.6-3.1-4-4.7s-2.8-3.3-4.2-5
				c-1.5-1.7-2.9-3.4-4.6-5.1c-6.2-6.9-13.1-14.3-20.9-21.6c-7.7-7.3-16.4-14.7-25.8-21.5c-4.8-3.4-9.7-6.7-14.8-9.7
				c-2.6-1.6-5.3-2.9-7.9-4.3c-1.4-0.7-2.8-1.3-4.2-2s-2.8-1.3-4.2-2s-2.8-1.2-4.2-1.8c-1.4-0.5-2.9-1-4.3-1.6
				c-2.9-1-5.9-1.8-8.8-2.9c-6-1.6-12-2.9-18.4-3.4c-6.2-0.7-12.5-0.8-18.7-0.5c-6.2,0.4-12.4,1.2-18.5,2.5c-1.5,0.4-3.1,0.7-4.5,1
				c-1.5,0.4-2.9,0.8-4.5,1.2c-1.5,0.4-2.9,0.8-4.5,1.3c-1.4,0.5-2.9,0.9-4.3,1.4c-5.9,2-11.3,4.3-16.8,6.8
				c-10.8,5.1-20.7,11-29.8,17s-17.3,12.3-24.7,18.4s-13.9,11.8-19.5,17c-5.7,5.2-10.5,10-14.4,13.9s-7,7.1-9,9.3
				C636.4,346.8,635.4,348,635.4,348z"/>
		</g>
	</g>
</g>
<g>
	<g>
		<g>
			<g>
				<g>
					<path class="st3" d="M460.4,294.6l57.8,4l28.9,1.8l14.5,1l3.6,0.3c1.2,0.1,2.5,0.3,3.7,0.3c2.5,0.3,4.8,0.6,7.3,0.8
						c2.5,0.4,4.8,0.7,7.4,1.5c0.3,0.1,0.6,0.3,1.1,0.4c0.3,0.3,0.9,0.4,1.4,1.4c0.2,0.6,0,1.2-0.3,1.5c-0.3,0.4-0.5,0.6-0.8,0.7
						c-0.5,0.3-0.8,0.4-1.1,0.6c-1.4,0.6-2.5,0.8-3.7,1c-4.9,1-9.6,1.5-14.5,1.8c-9.6,0.6-19.3,1.2-28.9,1.9l-57.8,4.1l-28.9,2.1
						c-9.6,0.7-19.2,1.9-28.7,3.2l-7.3,1l-7.3,0.8c-4.8,0.6-9.6,1.1-14.4,1.1s-9.7,0.3-14.5,0c-1.2,0-2.5-0.1-3.6,0
						c-1.2,0-2.5,0.1-3.6,0.4l-1.9,0.3l-0.9,0.1h-0.5h-0.2c-0.3,0,0.3,0,0.2,0l-0.5,0.1h0.2c0.2,0,0.2,0,0.2,0c0.2,0,0.3,0,0.5-0.1
						c0.3-0.1,0.5-0.3,0.6-0.4c0.2-0.1,0.2-0.4,0-0.8s-0.8-0.8-0.9-1h3.6c4.8,0.1,9.7,0.1,14.5,0.3c9.7,0.3,19.3,1.2,28.9,2.3
						l57.5,6.2l57.5,6.8l57.5,7l57.5,7c9.6,1.1,19.2,2.3,28.7,3.4l14.4,1.5c4.8,0.6,9.6,1.1,14.4,1.8l57.5,7
						c19.2,2.3,38.3,4.7,57.3,7.2l28.7,3.6l28.6,4l28.6,4c2.3,0.3,4.8,0.7,7.1,1.4l0.9,0.3c0.2,0-0.2,0,0.5,0.1l0.2,0.1
						c0.2,0,0.3,0.1,0.5,0.1c0.5,0.1,0.9,0.4,1.4,0.6c0.5,0.3,0.8,0.4,1.1,0.7c1.4,1,2.5,2.5,2.9,3.9c0.9,2.9-0.2,5.5-1.5,7.3
						c-1.5,1.8-3.9,2.9-6.3,2.9l0,0c-1.4-0.1-2.9,0-4.3-0.1c-1.4,0-2.9,0-4.3,0.1c-1.4,0.1-2.9,0.3-4.3,0.4
						c-1.5,0.1-2.9,0.4-4.5,0.6c-2.9,0.6-5.9,1-8.8,1.7c-1.5,0.3-2.9,0.6-4.5,0.8c-1.5,0.3-2.9,0.6-4.5,0.7
						c-1.5,0.3-2.9,0.4-4.5,0.6c-1.5,0.1-2.9,0.3-4.3,0.4c-1.4,0-2.9,0.1-4.3,0.1l-4.3,0.1c-1.4,0-2.9,0.1-4.3,0.1h-4.3
						c-2.9,0-5.9,0-8.6-0.1h1.2c-3.1,0.1-6.2,0.3-9.3,0.4l-9.3,0.3c-6.2,0.3-12.4,0.3-18.4,0.4c-3.1,0-6.2,0.1-9.3,0.1
						c-1.5,0-3.1,0-4.6,0l-4.6-0.1c-6.2-0.4-12.4-0.8-18.5-1.2c-1.5-0.1-3.1-0.1-4.6-0.3l-2.3-0.1h-2.2c-3.1,0-6.2,0.1-9.3,0.4
						s-6.2,0.8-9.1,1.7c-3.1,0.8-6.2,1.8-9.1,2.8c-3.1,1-6,1.9-9.1,2.6s-6.2,1.1-9.3,1.2c-6.2,0.6-12.4,0-18.5-0.4
						c-3.1-0.1-6.2-0.3-9.3-0.4s-6.2-0.3-9.3-0.4c-6.2-0.3-12.4-0.7-18.5-1.1l-36.9-2.2l-74-4.4l-0.5-9.2l73.7-4.8l18.4-1.2
						c6.2-0.4,12.4-0.8,18.4-1.1c3.1-0.1,6.2-0.1,9.3-0.4c1.5-0.1,3.1-0.3,4.6-0.6c1.5-0.1,3.1-0.6,4.6-1.2c1.5-0.7,3.1-1.5,4.5-2.2
						c1.5-0.7,3.1-1.4,4.6-1.2c3.1-0.1,6.2-0.3,9.3-0.4c6.2-0.3,12.4-0.6,18.4-0.6c6.2,0,12.4,0,18.5,0.1c6.2,0.3,12.4,0.6,18.5,1
						c3.1,0.3,6.2,0.4,9.3,0.7h0.6h0.2l0,0c0,0,0.5,0,0.3,0h0.3l1.1,0.1l2.3,0.3l4.6,0.4c6.2,0.7,12.4,1.2,18.5,1.7
						c3.1,0.1,6.2,0.4,9.3,0.4c3.1,0.1,6.2,0.1,9.3,0.1c6.2,0,12.4,0,18.4-0.1l9.3-0.3l9.3-0.4l0,0h0.9c11.6,0.4,23.2,1.1,34.6,1.7
						l34,1.5h-1.1c-0.5,0-1.4,0-2.3,0.6c-0.9,0.4-1.9,1.2-2.3,1.9c-0.5,0.7-0.6,1.4-0.8,2.1c0,0.7,0.2,1.5,0.6,2.3
						c0.5,0.8,1.4,1.8,2.3,2.2c0.3,0.1,0.5,0.3,0.6,0.3c0.2,0.1,0.9,0.3,1.1,0.3h-0.5h-0.2c2,0.3,0.5,0.1,0.8,0.1l-0.9-0.1
						c-2.5-0.1-4.8-0.4-7.3-0.6l-28.9-1.9l-57.8-3.9l-57.8-4c-19.3-1.4-38.5-2.9-57.8-4.3l-7.3-0.6c-2.5-0.3-4.8-0.3-7.3-0.7
						c-2.3-0.4-4.6-1.5-6.8-3c-2.2-1.7-4.2-5.4-6.3-7.4c-9.4-1.8-19.2-2.6-28.6-4l-57.5-7L469.1,351l-57.3-7.4
						c-4.8-0.7-9.6-1.2-14.4-1.9c-4.8-0.7-9.6-1.4-14.2-2.2c-4.8-0.8-9.4-1.7-14.2-2.5l-3.7-0.7c-2.5-0.3-5.3-1.7-7-3.6
						c-1.7-2.1-2.5-4.4-2.3-6.6s1.1-4.6,3.1-6.2c0.9-0.8,2.2-1.5,3.2-2.1c0.6-0.3,1.2-0.4,1.9-0.6c0.3,0,0.8-0.1,1.1-0.1h0.5
						c0,0,0.8,0,0.6,0h0.2h0.5h0.9h1.9c2.5,0,4.8-0.1,7.3-0.3c4.8-0.4,9.6-0.6,14.5-0.8l7.3-0.3l7.3-0.1l14.5-0.3l14.5-0.3
						c4.8-0.1,9.6-0.3,14.5-0.6l28.9-1.4l57.8-2.9l28.9-1.4c4.6-0.4,9.6-0.8,14.1-1.7c1.1-0.3,2.3-0.6,3.1-0.8
						c0.2-0.1,0.3-0.1,0.5-0.3c0,0,0,0-0.2,0.1c0,0.1-0.3,0.6-0.2,0.8c0.3,0.6,0.3,0.4,0.2,0.3c-0.2-0.1-0.3-0.1-0.6-0.3
						c-1.9-0.7-4.3-1-6.6-1.4c-2.3-0.3-4.8-0.6-7.1-0.8c-1.2-0.1-2.5-0.3-3.6-0.3l-3.6-0.3l-14.4-1.1l-28.9-2.3l-57.8-4.3
						L460.4,294.6z"/>
				</g>
			</g>
		</g>
	</g>
</g>
<rect x="4.1" y="444" class="st7" width="960" height="137"/>
</svg>
