<?xml version="1.0" encoding="utf-8"?>
<!-- Generator: Adobe Illustrator 20.1.0, SVG Export Plug-In . SVG Version: 6.00 Build 0)  -->
<svg version="1.1" id="Logo" xmlns="http://www.w3.org/2000/svg" xmlns:xlink="http://www.w3.org/1999/xlink" x="0px" y="0px"
	 viewBox="0 0 960 560" style="enable-background:new 0 0 960 560;" xml:space="preserve">
<style type="text/css">
	.st0{fill:#FF9900;stroke:#B7B7B7;stroke-width:0.9927;stroke-miterlimit:10;}
	.st1{fill:none;stroke:#B7B7B7;stroke-width:2.0929;stroke-miterlimit:10;}
	.st2{fill:#FFFFFF;stroke:#B7B7B7;stroke-width:0.9927;stroke-miterlimit:10;}
	.st3{fill:#2638A2;stroke:#2638A2;stroke-width:1.4489;stroke-miterlimit:10;}
	.st4{enable-background:new    ;}
	.st5{fill:#FFFFFF;}
</style>
<g>
	<g>
		<g>
			<path class="st0" d="M2.6,210.1c0,0,0.6-0.7,1.7-2.1c1.1-1.3,2.6-3.3,4.8-5.6c4.2-4.9,10.1-11.6,17.7-19.4
				c7.5-7.8,16.6-16.8,26.4-26.2c2.5-2.4,5.1-4.7,7.6-7.1c2.6-2.4,5.3-4.9,7.8-7.1c5.4-4.9,10.9-9.6,16.3-14.5
				c5.6-4.9,11.2-9.5,16.7-14.2c2.8-2.4,5.6-4.6,8.2-6.8c2.8-2.2,5.6-4.5,8.2-6.7c10.9-8.6,21.3-16.4,30.4-22.9
				c9-6.6,17-11.7,22.5-15.4c2.8-1.8,5.1-3.1,6.6-4.1c1.5-0.9,2.3-1.4,2.3-1.4s-0.6,0.7-1.7,2.1c-1.1,1.3-2.6,3.3-4.8,5.6
				c-4.2,4.9-10.1,11.6-17.7,19.4s-16.4,16.8-26.4,26.2c-2.5,2.4-5.1,4.7-7.6,7.1c-2.6,2.4-5.3,4.9-7.8,7.1
				c-5.4,4.9-10.9,9.6-16.4,14.5c-5.6,4.9-11.2,9.5-16.7,14.2c-2.8,2.4-5.6,4.6-8.2,6.8c-2.8,2.2-5.6,4.5-8.2,6.7
				c-10.9,8.6-21.3,16.4-30.4,22.9S17,201,11.3,204.7c-2.8,1.8-5.1,3.1-6.6,4.1C3.4,209.7,2.6,210.1,2.6,210.1z"/>
		</g>
		<g>
			<path class="st0" d="M265.8,114c0,0-0.5-0.1-1.1-0.4c-0.8-0.3-1.9-0.8-3.1-1.4c-2.6-1.2-6.2-3.1-9.9-5.6c-4-2.5-8.2-5.5-12.6-8.9
				c-4.3-3.5-8.7-7.4-12.9-11.4c-4.2-4.2-7.9-8.4-11.2-12.6c-1.7-2.1-3.2-4.2-4.6-6.3c-1.4-2.1-2.6-4.1-3.7-5.9
				c-2.2-3.7-3.9-7-4.8-9.3c-0.5-1.2-0.8-2.2-1.1-2.9c-0.3-0.7-0.3-1-0.3-1s0.5,0.1,1.1,0.4c0.8,0.3,1.9,0.8,3.1,1.4
				c2.6,1.2,6.2,3.1,9.9,5.6c2,1.2,4,2.6,6.2,4.2c2.2,1.6,4.3,3.1,6.5,5c4.3,3.5,8.7,7.4,12.7,11.6c4.2,4.2,7.9,8.4,11.2,12.6
				c3.4,4.3,6.2,8.3,8.2,12.1c2.2,3.7,3.9,7,4.8,9.3c0.5,1.2,0.8,2.2,1.1,2.8C265.6,113.6,265.8,114,265.8,114z"/>
		</g>
		<g>
			<path class="st0" d="M115.3,224.3c0,0,0.2-0.5,0.6-1.3c0.5-0.8,1.1-2.1,2.2-3.5c1.9-3,4.6-7.1,8.2-12c3.7-4.9,8.1-10.3,13.2-15.9
				c1.2-1.4,2.6-2.9,4-4.2c1.4-1.4,2.8-2.9,4.2-4.3c2.8-2.9,5.7-5.8,8.7-8.4c2.9-2.8,6-5.5,9-8.2c1.5-1.3,3.1-2.6,4.6-3.9
				c1.5-1.3,3.1-2.5,4.6-3.8c6.2-4.9,11.9-9.1,17.4-12.6c5.4-3.5,9.9-6.3,13.3-8c1.7-0.9,3.1-1.6,4-2.1c0.9-0.5,1.5-0.7,1.5-0.7
				s-0.2,0.5-0.6,1.3c-0.4,0.8-1.1,2.1-2,3.5c-1.9,3-4.6,7.2-8.2,12.1c-3.7,4.9-8.1,10.3-13.2,15.9c-1.2,1.4-2.6,2.9-4,4.2
				c-1.4,1.4-2.8,2.9-4.2,4.3c-2.8,2.9-5.7,5.6-8.7,8.4c-2.9,2.8-6,5.5-9,8.2c-1.5,1.3-3.1,2.6-4.6,3.9c-1.5,1.3-3.1,2.5-4.6,3.8
				c-6.2,4.9-12.1,9.1-17.4,12.6c-5.4,3.5-9.9,6.3-13.3,8c-1.7,0.9-3.1,1.6-4,2.1C115.8,224,115.3,224.3,115.3,224.3z"/>
		</g>
		<g>
			<path class="st0" d="M389.8,3c-4.8,6.6-9.9,12.7-15.3,18.9c-2.6,3.1-5.4,6.2-7.9,9.1c-2.8,3-5.6,6-8.2,8.9
				c-2.8,3-5.6,5.9-8.4,8.8c-2.8,3-5.7,5.8-8.5,8.7c-2.9,2.9-5.9,5.8-8.7,8.6c-2.9,2.9-6,5.6-8.9,8.4c-2.9,2.9-6,5.6-9,8.3
				c-2.9,2.8-6.2,5.5-9,8.2c-3.1,2.8-6.2,5.5-9.2,8.2s-6.3,5.4-9.3,8c-3.1,2.8-6.3,5.4-9.5,7.9c-3.2,2.6-6.5,5.2-9.6,7.8
				c-3.2,2.6-6.6,5.1-9.8,7.6c-3.4,2.5-6.6,5.1-9.9,7.5l-2,1.4l-1.5-0.1c-5.7-0.5-11.3-1-16.9-1.7c-2.8-0.4-5.7-0.7-8.4-1l-4.3-0.7
				c-1.4-0.3-2.8-0.4-4.3-0.7c1.4-0.3,2.8-0.5,4.3-0.7l4.3-0.7c2.8-0.4,5.7-0.8,8.4-1c5.7-0.7,11.3-1.2,16.9-1.7l-3.6,1.3
				c2.6-3,5.4-6,8.1-8.9c2.8-3,5.6-5.9,8.2-8.8c2.8-2.9,5.7-5.9,8.5-8.7c2.9-2.9,5.7-5.8,8.5-8.6c2.9-2.9,5.9-5.8,8.7-8.4
				c2.9-2.9,6-5.6,8.9-8.3c3.1-2.8,6-5.6,9-8.3c3.1-2.8,6.2-5.5,9.2-8.2c3.1-2.8,6.2-5.5,9.3-8c3.2-2.6,6.3-5.4,9.5-7.9
				c3.2-2.6,6.3-5.4,9.6-7.8c3.2-2.6,6.5-5.2,9.8-7.6c3.2-2.6,6.6-5.1,9.9-7.5c3.4-2.5,6.8-5,10.1-7.4C375.7,12.4,382.5,7.6,389.8,3
				z"/>
		</g>
		<g>
			<path class="st0" d="M415.4,15.5c0,0,0.3,0.1,0.9,0.4c0.6,0.3,1.4,0.7,2.3,1.2c2,1,4.6,2.6,7.3,4.6s5.9,4.6,8.7,7.4
				c2.9,2.9,5.7,6.2,8.1,9.3c2.5,3.4,4.6,6.8,6.3,10.3c1.7,3.5,3.1,6.8,3.9,9.9c0.9,3,1.4,5.8,1.5,7.6c0.2,0.9,0.2,1.8,0.2,2.4
				c0,0.5,0,0.8,0,0.8s-0.3-0.1-0.9-0.4s-1.4-0.7-2.3-1.2c-2-1-4.6-2.6-7.3-4.6c-2.8-2-5.9-4.6-8.7-7.4c-2.9-2.9-5.7-6.2-8.1-9.3
				c-2.5-3.4-4.6-6.8-6.3-10.3c-1.7-3.5-3.1-6.8-3.9-9.9c-0.9-3-1.4-5.8-1.5-7.6c-0.2-0.9-0.2-1.8-0.2-2.4
				C415.4,15.6,415.4,15.5,415.4,15.5z"/>
		</g>
		<g>
			<path class="st0" d="M455.7,68.3c0,0,0-0.1,0.2-0.4c0.2-0.3,0.2-0.7,0.5-1c0.5-0.9,1.1-2.1,2-3.4c0.9-1.3,2.2-2.6,3.7-3.8
				c0.8-0.7,1.5-1.2,2.3-1.8c0.8-0.5,1.7-1,2.6-1.6c0.9-0.5,1.9-0.9,2.8-1.3c0.9-0.4,1.9-0.8,2.9-1c1.9-0.7,3.9-1,5.6-1.3
				c1.7-0.3,3.4-0.3,4.5-0.3c0.6,0,1.1,0,1.4,0.1c0.3,0,0.5,0,0.5,0l0.3,0.5c0,0-0.5,0.3-1.2,0.8c-0.8,0.4-1.9,1.2-3.2,2
				c-2.6,1.6-6.2,3.5-9.8,5.6c-3.7,2-7.2,3.9-9.9,5.4c-1.4,0.8-2.5,1.3-3.4,1.7c-0.8,0.4-1.2,0.7-1.2,0.7L455.7,68.3z"/>
		</g>
		<g>
			<path class="st0" d="M546.9,109c0,0-0.5-0.1-1.1-0.3c-0.6-0.3-1.7-0.5-2.9-1c-2.5-0.9-5.9-2.4-9.6-4.3c-3.9-2-7.9-4.5-12.3-7.2
				c-4.3-2.9-8.4-6.2-12.4-9.6c-4-3.5-7.6-7.1-10.9-10.8c-3.2-3.7-6-7.2-8.1-10.5s-3.7-6.3-4.8-8.3c-0.5-1-0.8-2-1.1-2.6
				c-0.5-0.7-0.5-0.9-0.5-0.9s0.5,0.1,1.1,0.3c0.6,0.3,1.7,0.5,2.9,1c2.5,0.9,5.9,2.4,9.6,4.3c3.9,2,7.9,4.5,12.3,7.2
				c4.3,2.9,8.4,6.2,12.4,9.6s7.6,7.1,10.9,10.8c3.2,3.7,6,7.2,8.1,10.5c2.2,3.3,3.7,6.3,4.8,8.3c0.5,1,0.8,2,1.1,2.5
				C546.7,108.8,546.9,109,546.9,109z"/>
		</g>
		<g>
			<path class="st0" d="M351.7,230.6c0,0,0.3-0.5,0.9-1.6c0.6-1,1.4-2.6,2.6-4.5c2.3-3.8,5.7-9.1,10.1-15.2
				c4.5-6.2,9.8-13.1,15.8-20.5c1.5-1.8,3.1-3.7,4.6-5.5c1.5-1.8,3.2-3.8,4.9-5.6c3.4-3.8,6.8-7.4,10.2-11.2
				c3.6-3.7,7-7.2,10.7-10.8c1.9-1.8,3.6-3.5,5.4-5.2s3.6-3.4,5.4-5.1c7-6.6,14-12.5,20.3-17.5c6.2-5,11.5-8.8,15.3-11.6
				c2-1.3,3.6-2.4,4.6-3c1.1-0.7,1.7-1,1.7-1s-0.3,0.5-0.9,1.6c-0.6,1-1.4,2.6-2.6,4.5c-2.3,3.8-5.7,9.1-10.1,15.2
				c-4.5,6.2-9.8,13.1-15.8,20.5c-1.5,1.8-3.1,3.7-4.6,5.5c-1.5,1.8-3.2,3.8-4.9,5.6c-3.4,3.8-6.8,7.4-10.2,11.2
				c-3.6,3.7-7,7.2-10.7,10.8c-1.9,1.8-3.6,3.5-5.4,5.2c-1.8,1.7-3.6,3.4-5.4,5.1c-7,6.6-14,12.5-20.3,17.5
				c-6.2,5-11.5,8.8-15.3,11.6c-2,1.3-3.6,2.4-4.6,3C352.3,230.2,351.7,230.6,351.7,230.6z"/>
		</g>
		<g>
			<path class="st0" d="M464.3,112.3c0,0,0.3,0,0.8-0.1c0.5,0,1.2-0.1,2.2-0.1c0.9,0,2-0.1,3.2,0c1.2,0,2.6,0,4.2,0.1
				c3.1,0.1,6.5,0.5,10.1,1.2c1.9,0.3,3.7,0.7,5.6,1c1.9,0.4,3.7,0.9,5.6,1.4s3.7,1,5.6,1.7c1.9,0.5,3.6,1.2,5.3,1.8
				c3.4,1.3,6.5,2.8,8.9,4.1c1.2,0.7,2.5,1.3,3.6,2c1.1,0.5,1.9,1.2,2.6,1.7c0.8,0.5,1.2,0.9,1.7,1.2c0.3,0.3,0.6,0.4,0.6,0.4
				l-0.2,0.5c0,0-0.9-0.3-2.6-0.7c-1.7-0.4-4-1-6.8-1.7c-5.6-1.4-13-3.5-20.4-5.5c-7.3-2.1-14.9-4.2-20.4-5.8
				c-2.8-0.8-5.1-1.4-6.8-2c-1.7-0.5-2.6-0.8-2.6-0.8L464.3,112.3z"/>
		</g>
		<g>
			<path class="st0" d="M610.5,61.2c0,0-0.2,0.4-0.6,1c-0.5,0.7-1.1,1.7-1.9,3c-1.7,2.5-4.3,6-7.5,9.7c-3.4,3.9-7.3,8.2-12.1,12.6
				c-4.6,4.5-9.8,8.8-15.2,13c-5.4,4.2-11,8.2-16.7,11.7c-5.6,3.5-11,6.7-15.8,9.1c-4.9,2.5-9,4.3-12.1,5.5c-1.5,0.7-2.8,1-3.7,1.3
				c-0.9,0.3-1.4,0.4-1.4,0.4s0.2-0.4,0.6-1c0.4-0.6,1.1-1.7,1.9-3c1.7-2.5,4.2-6,7.5-9.7c3.4-3.9,7.3-8.2,12.1-12.6
				c4.6-4.5,9.8-8.8,15.3-13c5.6-4.2,11-8.2,16.7-11.7c5.6-3.5,11-6.7,15.8-9.1c4.9-2.5,9-4.3,12.1-5.5c1.5-0.7,2.8-1,3.7-1.3
				C609.9,61.3,610.5,61.2,610.5,61.2z"/>
		</g>
		<g>
			<path class="st0" d="M635,64c0,0,0.6,0.7,1.9,1.8c1.1,1.2,2.8,2.9,4.9,5.2c4.2,4.5,9.8,10.9,16.3,18.9s13.8,17.3,21.3,27.6
				c1.9,2.6,3.7,5.2,5.7,7.8c1.9,2.6,3.9,5.4,5.7,8c3.9,5.5,7.5,11,11.2,16.7c3.7,5.6,7.3,11.2,10.7,16.8c1.7,2.8,3.6,5.6,5.1,8.3
				c1.7,2.8,3.4,5.5,4.9,8.2c6.3,10.8,11.9,20.9,16.4,29.8c4.6,8.8,7.9,16.4,10.2,21.7c1.2,2.6,2,4.9,2.6,6.3
				c0.6,1.4,0.9,2.2,0.9,2.2s-0.6-0.7-1.9-1.8c-1.1-1.2-2.8-2.9-4.9-5.2c-4.2-4.5-9.8-10.9-16.4-18.9c-6.5-7.9-13.8-17.3-21.3-27.6
				c-1.9-2.6-3.7-5.2-5.7-7.8c-1.9-2.6-3.9-5.4-5.7-8c-3.9-5.5-7.5-11-11.2-16.7c-3.7-5.6-7.3-11.2-10.7-16.8
				c-1.7-2.8-3.4-5.6-5.1-8.3c-1.7-2.8-3.4-5.5-4.9-8.2c-6.3-10.8-11.9-20.9-16.4-29.8c-4.6-8.8-7.9-16.4-10.2-21.7
				c-1.2-2.6-2-4.9-2.6-6.3C635.3,64.7,635,64,635,64z"/>
		</g>
		<path class="st1" d="M75,152.7l33.9-3l14.7-6.6c5.1-2.2,11.3-2,16.1,0.9l9.3,5.6c5.1,3,11.5,3.8,17.4,2l39.7-12.1"/>
		<path class="st1" d="M249.9,140.5l9.2,2.5c6.9,1.8,14.3,0.5,19.8-3.4l41.4-30c7.8-5.8,19.8-4.6,25.9,2.5l0.6,0.7
			c4.2,4.7,11.5,6.7,18.1,4.9l9.6-2.8c6.6-1.8,14,0.7,17,6l5.6,9.5c3.2,5.6,10.1,9.2,17.5,9.2h13.6"/>
		<path class="st1" d="M428.1,187.4l10.7,3c7.2,2.1,15,0.8,21-3.1l41.6-28.1c7.9-5.4,19.4-5.1,26.8,0.7l25.4,19.3
			c7.8,6,19.7,6.6,28.2,1.3l14.3-8.7c10.1-6.2,24-5,32.5,2.8l6,5.4c8.5,7.8,23,8.7,32.9,2l22.8-15.9"/>
	</g>
	<g>
		<g>
			<path class="st2" d="M116.1,296.3c0,0,0.8-1,2.3-2.9c1.5-1.8,3.9-4.6,6.9-7.9s6.9-7.2,11.6-11.7c4.6-4.5,10.1-9.1,16.4-14.1
				c6.3-5,13.5-10,21.4-15c7.9-5,16.9-9.7,26.5-14.1c4.8-2.2,9.8-4.2,15-6c5.3-1.8,10.6-3.5,16.1-5c5.6-1.4,11.2-2.6,17-3.5
				c5.9-0.8,11.6-1.4,17.7-1.7c11.8-0.5,23.7,0.4,35.2,2.6c2.8,0.7,5.7,1.2,8.4,1.8c2.8,0.8,5.6,1.4,8.1,2.4c1.4,0.4,2.6,0.9,4,1.3
				c1.4,0.4,2.6,0.9,3.9,1.4c1.2,0.5,2.6,0.9,3.9,1.4c1.2,0.5,2.5,1,3.7,1.6c9.8,4.3,18.7,9.2,26.5,14.5c7.8,5.2,14.7,10.7,20.5,16
				c3.1,2.6,5.7,5.4,8.2,7.8c2.5,2.6,4.8,5.1,6.9,7.2c2.2,2.4,4,4.6,5.9,6.7c1.7,2.1,3.2,4.1,4.6,5.8c2.9,3.5,4.8,6.4,6.2,8.3
				c1.4,2,2.2,3,2.2,3s-0.9-0.9-2.8-2.6c-1.9-1.7-4.3-4.2-7.6-7.2c-1.7-1.6-3.6-3.3-5.6-5.1c-2.2-1.8-4.3-3.8-6.6-5.9
				c-4.9-4.1-10.4-8.6-16.7-13.1c-6.3-4.7-13.3-9.3-21.1-13.8c-7.8-4.6-16.4-8.7-25.6-12.2c-9.2-3.5-19.2-6.4-29.6-8.2
				c-2.6-0.4-5.3-0.9-7.8-1l-4-0.4l-4-0.3l-2-0.1h-2l-4-0.1c-2.6,0-5.4,0-7.9,0.1c-10.7,0.4-21.3,2-31.6,4.5
				c-10.2,2.5-20.3,5.6-29.5,9.3c-9.3,3.7-18.1,7.8-26.1,12.1c-8.1,4.3-15.5,8.7-22,13c-6.6,4.3-12.7,8.3-18,12.1
				c-5.3,3.8-9.6,7.1-13.2,10s-6.5,5.2-8.2,6.8C117,295.4,116.1,296.3,116.1,296.3z"/>
		</g>
		<g>
			<path class="st2" d="M635,348.5c0,0,0.6-1.3,2-3.9c1.4-2.5,3.6-6.2,6.5-10.7c2.9-4.6,6.8-9.9,11.3-16c4.8-6,10.2-12.6,16.9-19.7
				c6.6-6.8,14.3-14.2,23.1-21.3c8.9-7,18.9-14.1,30.4-20.4c5.7-3.1,11.8-6,18.3-8.4c6.5-2.5,13.2-4.7,20.3-6.4
				c7-1.6,14.4-2.9,21.9-3.4c7.5-0.5,15-0.3,22.5,0.4c7.5,0.8,14.9,2.4,21.9,4.3c3.6,1.2,7,2.1,10.4,3.5c1.7,0.7,3.4,1.3,5.1,2
				c1.7,0.8,3.2,1.4,4.9,2.2c1.7,0.7,3.2,1.4,4.8,2.4c1.5,0.8,3.1,1.6,4.6,2.4c2.9,1.7,5.9,3.4,8.7,5.2c1.4,0.9,2.8,1.8,4.2,2.8
				c1.4,0.9,2.8,1.8,4,2.9c1.2,0.9,2.6,2,3.9,2.9l1.9,1.4l1.9,1.6c9.8,7.9,18.1,16.3,25.3,24.6c1.9,2.1,3.6,4.2,5.3,6.3
				c1.7,2.1,3.4,4.1,4.9,6.2c3.1,4.1,6,7.9,8.5,11.8c1.2,2,2.6,3.8,3.9,5.8c1.2,1.8,2.3,3.7,3.4,5.5c1.1,1.8,2.2,3.5,3.2,5.2
				c1.1,1.7,2,3.4,2.9,5.1c3.7,6.6,6.6,12.2,8.9,17.1c1.2,2.4,2.2,4.6,3.1,6.4c0.8,1.8,1.5,3.5,2.2,4.9c1.1,2.6,1.7,3.9,1.7,3.9
				s-0.9-1.2-2.8-3.5c-1.9-2.4-4.3-5.8-7.6-10c-3.4-4.3-7.3-9.5-12.1-15.2c-1.2-1.4-2.5-3-3.7-4.6c-1.2-1.6-2.6-3.1-4-4.7
				c-1.4-1.6-2.8-3.3-4.2-5c-1.5-1.7-2.9-3.4-4.6-5.1c-6.2-6.8-13-14.2-20.7-21.4c-7.6-7.2-16.3-14.6-25.6-21.3
				c-4.8-3.4-9.6-6.7-14.7-9.6c-2.6-1.6-5.3-2.9-7.8-4.3c-1.4-0.7-2.8-1.3-4.2-2s-2.8-1.3-4.2-2s-2.8-1.2-4.2-1.8
				c-1.4-0.5-2.9-1-4.3-1.6c-2.9-1-5.9-1.8-8.7-2.9c-6-1.6-11.9-2.9-18.3-3.4c-6.2-0.7-12.4-0.8-18.6-0.5
				c-6.2,0.4-12.3,1.2-18.4,2.5c-1.5,0.4-3.1,0.7-4.5,1c-1.5,0.4-2.9,0.8-4.5,1.2c-1.5,0.4-2.9,0.8-4.5,1.3
				c-1.4,0.5-2.9,0.9-4.3,1.4c-5.9,2-11.2,4.3-16.7,6.8c-10.7,5.1-20.5,10.9-29.6,16.9s-17.2,12.2-24.5,18.3
				c-7.3,6.1-13.8,11.7-19.4,16.9c-5.7,5.2-10.4,9.9-14.3,13.8s-6.9,7-8.9,9.2C636,347.3,635,348.5,635,348.5z"/>
		</g>
	</g>
</g>
<g>
	<g>
		<g>
			<g>
				<g>
					<path class="st3" d="M464,295.5l57.4,4l28.7,1.8l14.4,1l3.6,0.3c1.2,0.1,2.5,0.3,3.7,0.3c2.5,0.3,4.8,0.6,7.2,0.8
						c2.5,0.4,4.8,0.7,7.3,1.5c0.3,0.1,0.6,0.3,1.1,0.4c0.3,0.3,0.9,0.4,1.4,1.4c0.2,0.6,0,1.2-0.3,1.5c-0.3,0.4-0.5,0.6-0.8,0.7
						c-0.5,0.3-0.8,0.4-1.1,0.6c-1.4,0.6-2.5,0.8-3.7,1c-4.9,1-9.5,1.5-14.4,1.8c-9.5,0.6-19.2,1.2-28.7,1.9l-57.4,4.1l-28.7,2.1
						c-9.5,0.7-19.1,1.9-28.5,3.2l-7.2,1l-7.2,0.8c-4.8,0.6-9.5,1.1-14.3,1.1c-4.8,0-9.6,0.3-14.4,0c-1.2,0-2.5-0.1-3.6,0
						c-1.2,0-2.5,0.1-3.6,0.4l-1.9,0.3l-0.9,0.1h-0.5h-0.2c-0.3,0,0.3,0,0.2,0l-0.5,0.1h0.2c0.2,0,0.2,0,0.2,0c0.2,0,0.3,0,0.5-0.1
						c0.3-0.1,0.5-0.3,0.6-0.4c0.2-0.1,0.2-0.4,0-0.8s-0.8-0.8-0.9-1h3.6c4.8,0.1,9.6,0.1,14.4,0.3c9.6,0.3,19.2,1.2,28.7,2.3
						l57.1,6.2l57.1,6.8l57.1,6.9l57.1,6.9c9.5,1.1,19.1,2.3,28.5,3.4l14.3,1.5c4.8,0.6,9.5,1.1,14.3,1.8l57.1,6.9
						c19.1,2.3,38,4.7,56.9,7.1l28.5,3.6l28.4,4l28.4,4c2.3,0.3,4.8,0.7,7,1.4l0.9,0.3c0.2,0-0.2,0,0.5,0.1l0.2,0.1
						c0.2,0,0.3,0.1,0.5,0.1c0.5,0.1,0.9,0.4,1.4,0.6c0.5,0.3,0.8,0.4,1.1,0.7c1.4,1,2.5,2.5,2.9,3.9c0.9,2.9-0.2,5.5-1.5,7.2
						c-1.5,1.8-3.9,2.9-6.3,2.9l0,0c-1.4-0.1-2.9,0-4.3-0.1c-1.4,0-2.9,0-4.3,0.1c-1.4,0.1-2.9,0.3-4.3,0.4
						c-1.5,0.1-2.9,0.4-4.5,0.6c-2.9,0.6-5.9,1-8.7,1.7c-1.5,0.3-2.9,0.6-4.5,0.8c-1.5,0.3-2.9,0.6-4.5,0.7
						c-1.5,0.3-2.9,0.4-4.5,0.6c-1.5,0.1-2.9,0.3-4.3,0.4c-1.4,0-2.9,0.1-4.3,0.1l-4.3,0.1c-1.4,0-2.9,0.1-4.3,0.1h-4.3
						c-2.9,0-5.9,0-8.5-0.1h1.2c-3.1,0.1-6.2,0.3-9.2,0.4l-9.2,0.3c-6.2,0.3-12.3,0.3-18.3,0.4c-3.1,0-6.2,0.1-9.2,0.1
						c-1.5,0-3.1,0-4.6,0l-4.6-0.1c-6.2-0.4-12.3-0.8-18.4-1.2c-1.5-0.1-3.1-0.1-4.6-0.3l-2.3-0.1h-2.2c-3.1,0-6.2,0.1-9.2,0.4
						c-3.1,0.3-6.2,0.8-9,1.7c-3.1,0.8-6.2,1.8-9,2.8c-3.1,1-6,1.9-9,2.6s-6.2,1.1-9.2,1.2c-6.2,0.6-12.3,0-18.4-0.4
						c-3.1-0.1-6.2-0.3-9.2-0.4s-6.2-0.3-9.2-0.4c-6.2-0.3-12.3-0.7-18.4-1.1l-36.6-2.2l-73.5-4.4l-0.5-9.1l73.2-4.8l18.3-1.2
						c6.2-0.4,12.3-0.8,18.3-1.1c3.1-0.1,6.2-0.1,9.2-0.4c1.5-0.1,3.1-0.3,4.6-0.6c1.5-0.1,3.1-0.6,4.6-1.2c1.5-0.7,3.1-1.5,4.5-2.2
						c1.5-0.7,3.1-1.4,4.6-1.2c3.1-0.1,6.2-0.3,9.2-0.4c6.2-0.3,12.3-0.6,18.3-0.6c6.2,0,12.3,0,18.4,0.1c6.2,0.3,12.3,0.6,18.4,1
						c3.1,0.3,6.2,0.4,9.2,0.7h0.6h0.2l0,0c0,0,0.5,0,0.3,0h0.3l1.1,0.1l2.3,0.3l4.6,0.4c6.2,0.7,12.3,1.2,18.4,1.7
						c3.1,0.1,6.2,0.4,9.2,0.4c3.1,0.1,6.2,0.1,9.2,0.1c6.2,0,12.3,0,18.3-0.1l9.2-0.3l9.2-0.4l0,0h0.9c11.5,0.4,23,1.1,34.3,1.7
						l33.8,1.5h-1.1c-0.5,0-1.4,0-2.3,0.6c-0.9,0.4-1.9,1.2-2.3,1.9c-0.5,0.7-0.6,1.4-0.8,2.1c0,0.7,0.2,1.5,0.6,2.3
						c0.5,0.8,1.4,1.8,2.3,2.2c0.3,0.1,0.5,0.3,0.6,0.3c0.2,0.1,0.9,0.3,1.1,0.3H908h-0.2c2,0.3,0.5,0.1,0.8,0.1l-0.9-0.1
						c-2.5-0.1-4.8-0.4-7.2-0.6l-28.7-1.9l-57.4-3.9l-57.4-4c-19.2-1.4-38.2-2.9-57.4-4.3l-7.2-0.6c-2.5-0.3-4.8-0.3-7.2-0.7
						c-2.3-0.4-4.6-1.5-6.8-3c-2.2-1.7-4.2-5.4-6.3-7.3c-9.3-1.8-19.1-2.6-28.4-4l-57.1-6.9l-114-14.2l-56.9-7.3
						c-4.8-0.7-9.5-1.2-14.3-1.9c-4.8-0.7-9.5-1.4-14.1-2.2c-4.8-0.8-9.3-1.7-14.1-2.5l-3.7-0.7c-2.5-0.3-5.3-1.7-6.9-3.6
						c-1.7-2.1-2.5-4.4-2.3-6.6c0.2-2.2,1.1-4.6,3.1-6.2c0.9-0.8,2.2-1.5,3.2-2.1c0.6-0.3,1.2-0.4,1.9-0.6c0.3,0,0.8-0.1,1.1-0.1
						h0.5c0,0,0.8,0,0.6,0h0.2h0.5h0.9h1.9c2.5,0,4.8-0.1,7.2-0.3c4.8-0.4,9.5-0.6,14.4-0.8l7.2-0.3l7.2-0.1l14.4-0.3l14.4-0.3
						c4.8-0.1,9.5-0.3,14.4-0.6l28.7-1.4l57.4-2.9l28.7-1.4c4.6-0.4,9.5-0.8,14-1.7c1.1-0.3,2.3-0.6,3.1-0.8
						c0.2-0.1,0.3-0.1,0.5-0.3c0,0,0,0-0.2,0.1c0,0.1-0.3,0.6-0.2,0.8c0.3,0.6,0.3,0.4,0.2,0.3c-0.2-0.1-0.3-0.1-0.6-0.3
						c-1.9-0.7-4.3-1-6.6-1.4c-2.3-0.3-4.8-0.6-7-0.8c-1.2-0.1-2.5-0.3-3.6-0.3l-3.6-0.3l-14.3-1.1l-28.7-2.3l-57.4-4.3L464,295.5z"
						/>
				</g>
			</g>
		</g>
	</g>
</g>
<g class="st4">
	<path class="st5" d="M78.4,523.4c0.3,2.6,0.8,6.7,4.1,7.7c2.2,0.7,3.9,0.7,4.7,0.7c0.4,0,0.8,0.1,0.8,0.4c0,0.4-0.2,0.6-1.1,0.6
		c-1.7,0-10.3-0.2-13.1-0.4c-1.7-0.1-2.1-0.4-2.1-0.7c0-0.3,0.2-0.4,0.5-0.5c0.5-0.2,0.5-1.3,0.3-2.6l-3.6-37.9l-18.8,38.2
		c-1.6,3.2-1.8,3.8-2.5,3.8c-0.5,0-0.9-0.7-2.3-3.3c-2-3.6-8.5-16.1-8.9-16.8c-0.7-1.3-9.4-19.2-10.2-21.2l-3.1,34.2
		c-0.1,1.2-0.2,2.2-0.2,3.4c0,1.8,0.9,2.4,2,2.6c1.3,0.3,2.3,0.3,2.7,0.3c0.5,0,0.8,0.1,0.8,0.4c0,0.5-0.4,0.7-1.1,0.7
		c-2.8,0-6.7-0.2-7.3-0.2c-0.7,0-4.3,0.2-6.4,0.2c-0.8,0-1.3-0.1-1.3-0.6c0-0.3,0.4-0.4,0.8-0.4c0.6,0,1.1,0,2.3-0.2
		c2.5-0.4,2.6-3,3-6l5.5-47.2c0.1-0.8,0.4-1.5,0.8-1.5c0.5,0,0.8,0.3,1.1,1.1L49,523.6l22.3-45.6c0.3-0.7,0.6-1.2,1.1-1.2
		c0.5,0,0.8,0.6,0.9,2L78.4,523.4z"/>
	<path class="st5" d="M92.9,509.3c0-9.7,7.8-24.1,26.5-24.1c15,0,26.4,8.6,26.4,23.2c0,13.9-10.7,25.2-26.8,25.2
		C100.5,533.6,92.9,520.4,92.9,509.3z M138.8,510.2c0-14.6-9.4-22.7-19.8-22.7c-10.5,0-19,6.2-19,20c0,14.2,8.3,23.7,21,23.7
		C126,531.1,138.8,528.7,138.8,510.2z"/>
	<path class="st5" d="M166.3,512.6c0,8.9,1.7,12.6,4.6,15.1c3.3,2.8,6.9,3.3,10,3.3c3.9,0,7.5-1,10.4-4.2c3-3.3,3.7-8.9,3.7-15.2
		V504c0-9.5,0-11.2-0.2-13.1c-0.2-2.1-0.4-3.2-2.8-3.6c-0.5-0.1-1.4-0.1-2.1-0.1c-0.5,0-0.8-0.2-0.8-0.4c0-0.4,0.4-0.6,1.1-0.6
		c3.3,0,7,0.2,7.3,0.2c0.4,0,3.6-0.2,5.8-0.2c0.8,0,1.1,0.1,1.1,0.5c0,0.3-0.3,0.5-0.8,0.5c-0.5,0-0.6,0-1.4,0.1
		c-2.1,0.2-2.4,1.5-2.6,3.6c-0.1,2-0.1,3.6-0.1,13.1v6.5c0,6.5-0.8,14.4-6.1,18.8c-4.9,4-9.8,4.4-13.9,4.4c-2.1,0-9.2,0-14.2-4.4
		c-3.3-2.9-5.6-7.3-5.6-16.3v-9c0-9.6,0-11.3-0.2-13.2c-0.1-2-0.5-3.2-2.8-3.5c-0.5-0.1-1.4-0.1-2-0.1c-0.5,0-0.8-0.2-0.8-0.4
		c0-0.4,0.3-0.6,1.1-0.6c3.3,0,7.3,0.2,7.9,0.2c0.6,0,5.1-0.2,7.1-0.2c0.8,0,1.1,0.1,1.1,0.5c0,0.4-0.5,0.5-0.9,0.5
		c-0.5,0-1.1,0.1-1.7,0.1c-1.8,0.2-2.1,1.5-2.3,3.5c-0.1,2-0.1,3.6-0.1,13.2V512.6z"/>
	<path class="st5" d="M216.9,488.2c0-2.3,0.2-3,0.8-3c0.5,0,1.8,1.5,2.3,2c0.7,0.7,11.2,11,21.8,21.4c5.9,5.5,13.5,13,15.4,14.7
		l-0.8-30.2c-0.1-3.9-0.5-5.2-2.6-5.7c-1.3-0.2-2.4-0.3-3-0.3c-0.8,0-0.9-0.3-0.9-0.6c0-0.4,0.6-0.4,1.4-0.4c3.3,0,6.4,0.2,7.1,0.2
		c0.8,0,3.1-0.2,6.1-0.2c0.8,0,1.1,0.1,1.1,0.4c0,0.3-0.2,0.5-0.7,0.6c-0.5,0.1-1.1,0.1-1.9,0.2c-1.7,0.4-2.3,1.1-2.3,5.4l-0.2,36.4
		c0,3.6-0.2,4-0.7,4c-0.5,0-1.3-0.5-5-3.8c-0.3-0.1-10.8-10.2-17.4-16.3c-7.9-7.8-15.4-15.4-17.3-17.3l1,28.4c0.2,5,0.6,6.9,2.5,7.3
		c1.2,0.3,2.5,0.3,3.1,0.3c0.6,0,0.9,0.2,0.9,0.5c0,0.4-0.4,0.5-1.2,0.5c-4.1,0-6.8-0.2-7.3-0.2c-0.5,0-3.3,0.2-6.6,0.2
		c-0.7,0-1.1-0.1-1.1-0.5c0-0.3,0.3-0.5,1.1-0.5c0.5,0,1.4,0,2.3-0.3c1.7-0.5,2-2.5,2-7.8C216.9,489.1,217,500.3,216.9,488.2z"/>
	<path class="st5" d="M297.2,514.9c0,5.6,0.1,10.7,0.4,13.4c0.2,1.7,0.4,2.8,2.3,3.2c0.9,0.2,2.3,0.3,3,0.3c0.6,0,0.9,0.2,0.9,0.4
		c0,0.4-0.2,0.6-1,0.6c-3.9,0-8.3-0.2-8.6-0.2c-0.3,0-4.8,0.2-6.7,0.2c-0.8,0-1.1-0.1-1.1-0.5c0-0.2,0.2-0.5,0.8-0.5
		c0.6,0,1.1,0,1.7-0.1c1.4-0.2,1.7-1.1,2-3.6c0.3-2.6,0.3-7.8,0.3-13.3v-25.9c-2.5,0-6.5,0-9.5,0.1c-4.8,0.1-5.9,0.8-7,2.3
		c-0.7,1-1,1.9-1.1,2.3c-0.2,0.5-0.4,0.6-0.7,0.6c-0.3,0-0.4-0.3-0.4-0.7c-0.1-0.4,1.1-5.2,1.5-7.2c0.2-0.9,0.5-1.2,0.7-1.2
		c0.5,0,2,0.7,3.3,0.8c2.6,0.3,4.8,0.4,4.8,0.4h24.8c2.1,0,4.4-0.1,5.5-0.4c1-0.2,1.2-0.3,1.4-0.3c0.3,0,0.5,0.4,0.5,0.7
		c0,2-0.2,6.8-0.2,7.4c0,0.7-0.3,0.9-0.5,0.9c-0.4,0-0.5-0.3-0.5-0.9c0-0.2,0-0.3-0.1-1c-0.3-2.9-1.3-3.6-8.9-3.7
		c-2.9,0-5.2-0.1-7.4-0.1V514.9z"/>
	<path class="st5" d="M411.5,523.4c0.3,2.6,0.8,6.7,4.1,7.7c2.2,0.7,3.9,0.7,4.7,0.7c0.4,0,0.8,0.1,0.8,0.4c0,0.4-0.2,0.6-1.1,0.6
		c-1.7,0-10.3-0.2-13.1-0.4c-1.7-0.1-2.1-0.4-2.1-0.7c0-0.3,0.2-0.4,0.5-0.5c0.5-0.2,0.5-1.3,0.3-2.6l-3.6-37.9l-18.8,38.2
		c-1.6,3.2-1.8,3.8-2.5,3.8c-0.5,0-0.9-0.7-2.3-3.3c-2-3.6-8.5-16.1-8.9-16.8c-0.7-1.3-9.4-19.2-10.2-21.2l-3.1,34.2
		c-0.1,1.2-0.2,2.2-0.2,3.4c0,1.8,0.9,2.4,2,2.6c1.3,0.3,2.3,0.3,2.7,0.3c0.5,0,0.8,0.1,0.8,0.4c0,0.5-0.4,0.7-1.1,0.7
		c-2.8,0-6.7-0.2-7.3-0.2c-0.7,0-4.3,0.2-6.4,0.2c-0.8,0-1.3-0.1-1.3-0.6c0-0.3,0.4-0.4,0.8-0.4c0.6,0,1.1,0,2.3-0.2
		c2.5-0.4,2.6-3,3-6l5.5-47.2c0.1-0.8,0.4-1.5,0.8-1.5c0.5,0,0.8,0.3,1.1,1.1l23.2,45.7l22.3-45.6c0.3-0.7,0.6-1.2,1.1-1.2
		c0.5,0,0.8,0.6,0.9,2L411.5,523.4z"/>
	<path class="st5" d="M434.1,527c-6.4-5.4-8.1-12.5-8.1-18.5c0-4.1,1.7-11.3,7.6-16.8c4.1-3.8,10.2-6.5,20.4-6.5
		c3.5,0,6.3,0.3,10,0.8c2.4,0.4,4.8,0.7,6.7,0.8c0.6,0,0.7,0.4,0.7,0.7c0,0.6-0.2,1.2-0.4,3.6c-0.1,2-0.1,5.8-0.2,6.7
		c-0.1,1-0.2,1.4-0.6,1.4c-0.5,0-0.6-0.4-0.6-1.4c0-2.1-1.1-4.9-3-6.3c-2.3-1.9-7.6-3.7-13.4-3.7c-8.4,0-12.3,2.3-14.5,4.2
		c-4.9,4.3-6.1,9.5-6.1,15.9c0,12,10.2,22.6,23.5,22.6c5.1,0,8.9-0.5,11.6-3c1.4-1.4,2.1-3.2,2.5-5.2c0.2-0.7,0.4-1.1,0.8-1.1
		c0.4,0,0.4,0.5,0.4,1c0,0.6-1,6.5-1.5,8.1c-0.5,1.2-0.7,1.4-1.7,1.8c-2.6,1.1-7.7,1.5-12,1.5C446.3,533.6,439.5,531.4,434.1,527z"
		/>
	<path class="st5" d="M495,503.6c2.3-2.2,12.6-12.6,17.3-17.1c4.5-4.5,4.8-5.2,4.8-6.1c0-0.6-0.4-1.2-1-1.4
		c-0.5-0.2-0.7-0.4-0.7-0.7s0.5-0.4,1.1-0.4c2.2,0,2,0.2,4.5,0.2c2.3,0,6.8-0.2,8-0.2c1.1,0,1.3,0.2,1.3,0.5c0,0.3-0.2,0.4-0.8,0.5
		c-1.4,0.1-2.8,0.4-3.9,0.9c-1.9,0.7-3.3,1.6-7.9,5.8c-6.7,6.2-15.3,14.4-17.3,16.5c4.8,5,18.5,18.4,22.1,21.6
		c6.2,5.6,8.9,7.2,12.5,7.8c0.7,0.1,1.4,0.2,2.2,0.2c0.6,0,1.1,0.1,1.1,0.5c0,0.4-0.3,0.5-1.1,0.5h-5.6c-6.6,0-8.3-0.8-11.9-3.5
		c-4.5-3.4-18.2-17.4-24.8-25v7.5c0,7,0,12.7,0.4,15.8c0.2,2.1,0.7,3.7,3,4c1.1,0.1,2.6,0.3,3,0.3c0.7,0,0.9,0.3,0.9,0.5
		c0,0.4-0.3,0.5-1.1,0.5c-4.2,0-8.9-0.2-9.3-0.2c-0.4,0-4.8,0.2-7.1,0.2c-0.8,0-1.2-0.1-1.2-0.5c0-0.2,0.2-0.5,0.8-0.5
		c0.5,0,1.3-0.1,2-0.2c1.5-0.3,2-2,2.3-4.1c0.4-3,0.4-8.8,0.4-15.8V499c0-11.3,0-13.4-0.2-15.7c-0.2-2.5-0.9-3.7-2.6-4.1
		c-0.8-0.2-2.2-0.3-2.7-0.3c-0.6,0-0.8-0.1-0.8-0.4c0-0.4,0.4-0.6,1.2-0.6c2.5,0,7.6,0.2,8,0.2c0.4,0,5.1-0.2,7.4-0.2
		c0.8,0,1.2,0.1,1.2,0.5c0,0.3-0.2,0.4-0.8,0.5c-0.8,0.1-0.9,0.1-1.7,0.1c-2,0.2-2.6,1.7-2.8,4.2c-0.2,2.3-0.2,4.4-0.2,15.7V503.6z"
		/>
	<path class="st5" d="M546.1,504c0-9.6,0-11.3-0.2-13.3s-0.6-3-2.2-3.3c-0.8-0.1-1.3-0.1-1.7-0.2c-0.5-0.1-0.8-0.2-0.8-0.5
		c0-0.4,0.3-0.5,1.1-0.5c2.3,0,6.7,0.2,6.9,0.2c0.3,0,4.7-0.2,6.8-0.2c0.8,0,1.1,0.1,1.1,0.5c0,0.3-0.2,0.4-0.8,0.5
		c-0.5,0.1-0.8,0.1-1.4,0.1c-2.2,0.3-2.4,1.4-2.6,3.5c-0.2,2-0.1,3.6-0.1,13.2v10.9c0,5.6-0.1,10.7,0.3,13.3
		c0.3,2.1,0.6,2.9,2.6,3.3c1,0.2,2.6,0.3,2.9,0.3c0.7,0.1,0.8,0.2,0.8,0.5c0,0.3-0.3,0.5-1.1,0.5c-3.9,0-8.3-0.2-8.6-0.2
		c-0.2,0-4.7,0.2-6.8,0.2c-0.7,0-1.2-0.1-1.2-0.5c0-0.3,0.3-0.5,1-0.5c0.4,0,1.2-0.1,1.8-0.2c1.3-0.3,1.5-1.7,1.7-3.5
		c0.4-2.6,0.4-7.8,0.4-13.2V504z"/>
	<path class="st5" d="M573.8,488.2c0-2.3,0.2-3,0.8-3c0.5,0,1.8,1.5,2.3,2c0.7,0.7,11.2,11,21.8,21.4c5.9,5.5,13.5,13,15.4,14.7
		l-0.8-30.2c-0.1-3.9-0.5-5.2-2.6-5.7c-1.3-0.2-2.4-0.3-3-0.3c-0.8,0-0.9-0.3-0.9-0.6c0-0.4,0.6-0.4,1.4-0.4c3.3,0,6.4,0.2,7.1,0.2
		c0.8,0,3.1-0.2,6.1-0.2c0.8,0,1.1,0.1,1.1,0.4c0,0.3-0.2,0.5-0.7,0.6c-0.5,0.1-1.1,0.1-1.9,0.2c-1.7,0.4-2.3,1.1-2.3,5.4l-0.2,36.4
		c0,3.6-0.2,4-0.7,4c-0.5,0-1.3-0.5-5-3.8c-0.3-0.1-10.8-10.2-17.4-16.3c-7.9-7.8-15.4-15.4-17.3-17.3l1,28.4c0.2,5,0.6,6.9,2.5,7.3
		c1.2,0.3,2.5,0.3,3.1,0.3c0.6,0,0.9,0.2,0.9,0.5c0,0.4-0.4,0.5-1.2,0.5c-4.1,0-6.8-0.2-7.3-0.2s-3.3,0.2-6.6,0.2
		c-0.7,0-1.1-0.1-1.1-0.5c0-0.3,0.3-0.5,1.1-0.5c0.5,0,1.4,0,2.3-0.3c1.7-0.5,2-2.5,2-7.8C573.8,489.1,573.8,500.3,573.8,488.2z"/>
	<path class="st5" d="M637.6,488.2c0-2.3,0.2-3,0.8-3c0.5,0,1.8,1.5,2.3,2c0.7,0.7,11.2,11,21.8,21.4c5.9,5.5,13.5,13,15.4,14.7
		l-0.8-30.2c-0.1-3.9-0.5-5.2-2.6-5.7c-1.3-0.2-2.4-0.3-3-0.3c-0.8,0-0.9-0.3-0.9-0.6c0-0.4,0.6-0.4,1.4-0.4c3.3,0,6.4,0.2,7.1,0.2
		c0.8,0,3.1-0.2,6.1-0.2c0.8,0,1.1,0.1,1.1,0.4c0,0.3-0.2,0.5-0.7,0.6c-0.5,0.1-1.1,0.1-1.9,0.2c-1.7,0.4-2.3,1.1-2.3,5.4l-0.2,36.4
		c0,3.6-0.2,4-0.7,4c-0.5,0-1.3-0.5-5-3.8c-0.3-0.1-10.8-10.2-17.4-16.3c-7.9-7.8-15.4-15.4-17.3-17.3l1,28.4c0.2,5,0.6,6.9,2.5,7.3
		c1.2,0.3,2.5,0.3,3.1,0.3c0.6,0,0.9,0.2,0.9,0.5c0,0.4-0.4,0.5-1.2,0.5c-4.1,0-6.8-0.2-7.3-0.2s-3.3,0.2-6.6,0.2
		c-0.7,0-1.1-0.1-1.1-0.5c0-0.3,0.3-0.5,1.1-0.5c0.5,0,1.4,0,2.3-0.3c1.7-0.5,2-2.5,2-7.8C637.6,489.1,637.7,500.3,637.6,488.2z"/>
	<path class="st5" d="M703.1,504c0-9.5,0-11.3-0.2-13.2c-0.2-2-0.7-3-2.9-3.5c-0.5-0.1-1.2-0.1-1.8-0.1c-0.5,0-1-0.2-1-0.4
		c0-0.4,0.4-0.6,1.1-0.6c1.5,0,3.6,0.1,7.8,0.2c0.4,0,13.9,0,15.4-0.1c1.5-0.1,2.3-0.1,3-0.4c0.5-0.1,0.5-0.2,0.8-0.2
		c0.2,0,0.3,0.1,0.3,0.5c0,0.4-0.5,1.5-0.6,3.3c-0.1,1.2-0.2,2.4-0.2,3.8c0,0.7-0.2,1.1-0.5,1.1s-0.5-0.3-0.5-0.8
		c-0.1-1.1-0.3-1.8-0.5-2.3c-0.5-1.5-1.1-2-4.9-2.2c-1-0.1-8.5-0.1-8.6-0.1c-0.2,0-0.4,0.1-0.4,0.6v16.5c0,0.4,0.1,0.7,0.5,0.7
		c0.9,0,8.6-0.1,10.2-0.2c1.7-0.1,2.9-0.3,3.5-1.1c0.3-0.4,0.5-0.6,0.8-0.6c0.2,0,0.3,0.1,0.3,0.4c0,0.4-0.3,1.7-0.5,3.8
		c-0.2,2-0.2,3.5-0.3,4.4c-0.1,0.6-0.2,0.8-0.5,0.8c-0.4,0-0.5-0.4-0.5-0.9c0-0.4-0.1-1.2-0.2-1.7c-0.3-0.9-0.8-2-3.6-2.2
		c-1.7-0.1-7.9-0.3-9.1-0.3c-0.5,0-0.5,0.2-0.5,0.5v5.3c0,2.3-0.1,8.6,0,9.9c0.2,2.7,0.5,4.1,2.1,4.7c1.1,0.5,3,0.7,5.5,0.7
		c1.4,0,3.9,0.1,5.8-0.4c2.3-0.7,2.8-2.1,3.4-4.8c0.2-0.7,0.4-1,0.7-1c0.5,0,0.5,0.7,0.5,1.1c0,0.5-0.6,5.1-0.8,6.3
		c-0.3,1.5-0.8,1.6-3.3,1.6c-5,0-7.1-0.1-9.8-0.1c-2.7-0.1-6.1-0.2-8.9-0.2c-1.7,0-3.2,0.2-5,0.2c-0.7,0-1.1-0.1-1.1-0.5
		c0-0.3,0.3-0.5,0.7-0.5c0.5,0,1-0.1,1.5-0.2c1.4-0.3,2.3-1.2,2.4-5.7c0.1-2.5,0.2-5.4,0.2-11V504z"/>
	<path class="st5" d="M752.9,517c0-3.5-0.5-4.8-1.7-6.7c-0.5-0.8-9.2-14.5-11.6-17.6c-2-2.8-2.8-3.6-3.9-4.4c-1.1-0.7-2-1-3.6-1.1
		c-0.5,0-0.8-0.2-0.8-0.6c0-0.2,0.3-0.4,0.9-0.4c1.2,0,7,0.2,7.1,0.2c0.5,0,3-0.2,5.8-0.2c0.8,0,1,0.2,1,0.4c0,0.3-0.2,0.4-0.8,0.6
		c-1.1,0.2-1.2,0.6-1.2,1.2c0,0.7,0.5,1.5,1,2.4c1,1.8,11,17.2,12.1,19c1.2-2.5,9.7-15.8,10.8-17.6c1.4-2.4,1.7-3,1.7-3.8
		c0-0.9-0.9-0.9-1.7-1.1c-0.6-0.1-0.8-0.3-0.8-0.6c0-0.2,0.2-0.4,0.9-0.4c1.8,0,3.4,0.2,4.6,0.2c1,0,5.4-0.2,6.7-0.2
		c0.7,0,0.9,0.2,0.9,0.4c0,0.4-0.4,0.6-0.9,0.6c-1.6,0.1-2.7,0.2-3.8,0.9c-1.1,0.7-1.6,1.4-2.8,3c-4.4,5.8-11.7,17.6-12.9,20.2
		c-0.9,2.3-0.8,3.8-0.8,5.7v5.3c0,0.5,0,3.2,0.2,5.8c0.2,1.7,0.3,3,2.6,3.4c1,0.2,2.3,0.3,2.8,0.3c0.6,0,0.8,0.2,0.8,0.4
		c0,0.4-0.2,0.6-0.9,0.6c-3.8,0-8.5-0.2-8.7-0.2c-0.2,0-4.7,0.2-6.8,0.2c-0.8,0-1.1-0.2-1.1-0.6c0-0.2,0.2-0.4,0.8-0.4
		c0.6,0,1.3-0.1,1.9-0.2c1.3-0.2,1.8-1.7,2-3.5c0.2-2.6,0.2-5.2,0.2-5.8V517z"/>
	<path class="st5" d="M822.1,511.9c0,10.7,0.3,15.3,1.7,16.6c1.2,1.2,3.2,1.7,9.1,1.7c4,0,7.3-0.1,9.2-2.2c1-1.2,1.7-3,2-4.4
		c0.1-0.6,0.2-0.9,0.7-0.9c0.4,0,0.5,0.3,0.5,1.1c0,0.8-0.5,5.2-1.1,7.3c-0.5,1.7-0.8,2-4.8,2c-6.5,0-12.9-0.4-20.3-0.4
		c-2.3,0-4.6,0.2-7.4,0.2c-0.8,0-1.2-0.1-1.2-0.6c0-0.2,0.2-0.4,0.6-0.4c0.7,0,1.6-0.1,2.3-0.3c1.5-0.3,1.9-1.9,2.2-4
		c0.4-3,0.4-8.8,0.4-15.8V499c0-11.3,0-13.4-0.2-15.7c-0.2-2.5-0.8-3.6-3.3-4.1c-0.6-0.1-1.9-0.2-2.6-0.2c-0.3,0-0.6-0.1-0.6-0.4
		c0-0.4,0.4-0.6,1.2-0.6c3.4,0,8.2,0.2,8.6,0.2s5.9-0.2,8.2-0.2c0.8,0,1.2,0.1,1.2,0.6c0,0.3-0.3,0.4-0.6,0.4
		c-0.5,0-1.6,0.1-2.5,0.2c-2.2,0.4-2.8,1.6-3,4.1c-0.2,2.3-0.2,4.4-0.2,15.7V511.9z"/>
	<path class="st5" d="M866,511.9c0,10.7,0.3,15.3,1.7,16.6c1.2,1.2,3.2,1.7,9.1,1.7c4,0,7.3-0.1,9.2-2.2c1-1.2,1.7-3,2-4.4
		c0.1-0.6,0.2-0.9,0.7-0.9c0.4,0,0.5,0.3,0.5,1.1c0,0.8-0.5,5.2-1.1,7.3c-0.5,1.7-0.8,2-4.8,2c-6.5,0-12.9-0.4-20.3-0.4
		c-2.3,0-4.6,0.2-7.4,0.2c-0.8,0-1.2-0.1-1.2-0.6c0-0.2,0.2-0.4,0.6-0.4c0.7,0,1.6-0.1,2.3-0.3c1.5-0.3,1.9-1.9,2.2-4
		c0.4-3,0.4-8.8,0.4-15.8V499c0-11.3,0-13.4-0.2-15.7c-0.2-2.5-0.8-3.6-3.3-4.1c-0.6-0.1-1.9-0.2-2.6-0.2c-0.3,0-0.6-0.1-0.6-0.4
		c0-0.4,0.4-0.6,1.2-0.6c3.4,0,8.2,0.2,8.6,0.2s5.9-0.2,8.2-0.2c0.8,0,1.2,0.1,1.2,0.6c0,0.3-0.3,0.4-0.6,0.4
		c-0.5,0-1.6,0.1-2.5,0.2c-2.2,0.4-2.8,1.6-3,4.1c-0.2,2.3-0.2,4.4-0.2,15.7V511.9z"/>
	<path class="st5" d="M904.5,526c-7.3-6.3-9.2-14.6-9.2-21.5c0-4.9,1.7-13.4,8.5-19.8c4.5-4.4,11.4-7.8,23.1-7.8c3,0,7.3,0.2,11,0.9
		c2.9,0.5,5.2,0.7,8,1.1c0.5,0.1,0.7,0.4,0.7,0.8c0,0.6-0.2,1.5-0.4,4.1c-0.2,2.4-0.2,6.4-0.2,7.5c-0.1,1.1-0.2,1.5-0.7,1.5
		c-0.5,0-0.6-0.5-0.6-1.5c0-2.8-1.2-5.8-3.2-7.4c-2.7-2.2-8.5-4.1-15.1-4.1c-10.1,0-14.8,2.8-17.4,5.3c-5.5,5.1-6.8,11.5-6.8,18.9
		c0,13.9,11.1,26.6,27.3,26.6c5.7,0,10.1-0.7,13.2-3.6c1.6-1.6,2.6-4.8,2.8-6.1c0.2-0.8,0.3-1.1,0.8-1.1c0.4,0,0.5,0.5,0.5,1.1
		c0,0.5-0.9,6.8-1.7,9.3c-0.5,1.4-0.6,1.5-2,2.1c-3,1.2-8.8,1.7-13.6,1.7C918.1,533.8,910.4,531.1,904.5,526z"/>
</g>
</svg>
