<?xml version="1.0" encoding="utf-8"?>
<!-- Generator: Adobe Illustrator 19.2.1, SVG Export Plug-In . SVG Version: 6.00 Build 0)  -->
<svg version="1.1" id="Logo" xmlns="http://www.w3.org/2000/svg" xmlns:xlink="http://www.w3.org/1999/xlink" x="0px" y="0px"
	 viewBox="0 0 960 560" style="enable-background:new 0 0 960 560;" xml:space="preserve">
<style type="text/css">
	.st0{fill:#FF9900;}
	.st1{fill:none;stroke:#FF9900;stroke-width:1.4815;stroke-miterlimit:10;}
	.st2{fill:#FFFFFF;}
	.st3{fill:#0099FF;stroke:#0099FF;stroke-miterlimit:10;}
	.st4{font-family:'TrajanPro3-Regular';}
	.st5{font-size:93.9805px;}
</style>
<g>
	<g>
		<g>
			<path class="st0" d="M168.5,182.5c0,0,0.4-0.5,1.1-1.6c0.7-1,1.7-2.5,3.1-4.3c2.7-3.7,6.6-8.9,11.5-14.9s10.8-12.9,17.2-20.1
				c1.6-1.8,3.3-3.6,5-5.5c1.7-1.8,3.4-3.7,5.1-5.5c3.5-3.7,7.1-7.4,10.6-11.1c3.6-3.7,7.3-7.3,10.9-10.9c1.8-1.8,3.6-3.5,5.4-5.2
				c1.8-1.7,3.6-3.4,5.4-5.1c7.1-6.6,13.9-12.6,19.8-17.6s11.1-9,14.7-11.8c1.8-1.4,3.3-2.4,4.3-3.1s1.5-1.1,1.5-1.1
				s-0.4,0.5-1.1,1.6c-0.7,1-1.7,2.5-3.1,4.3c-2.7,3.7-6.6,8.9-11.5,14.9s-10.7,12.9-17.2,20.1c-1.6,1.8-3.3,3.6-5,5.5
				c-1.7,1.8-3.4,3.7-5.1,5.5c-3.5,3.7-7.1,7.4-10.7,11.1c-3.6,3.7-7.3,7.3-10.9,10.9c-1.8,1.8-3.6,3.5-5.4,5.2
				c-1.8,1.7-3.6,3.4-5.4,5.1c-7.1,6.6-13.9,12.6-19.8,17.6c-5.9,5-11,9-14.7,11.8c-1.8,1.4-3.3,2.4-4.3,3.1
				C169,182.2,168.5,182.5,168.5,182.5z"/>
		</g>
		<g>
			<path class="st0" d="M340.1,108.7c0,0-0.3-0.1-0.7-0.3c-0.5-0.2-1.2-0.6-2-1.1c-1.7-0.9-4-2.4-6.5-4.3c-2.6-1.9-5.4-4.2-8.2-6.9
				c-2.8-2.7-5.7-5.7-8.4-8.8c-2.7-3.2-5.2-6.5-7.3-9.7c-1.1-1.6-2.1-3.2-3-4.8c-0.9-1.6-1.7-3.1-2.4-4.5c-1.4-2.8-2.5-5.4-3.1-7.2
				c-0.3-0.9-0.5-1.7-0.7-2.2s-0.2-0.8-0.2-0.8s0.3,0.1,0.7,0.3c0.5,0.2,1.2,0.6,2,1.1c1.7,0.9,4,2.4,6.5,4.3c1.3,0.9,2.6,2,4,3.2
				s2.8,2.4,4.2,3.8c2.8,2.7,5.7,5.7,8.3,8.9c2.7,3.2,5.2,6.5,7.3,9.7c2.2,3.3,4,6.4,5.4,9.3c1.4,2.8,2.5,5.4,3.1,7.2
				c0.3,0.9,0.5,1.7,0.7,2.1C340,108.4,340.1,108.7,340.1,108.7z"/>
		</g>
		<g>
			<path class="st0" d="M242,193.4c0,0,0.1-0.4,0.4-1c0.3-0.6,0.7-1.6,1.4-2.7c1.2-2.3,3-5.5,5.4-9.2s5.3-7.9,8.6-12.2
				c0.8-1.1,1.7-2.2,2.6-3.2c0.9-1.1,1.8-2.2,2.7-3.3c1.8-2.2,3.7-4.4,5.7-6.5c1.9-2.1,3.9-4.2,5.9-6.3c1-1,2-2,3-3s2-1.9,3-2.9
				c4-3.7,7.8-7,11.3-9.7s6.5-4.8,8.7-6.2c1.1-0.7,2-1.2,2.6-1.6s1-0.5,1-0.5s-0.1,0.4-0.4,1s-0.7,1.6-1.3,2.7
				c-1.2,2.3-3,5.6-5.4,9.3s-5.3,7.9-8.6,12.2c-0.8,1.1-1.7,2.2-2.6,3.2c-0.9,1.1-1.8,2.2-2.7,3.3c-1.8,2.2-3.7,4.3-5.7,6.5
				c-1.9,2.1-3.9,4.2-5.9,6.3c-1,1-2,2-3,3s-2,1.9-3,2.9c-4,3.7-7.9,7-11.3,9.7c-3.5,2.7-6.5,4.8-8.7,6.2c-1.1,0.7-2,1.2-2.6,1.6
				C242.3,193.2,242,193.4,242,193.4z"/>
		</g>
		<g>
			<path class="st0" d="M421,23.4c-3.1,5-6.5,9.8-10,14.5c-1.7,2.4-3.5,4.7-5.2,7c-1.8,2.3-3.6,4.6-5.4,6.9
				c-1.8,2.3-3.6,4.5-5.5,6.8c-1.8,2.3-3.7,4.4-5.6,6.7c-1.9,2.2-3.8,4.4-5.7,6.6c-1.9,2.2-3.9,4.3-5.8,6.5s-3.9,4.3-5.9,6.4
				c-1.9,2.1-4,4.2-5.9,6.3c-2,2.1-4,4.2-6,6.3c-2,2.1-4.1,4.1-6.1,6.2s-4.1,4.1-6.2,6.1s-4.2,4-6.3,6c-2.1,2-4.3,3.9-6.4,5.9
				c-2.2,1.9-4.3,3.9-6.5,5.8l-1.3,1.1l-1-0.1c-3.7-0.4-7.4-0.8-11-1.3c-1.8-0.3-3.7-0.5-5.5-0.8l-2.8-0.5c-0.9-0.2-1.8-0.3-2.8-0.5
				c0.9-0.2,1.8-0.4,2.8-0.5l2.8-0.5c1.8-0.3,3.7-0.6,5.5-0.8c3.7-0.5,7.4-0.9,11-1.3l-2.3,1c1.7-2.3,3.5-4.6,5.3-6.9
				s3.6-4.5,5.4-6.8c1.8-2.2,3.7-4.5,5.6-6.7s3.7-4.4,5.6-6.6s3.8-4.4,5.7-6.5c1.9-2.2,3.9-4.3,5.8-6.4c2-2.1,3.9-4.3,5.9-6.4
				s4-4.2,6-6.3c2-2.1,4-4.2,6.1-6.2s4.1-4.1,6.2-6.1s4.1-4.1,6.3-6c2.1-2,4.2-4,6.4-5.9c2.1-2,4.3-3.9,6.5-5.8
				c2.2-1.9,4.4-3.8,6.6-5.7C411.8,30.6,416.3,26.9,421,23.4z"/>
		</g>
		<g>
			<path class="st0" d="M437.7,32.9c0,0,0.2,0.1,0.6,0.3s0.9,0.5,1.5,0.9c1.3,0.8,3,2,4.8,3.5s3.8,3.5,5.7,5.7
				c1.9,2.2,3.7,4.7,5.3,7.2c1.6,2.6,3,5.3,4.1,7.9c1.1,2.7,2,5.3,2.5,7.6c0.6,2.3,0.9,4.4,1,5.9c0.1,0.7,0.1,1.4,0.1,1.8
				s0,0.6,0,0.6s-0.2-0.1-0.6-0.3c-0.4-0.2-0.9-0.5-1.5-0.9c-1.3-0.8-3-2-4.8-3.5s-3.8-3.5-5.7-5.7c-1.9-2.2-3.7-4.7-5.3-7.2
				c-1.6-2.6-3-5.3-4.1-7.9c-1.1-2.7-2-5.3-2.5-7.6c-0.6-2.3-0.9-4.4-1-5.9c-0.1-0.7-0.1-1.4-0.1-1.8
				C437.7,33.1,437.7,32.9,437.7,32.9z"/>
		</g>
		<g>
			<path class="st0" d="M464,73.5c0,0,0-0.1,0.1-0.3c0.1-0.2,0.1-0.5,0.3-0.8c0.3-0.7,0.7-1.6,1.3-2.6c0.6-1,1.4-2,2.4-2.9
				c0.5-0.5,1-0.9,1.5-1.4c0.5-0.4,1.1-0.8,1.7-1.2c0.6-0.4,1.2-0.7,1.8-1c0.6-0.3,1.2-0.6,1.9-0.8c1.2-0.5,2.5-0.8,3.6-1
				s2.2-0.2,2.9-0.2c0.4,0,0.7,0,0.9,0.1c0.2,0,0.3,0,0.3,0l0.2,0.4c0,0-0.3,0.2-0.8,0.6c-0.5,0.3-1.2,0.9-2.1,1.5
				c-1.7,1.2-4,2.7-6.4,4.3c-2.4,1.5-4.7,3-6.5,4.1c-0.9,0.6-1.6,1-2.2,1.3c-0.5,0.3-0.8,0.5-0.8,0.5L464,73.5z"/>
		</g>
		<g>
			<path class="st0" d="M523.5,104.8c0,0-0.3-0.1-0.7-0.2c-0.4-0.2-1.1-0.4-1.9-0.8c-1.6-0.7-3.8-1.8-6.3-3.3s-5.2-3.4-8-5.6
				s-5.5-4.7-8.1-7.4c-2.6-2.7-5-5.5-7.1-8.3s-3.9-5.6-5.3-8.1s-2.4-4.8-3.1-6.4c-0.3-0.8-0.5-1.5-0.7-2C482,62.2,482,62,482,62
				s0.3,0.1,0.7,0.2c0.4,0.2,1.1,0.4,1.9,0.8c1.6,0.7,3.8,1.8,6.3,3.3s5.2,3.4,8,5.6s5.5,4.7,8.1,7.4c2.6,2.7,5,5.5,7.1,8.3
				s3.9,5.6,5.3,8.1c1.4,2.5,2.4,4.8,3.1,6.4c0.3,0.8,0.5,1.5,0.7,1.9C523.4,104.6,523.5,104.8,523.5,104.8z"/>
		</g>
		<g>
			<path class="st0" d="M396.2,198.2c0,0,0.2-0.4,0.6-1.2s0.9-2,1.7-3.4c1.5-2.9,3.7-7,6.6-11.7s6.4-10.1,10.3-15.7
				c1-1.4,2-2.8,3-4.2s2.1-2.9,3.2-4.3c2.2-2.9,4.4-5.7,6.7-8.6c2.3-2.8,4.6-5.6,7-8.3c1.2-1.4,2.3-2.7,3.5-4s2.3-2.6,3.5-3.9
				c4.6-5,9.1-9.6,13.2-13.4c4-3.8,7.5-6.8,10-8.9c1.3-1,2.3-1.8,3-2.3s1.1-0.8,1.1-0.8s-0.2,0.4-0.6,1.2c-0.4,0.8-0.9,2-1.7,3.4
				c-1.5,2.9-3.7,7-6.6,11.7c-2.9,4.7-6.4,10.1-10.3,15.7c-1,1.4-2,2.8-3,4.2s-2.1,2.9-3.2,4.3c-2.2,2.9-4.4,5.7-6.7,8.6
				c-2.3,2.8-4.6,5.6-7,8.3c-1.2,1.4-2.3,2.7-3.5,4s-2.3,2.6-3.5,3.9c-4.6,5-9.1,9.6-13.2,13.4c-4,3.8-7.5,6.8-10,8.9
				c-1.3,1-2.3,1.8-3,2.3S396.2,198.2,396.2,198.2z"/>
		</g>
		<g>
			<path class="st0" d="M469.6,107.4c0,0,0.2,0,0.5-0.1c0.3,0,0.8-0.1,1.4-0.1s1.3-0.1,2.1,0c0.8,0,1.7,0,2.7,0.1
				c2,0.1,4.2,0.4,6.6,0.9c1.2,0.2,2.4,0.5,3.6,0.8s2.4,0.7,3.6,1.1s2.4,0.8,3.6,1.3c1.2,0.4,2.3,0.9,3.4,1.4c2.2,1,4.2,2.1,5.8,3.1
				c0.8,0.5,1.6,1,2.3,1.5c0.7,0.4,1.2,0.9,1.7,1.3s0.8,0.7,1.1,0.9c0.2,0.2,0.4,0.3,0.4,0.3l-0.1,0.4c0,0-0.6-0.2-1.7-0.5
				s-2.6-0.8-4.4-1.3c-3.6-1.1-8.5-2.7-13.3-4.2c-4.8-1.6-9.7-3.2-13.3-4.4c-1.8-0.6-3.3-1.1-4.4-1.5s-1.7-0.6-1.7-0.6L469.6,107.4z
				"/>
		</g>
		<g>
			<path class="st0" d="M565,68.1c0,0-0.1,0.3-0.4,0.8c-0.3,0.5-0.7,1.3-1.2,2.3c-1.1,1.9-2.8,4.6-4.9,7.5c-2.2,3-4.8,6.3-7.9,9.7
				c-3,3.4-6.4,6.8-9.9,10s-7.2,6.3-10.9,9c-3.6,2.7-7.2,5.1-10.3,7c-3.2,1.9-5.9,3.3-7.9,4.2c-1,0.5-1.8,0.8-2.4,1
				s-0.9,0.3-0.9,0.3s0.1-0.3,0.4-0.8s0.7-1.3,1.2-2.3c1.1-1.9,2.7-4.6,4.9-7.5c2.2-3,4.8-6.3,7.9-9.7c3-3.4,6.4-6.8,10-10
				s7.2-6.3,10.9-9c3.6-2.7,7.2-5.1,10.3-7c3.2-1.9,5.9-3.3,7.9-4.2c1-0.5,1.8-0.8,2.4-1C564.6,68.2,565,68.1,565,68.1z"/>
		</g>
		<g>
			<path class="st0" d="M580.9,70.2c0,0,0.4,0.5,1.2,1.4c0.7,0.9,1.8,2.2,3.2,4c2.7,3.4,6.4,8.4,10.6,14.5c4.2,6.1,9,13.3,13.9,21.2
				c1.2,2,2.4,4,3.7,6c1.2,2,2.5,4.1,3.7,6.2c2.5,4.2,4.9,8.5,7.3,12.8c2.4,4.3,4.8,8.6,7,12.9c1.1,2.1,2.3,4.3,3.3,6.4
				c1.1,2.1,2.2,4.2,3.2,6.3c4.1,8.3,7.8,16.1,10.7,22.9c3,6.8,5.2,12.6,6.7,16.7c0.8,2,1.3,3.7,1.7,4.8s0.6,1.7,0.6,1.7
				s-0.4-0.5-1.2-1.4c-0.7-0.9-1.8-2.2-3.2-4c-2.7-3.4-6.4-8.4-10.7-14.5c-4.2-6.1-9-13.3-13.9-21.2c-1.2-2-2.4-4-3.7-6
				c-1.2-2-2.5-4.1-3.7-6.2c-2.5-4.2-4.9-8.5-7.3-12.8c-2.4-4.3-4.8-8.6-7-12.9c-1.1-2.1-2.2-4.3-3.3-6.4s-2.2-4.2-3.2-6.3
				c-4.1-8.3-7.8-16.1-10.7-22.9c-3-6.8-5.2-12.6-6.7-16.7c-0.8-2-1.3-3.7-1.7-4.8C581.1,70.8,580.9,70.2,580.9,70.2z"/>
		</g>
		<path class="st1" d="M215.7,138.4l22.1-2.3l9.6-5c3.3-1.7,7.4-1.5,10.5,0.7l6.1,4.3c3.3,2.3,7.5,2.9,11.3,1.5l25.9-9.3"/>
		<path class="st1" d="M329.8,129l6,1.9c4.5,1.4,9.3,0.4,12.9-2.6l27-23c5.1-4.4,12.9-3.5,16.9,1.9l0.4,0.5
			c2.7,3.6,7.5,5.1,11.8,3.7l6.3-2.1c4.3-1.4,9.1,0.5,11.1,4.6l3.6,7.3c2.1,4.3,6.6,7.1,11.4,7.1h8.8"/>
		<path class="st1" d="M446,165l7,2.3c4.7,1.6,9.8,0.6,13.7-2.4l27.1-21.6c5.2-4.1,12.6-3.9,17.5,0.5l16.6,14.8
			c5.1,4.6,12.8,5,18.4,1l9.3-6.7c6.6-4.7,15.7-3.8,21.2,2.1l3.9,4.1c5.6,6,15,6.7,21.4,1.5l14.9-12.2"/>
	</g>
	<g>
		<g>
			<path class="st2" d="M242.5,248.7c0,0,0.5-0.8,1.5-2.2s2.5-3.5,4.5-6.1s4.5-5.6,7.6-9c3-3.4,6.6-7,10.7-10.8s8.8-7.7,14-11.5
				s11-7.5,17.3-10.8c3.1-1.7,6.4-3.2,9.8-4.6c3.4-1.4,6.9-2.7,10.5-3.8s7.3-2,11.1-2.7c3.8-0.6,7.6-1.1,11.5-1.3
				c7.7-0.4,15.5,0.3,23,2c1.8,0.5,3.7,0.9,5.5,1.4c1.8,0.6,3.6,1.1,5.3,1.8c0.9,0.3,1.7,0.7,2.6,1s1.7,0.7,2.5,1.1
				c0.8,0.4,1.7,0.7,2.5,1.1c0.8,0.4,1.6,0.8,2.4,1.2c6.4,3.3,12.2,7.1,17.3,11.1c5.1,4,9.6,8.2,13.4,12.3c2,2,3.7,4.1,5.4,6
				c1.6,2,3.1,3.9,4.5,5.6c1.4,1.8,2.6,3.5,3.8,5.1c1.1,1.6,2.1,3.1,3,4.4c1.9,2.7,3.1,4.9,4,6.4s1.4,2.3,1.4,2.3s-0.6-0.7-1.8-2
				c-1.2-1.3-2.8-3.2-5-5.6c-1.1-1.2-2.3-2.5-3.6-3.9c-1.4-1.4-2.8-2.9-4.3-4.5c-3.2-3.1-6.8-6.6-10.9-10.1
				c-4.1-3.6-8.7-7.2-13.8-10.6c-5.1-3.5-10.7-6.7-16.7-9.4s-12.5-4.9-19.3-6.3c-1.7-0.3-3.4-0.7-5.1-0.8l-2.6-0.3l-2.6-0.2
				l-1.3-0.1h-1.3l-2.6-0.1c-1.7,0-3.5,0-5.2,0.1c-7,0.3-13.9,1.5-20.6,3.4s-13.2,4.3-19.2,7.2c-6.1,2.8-11.8,6-17,9.3
				c-5.3,3.3-10.1,6.7-14.4,10s-8.3,6.4-11.7,9.3c-3.4,2.9-6.3,5.5-8.6,7.7s-4.2,4-5.4,5.2C243.1,248,242.5,248.7,242.5,248.7z"/>
		</g>
		<g>
			<path class="st2" d="M580.9,288.8c0,0,0.4-1,1.3-3c0.9-1.9,2.3-4.7,4.2-8.2s4.4-7.6,7.4-12.3c3.1-4.6,6.7-9.7,11-15.1
				c4.3-5.3,9.3-10.9,15.1-16.4c5.8-5.4,12.3-10.8,19.8-15.6c3.7-2.4,7.7-4.6,11.9-6.5s8.6-3.6,13.2-4.9c4.6-1.2,9.4-2.2,14.3-2.6
				c4.9-0.4,9.8-0.2,14.7,0.3c4.9,0.6,9.7,1.8,14.3,3.3c2.3,0.9,4.6,1.6,6.8,2.7c1.1,0.5,2.2,1,3.3,1.5c1.1,0.6,2.1,1.1,3.2,1.7
				c1.1,0.5,2.1,1.1,3.1,1.8c1,0.6,2,1.2,3,1.8c1.9,1.3,3.8,2.6,5.7,4c0.9,0.7,1.8,1.4,2.7,2.1c0.9,0.7,1.8,1.4,2.6,2.2
				c0.8,0.7,1.7,1.5,2.5,2.2l1.2,1.1l1.2,1.2c6.4,6.1,11.8,12.5,16.5,18.9c1.2,1.6,2.3,3.2,3.4,4.8c1.1,1.6,2.2,3.1,3.2,4.7
				c2,3.1,3.9,6.1,5.6,9.1c0.8,1.5,1.7,2.9,2.5,4.4c0.8,1.4,1.5,2.8,2.2,4.2c0.7,1.4,1.4,2.7,2.1,4c0.7,1.3,1.3,2.6,1.9,3.9
				c2.4,5,4.3,9.4,5.8,13.1c0.8,1.8,1.4,3.5,2,4.9c0.5,1.4,1,2.7,1.4,3.7c0.7,2,1.1,3,1.1,3s-0.6-0.9-1.8-2.7
				c-1.2-1.8-2.8-4.4-5-7.7c-2.2-3.3-4.8-7.3-7.9-11.7c-0.8-1.1-1.6-2.3-2.4-3.5c-0.8-1.2-1.7-2.4-2.6-3.6c-0.9-1.2-1.8-2.5-2.7-3.8
				c-1-1.3-1.9-2.6-3-3.9c-4-5.3-8.5-10.9-13.5-16.5s-10.6-11.2-16.7-16.4c-3.1-2.6-6.3-5.1-9.6-7.4c-1.7-1.2-3.4-2.2-5.1-3.3
				c-0.9-0.5-1.8-1-2.7-1.5s-1.8-1-2.7-1.5s-1.8-0.9-2.7-1.4c-0.9-0.4-1.9-0.8-2.8-1.2c-1.9-0.8-3.8-1.4-5.7-2.2
				c-3.9-1.2-7.8-2.2-11.9-2.6c-4-0.5-8.1-0.6-12.1-0.4c-4,0.3-8,0.9-12,1.9c-1,0.3-2,0.5-2.9,0.8c-1,0.3-1.9,0.6-2.9,0.9
				c-1,0.3-1.9,0.6-2.9,1c-0.9,0.4-1.9,0.7-2.8,1.1c-3.8,1.5-7.3,3.3-10.9,5.2c-7,3.9-13.4,8.4-19.3,13c-5.9,4.6-11.2,9.4-16,14
				c-4.8,4.6-9,9-12.6,13c-3.7,4-6.8,7.6-9.3,10.6s-4.5,5.4-5.8,7.1C581.6,287.9,580.9,288.8,580.9,288.8z"/>
		</g>
	</g>
</g>
<g>
	<g>
		<g>
			<g>
				<g>
					<path class="st3" d="M467.6,251.1L505,254l18.7,1.3l9.4,0.7l2.3,0.2c0.8,0.1,1.6,0.2,2.4,0.2c1.6,0.2,3.1,0.4,4.7,0.6
						c1.6,0.3,3.1,0.5,4.8,1.1c0.2,0.1,0.4,0.2,0.7,0.3c0.2,0.2,0.6,0.3,0.9,1c0.1,0.4,0,0.9-0.2,1.1c-0.2,0.3-0.3,0.4-0.5,0.5
						c-0.3,0.2-0.5,0.3-0.7,0.4c-0.9,0.4-1.6,0.6-2.4,0.7c-3.2,0.7-6.2,1.1-9.4,1.3c-6.2,0.4-12.5,0.9-18.7,1.4l-37.4,3l-18.7,1.5
						c-6.2,0.5-12.4,1.4-18.6,2.3l-4.7,0.7l-4.7,0.6c-3.1,0.4-6.2,0.8-9.3,0.8c-3.1,0-6.3,0.2-9.4,0c-0.8,0-1.6-0.1-2.3,0
						c-0.8,0-1.6,0.1-2.3,0.3l-1.2,0.2l-0.6,0.1h-0.3h-0.1c-0.2,0,0.2,0,0.1,0l-0.3,0.1h0.1c0.1,0,0.1,0,0.1,0c0.1,0,0.2,0,0.3-0.1
						c0.2-0.1,0.3-0.2,0.4-0.3c0.1-0.1,0.1-0.3,0-0.6c-0.1-0.3-0.5-0.6-0.6-0.7h2.3c3.1,0.1,6.3,0.1,9.4,0.2
						c6.3,0.2,12.5,0.9,18.7,1.7l37.2,4.5l37.2,4.9l37.2,5.1l37.2,5.1c6.2,0.8,12.4,1.7,18.6,2.5l9.3,1.1c3.1,0.4,6.2,0.8,9.3,1.3
						l37.2,5.1c12.4,1.7,24.8,3.4,37.1,5.2l18.6,2.6l18.5,2.9l18.5,2.9c1.5,0.2,3.1,0.5,4.6,1l0.6,0.2c0.1,0-0.1,0,0.3,0.1l0.1,0.1
						c0.1,0,0.2,0.1,0.3,0.1c0.3,0.1,0.6,0.3,0.9,0.4c0.3,0.2,0.5,0.3,0.7,0.5c0.9,0.7,1.6,1.8,1.9,2.8c0.6,2.1-0.1,4-1,5.3
						c-1,1.3-2.5,2.1-4.1,2.1l0,0c-0.9-0.1-1.9,0-2.8-0.1c-0.9,0-1.9,0-2.8,0.1c-0.9,0.1-1.9,0.2-2.8,0.3c-1,0.1-1.9,0.3-2.9,0.4
						c-1.9,0.4-3.8,0.7-5.7,1.2c-1,0.2-1.9,0.4-2.9,0.6s-1.9,0.4-2.9,0.5c-1,0.2-1.9,0.3-2.9,0.4s-1.9,0.2-2.8,0.3
						c-0.9,0-1.9,0.1-2.8,0.1l-2.8,0.1c-0.9,0-1.9,0.1-2.8,0.1h-2.8c-1.9,0-3.8,0-5.6-0.1h0.8c-2,0.1-4,0.2-6,0.3l-6,0.2
						c-4,0.2-8,0.2-11.9,0.3c-2,0-4,0.1-6,0.1c-1,0-2,0-3,0l-3-0.1c-4-0.3-8-0.6-12-0.9c-1-0.1-2-0.1-3-0.2l-1.5-0.1h-1.4
						c-2,0-4,0.1-6,0.3c-2,0.2-4,0.6-5.9,1.2c-2,0.6-4,1.3-5.9,2c-2,0.7-3.9,1.4-5.9,1.9s-4,0.8-6,0.9c-4,0.4-8,0-12-0.3
						c-2-0.1-4-0.2-6-0.3c-2-0.1-4-0.2-6-0.3c-4-0.2-8-0.5-12-0.8l-23.9-1.6l-47.9-3.2L522,327l47.7-3.5l11.9-0.9
						c4-0.3,8-0.6,11.9-0.8c2-0.1,4-0.1,6-0.3c1-0.1,2-0.2,3-0.4c1-0.1,2-0.4,3-0.9s2-1.1,2.9-1.6c1-0.5,2-1,3-0.9
						c2-0.1,4-0.2,6-0.3c4-0.2,8-0.4,11.9-0.4c4,0,8,0,12,0.1c4,0.2,8,0.4,12,0.7c2,0.2,4,0.3,6,0.5h0.4h0.1l0,0c0,0,0.3,0,0.2,0
						h0.2l0.7,0.1l1.5,0.2l3,0.3c4,0.5,8,0.9,12,1.2c2,0.1,4,0.3,6,0.3c2,0.1,4,0.1,6,0.1c4,0,8,0,11.9-0.1l6-0.2l6-0.3l0,0h0.6
						c7.5,0.3,15,0.8,22.4,1.2l22.4,1.3H758c-0.3,0-0.9,0-1.5,0.4c-0.6,0.3-1.2,0.9-1.5,1.4s-0.4,1-0.5,1.5c0,0.5,0.1,1.1,0.4,1.7
						c0.3,0.6,0.9,1.3,1.5,1.6c0.2,0.1,0.3,0.2,0.4,0.2c0.1,0.1,0.6,0.2,0.7,0.2h-0.3h-0.1c1.3,0.2,0.3,0.1,0.5,0.1l-0.6-0.1
						c-1.6-0.1-3.1-0.3-4.7-0.4l-18.7-1.4l-37.4-2.8l-37.4-2.9c-12.5-1-24.9-2.1-37.4-3.1l-4.7-0.4c-1.6-0.2-3.1-0.2-4.7-0.5
						c-1.5-0.3-3-1.1-4.4-2.2c-1.4-1.2-2.7-3.9-4.1-5.4c-6.1-1.3-12.4-1.9-18.5-2.9l-37.2-5.1l-74.3-10.4l-37.1-5.4
						c-3.1-0.5-6.2-0.9-9.3-1.4c-3.1-0.5-6.2-1-9.2-1.6c-3.1-0.6-6.1-1.2-9.2-1.8l-2.4-0.5c-1.6-0.2-3.4-1.2-4.5-2.6
						c-1.1-1.5-1.6-3.2-1.5-4.8c0.1-1.6,0.7-3.3,2-4.5c0.6-0.6,1.4-1.1,2.1-1.5c0.4-0.2,0.8-0.3,1.2-0.4c0.2,0,0.5-0.1,0.7-0.1h0.3
						c0,0,0.5,0,0.4,0h0.1h0.3h0.6h1.2c1.6,0,3.1-0.1,4.7-0.2c3.1-0.3,6.2-0.4,9.4-0.6l4.7-0.2l4.7-0.1l9.4-0.2l9.4-0.2
						c3.1-0.1,6.2-0.2,9.4-0.4l18.7-1l37.4-2.1l18.7-1c3-0.3,6.2-0.6,9.1-1.2c0.7-0.2,1.5-0.4,2-0.6c0.1-0.1,0.2-0.1,0.3-0.2
						c0,0,0,0-0.1,0.1c0,0.1-0.2,0.4-0.1,0.6c0.2,0.4,0.2,0.3,0.1,0.2c-0.1-0.1-0.2-0.1-0.4-0.2c-1.2-0.5-2.8-0.7-4.3-1
						c-1.5-0.2-3.1-0.4-4.6-0.6c-0.8-0.1-1.6-0.2-2.3-0.2l-2.3-0.2l-9.3-0.8l-18.7-1.7l-37.4-3.1L467.6,251.1z"/>
				</g>
			</g>
		</g>
	</g>
</g>
<text transform="matrix(1 0 0 1 0 459.1211)" class="st2 st4 st5">Mount McKinney</text>
</svg>
