<?xml version="1.0" encoding="utf-8"?>
<!-- Generator: Adobe Illustrator 19.2.1, SVG Export Plug-In . SVG Version: 6.00 Build 0)  -->
<svg version="1.1" id="Mail" xmlns="http://www.w3.org/2000/svg" xmlns:xlink="http://www.w3.org/1999/xlink" x="0px" y="0px"
	 viewBox="0 0 640 480" style="enable-background:new 0 0 640 480;" xml:space="preserve">
<style type="text/css">
	.st0{fill:#CC6600;}
	.st1{fill:#263832;}
	.st2{fill:#FFFFFF;}
	.st3{fill:#003366;}
	.st4{fill:#009966;}
	.st5{fill:#006600;}
	.st6{fill:#FFFF99;}
</style>
<g>
	<g>
		<rect y="30.9" class="st0" width="640" height="418.3"/>
		<g>
			<g>
				<rect x="201" y="234.9" class="st1" width="238" height="14.8"/>
				<rect x="201" y="260.8" class="st1" width="238" height="14.8"/>
				<rect x="201" y="286.7" class="st1" width="238" height="14.8"/>
			</g>
			<g>
				<rect x="19.7" y="52.4" class="st1" width="119" height="14.8"/>
				<rect x="19.7" y="78.3" class="st1" width="119" height="14.8"/>
			</g>
		</g>
	</g>
	<g>
		<g>
			<path class="st2" d="M606.7,118.5c0-3.8,3.1-6.9,6.9-6.9v-11.1c-3.8,0-6.9-3.1-6.9-6.9c0-3.8,3.1-6.9,6.9-6.9V75.7
				c-3.8,0-6.9-3.1-6.9-6.9s3.1-6.9,6.9-6.9V51.5H603c0,3.8-3.1,6.9-6.9,6.9c-3.8,0-6.9-3.1-6.9-6.9h-10.9c0,3.8-3.1,6.9-6.9,6.9
				c-3.8,0-6.9-3.1-6.9-6.9h-10.9c0,3.8-3.1,6.9-6.9,6.9c-3.8,0-6.9-3.1-6.9-6.9h-10.6v10.4c3.8,0,6.9,3.1,6.9,6.9s-3.1,6.9-6.9,6.9
				v11.1c3.8,0,6.9,3.1,6.9,6.9c0,3.8-3.1,6.9-6.9,6.9v11.1c3.8,0,6.9,3.1,6.9,6.9c0,3.8-3.1,6.9-6.9,6.9v10.4H540
				c0-3.8,3.1-6.9,6.9-6.9c3.8,0,6.9,3.1,6.9,6.9h10.9c0-3.8,3.1-6.9,6.9-6.9c3.8,0,6.9,3.1,6.9,6.9h10.9c0-3.8,3.1-6.9,6.9-6.9
				c3.8,0,6.9,3.1,6.9,6.9h10.6v-10.4C609.8,125.4,606.7,122.3,606.7,118.5z"/>
			<rect x="544.3" y="66.5" class="st3" width="54.4" height="54.4"/>
		</g>
		<g>
			<g>
				<polygon class="st4" points="569.3,85.5 578.9,102.1 588.5,118.8 569.3,118.8 550.1,118.8 559.7,102.1 				"/>
				<polygon class="st5" points="569.3,102.1 574.1,110.5 578.9,118.8 569.3,118.8 559.7,118.8 564.5,110.5 				"/>
			</g>
			<g>
				<path class="st6" d="M581.2,73.3c-0.4-0.1-0.8-0.1-1.2-0.1c1.7,0.5,2.3,3.3,1.8,5c-0.4,1.7-2.2,4-4,3.6c0.3,0.2,0.7,0.3,1.1,0.4
					c2.5,0.6,4.9-0.9,5.5-3.3C585.1,76.4,583.6,73.9,581.2,73.3z"/>
				<polygon class="st6" points="556,76.7 557.7,76.4 558.7,77.9 558.4,76.1 559.9,75.1 558.1,75.4 557.2,73.9 557.5,75.7 				"/>
				<polygon class="st6" points="573.9,86.3 575.7,86 576.7,87.5 576.4,85.7 577.9,84.7 576.1,85 575.1,83.5 575.4,85.3 				"/>
				<polygon class="st6" points="555,86.7 556.8,86.4 557.7,87.9 557.4,86.2 558.9,85.2 557.2,85.5 556.2,84 556.5,85.8 				"/>
				<polygon class="st6" points="566.9,74 568.7,73.7 569.7,75.2 569.4,73.4 570.9,72.4 569.1,72.7 568.1,71.2 568.4,73 				"/>
				<polygon class="st6" points="584.7,71.3 586.4,71 587.4,72.5 587.1,70.7 588.6,69.8 586.8,70.1 585.9,68.6 586.2,70.3 				"/>
				<polygon class="st6" points="589.5,78.7 591.3,78.4 592.3,79.9 592,78.1 593.5,77.1 591.7,77.4 590.7,75.9 591,77.7 				"/>
				<polygon class="st6" points="551,74 552.8,73.7 553.8,75.2 553.5,73.4 555,72.4 553.2,72.7 552.2,71.2 552.5,73 				"/>
			</g>
		</g>
	</g>
</g>
</svg>
