<?xml version="1.0" encoding="utf-8"?>
<!-- Generator: Adobe Illustrator 19.2.1, SVG Export Plug-In . SVG Version: 6.00 Build 0)  -->
<svg version="1.1" id="Mail" xmlns="http://www.w3.org/2000/svg" xmlns:xlink="http://www.w3.org/1999/xlink" x="0px" y="0px"
	 viewBox="0 0 640 480" style="enable-background:new 0 0 640 480;" xml:space="preserve">
<style type="text/css">
	.st0{fill:#BF5000;}
	.st1{fill:#ECEFF1;}
	.st2{fill:#B0BEC5;}
	.st3{fill:#2838A2;}
	.st4{fill:#263238;}
	.st5{fill:#F9B701;}
	.st6{fill:#78909C;}
	.st7{fill:#E98F00;}
	.st8{fill:#FF6300;}
</style>
<g>
	<path class="st0" d="M79.4,195L295.1,12.4c14.4-12.2,35.5-12.2,49.8,0L560.6,195H79.4z"/>
	<rect x="79.4" y="195" class="st0" width="481.2" height="143.8"/>
	<rect x="99.2" y="41.4" class="st1" width="435.1" height="383.8"/>
	<g>
		<rect x="99.2" y="41.4" class="st2" width="435.1" height="93.3"/>
		<rect x="379.4" y="62.4" class="st3" width="136.3" height="14.8"/>
		<rect x="425.3" y="91.5" class="st4" width="90.3" height="15.4"/>
		<rect x="122.2" y="60.7" class="st5" width="54.6" height="54.6"/>
		<rect x="122.2" y="167.7" class="st6" width="118.3" height="12.5"/>
		<rect x="122.2" y="195" class="st6" width="393.4" height="12.5"/>
		<rect x="122.2" y="222.4" class="st6" width="393.4" height="12.5"/>
		<rect x="122.2" y="249.7" class="st6" width="393.4" height="12.5"/>
		<rect x="122.2" y="287.2" class="st6" width="393.4" height="12.5"/>
		<rect x="122.2" y="322.6" class="st6" width="393.4" height="12.5"/>
	</g>
	<polygon class="st7" points="308.7,340.5 560.6,195 560.6,480 	"/>
	<polygon class="st8" points="79.4,480 79.4,195 560.6,480 	"/>
</g>
</svg>
