<?xml version="1.0" encoding="utf-8"?>
<!-- Generator: Adobe Illustrator 19.2.1, SVG Export Plug-In . SVG Version: 6.00 Build 0)  -->
<svg version="1.1" id="Collar" xmlns="http://www.w3.org/2000/svg" xmlns:xlink="http://www.w3.org/1999/xlink" x="0px" y="0px"
	 viewBox="0 0 640 480" style="enable-background:new 0 0 640 480;" xml:space="preserve">
<style type="text/css">
	.st0{fill:none;stroke:#E2D100;stroke-width:1.0631;stroke-miterlimit:10;}
	.st1{fill:#FFFF00;stroke:#FFFF00;stroke-width:1.0631;stroke-miterlimit:10;}
	.st2{fill:#FFC794;stroke:#FFC794;stroke-miterlimit:10;}
	.st3{fill:#FFC794;}
	.st4{opacity:0.15;fill:#552D00;}
	.st5{fill:#00366A;}
	.st6{fill:#550E00;stroke:#550E00;stroke-width:0.7973;stroke-miterlimit:10;}
	.st7{fill:#0099FF;}
	.st8{fill:#94DFFF;}
	.st9{fill:#7FD6FF;stroke:#7FD6FF;stroke-width:1.0631;stroke-miterlimit:10;}
</style>
<g>
	<path class="st0" d="M217.4,172.4c0,0,1-77,4.2-79.1c0,0,0.9-22.6,28.3-33.9c0,0,15.1-7.4,50.7-3.8c0,0,33.5,1.6,44.9-0.1
		c11.4-1.7,43.9-1.9,60.5,10.5c0,0,15,8.5,16.6,27.5c0,0,3.8,34.5,1.8,38.6c0,0-0.3,40.3,1.1,40.4"/>
	<g>
		<path class="st1" d="M435.5,181.9l3.9-4.4l4.4-4.9C479.9,47,385.3,27.3,385.3,27.3c11.8-2.4,4.6-21.3,4.6-21.3
			c-34.7,8.4-49.5,5.6-49.5,5.6c-88.5-9-101.2,42.6-101.2,42.6c-74.1,8.2-40.7,119.4-38.8,119.9c1.8,0.5,8.7,5.3,8.7,5.3
			c2.5-5.3,8.1-5.4,8.1-5.4l208-1c0,0,5.2-1.1,9.3,8.9"/>
		<g>
			<g>
				<g>
					<path class="st2" d="M216.4,370.5c2.9,36,48.6,62.2,104.5,62.2s101.7-27.4,104.5-62.5l-80.7,0.1l-23.7-43.6l-25.9,43.8H216.4z"
						/>
					<path class="st3" d="M213,369.5l25.1-5.6c0.2-0.1,0.3-0.2,0.3-0.4v-36.7c0-0.4-0.3-24.1,0-23.8l55.5,24.3
						c0.3,0.3,27.6-0.3,27.2-0.3l-36.2,70.9C284.4,397.9,212.5,369.6,213,369.5z"/>
					<path class="st3" d="M425.4,368.8l-20.9-5.2c-0.2-0.1-1.6-0.5-1.6-0.7l-0.4-36.5c0-0.4,0.2-23.7-0.1-23.5l-58,24.3
						c-0.3,0.3-23.8-0.3-23.4-0.3l37.6,69.1C359.2,396.1,425.9,368.9,425.4,368.8z"/>
				</g>
				<path class="st4" d="M238.4,303l0,19.4l54.1,33.9c2.4,1.5,5.3,2.5,8.4,2.9l15,1.8c3.4,0.4,6.8,0.3,10.1-0.3l19.6-3.5
					c3-0.5,5.9-1.6,8.3-3.2l48.7-31.8l0-19.1c0,0,0,0-0.1,0c-0.7,1.6-8.5,16.7-44.5,19.8c-13,1.1-26.2-0.2-36.9-0.2
					c-20.8,0-34.6,0.2-34.6,0.2S251.9,323.4,238.4,303z"/>
				<g>
					<path class="st3" d="M425.4,172.4c-0.2,0-0.5,0-0.7,0c-2.5-22.4,3.7-74.7-6.1-92.1c-19-33.8-62.7-24-97.5-24
						c-34.8,0-76.2-10-95.2,23.7c-9.8,17.5-6,70-8.4,92.4c-6.6,0.7-11.8,10.5-11.8,22.5c0,12.5,5.6,22.6,12.6,22.6c0,0,0.1,0,0.1,0
						c3.5,23.4,9.9,67.9,21.4,85.3c12,18.1,34.8,24.8,53,27.6c11.3,1.7,17.2,6.2,29.1,6.2c10.9,0,14.8-1.8,25.1-2.3
						c19.4-1,43.1-12.9,55.6-31.5c11.9-17.6,17.8-61.6,21.3-85.5c0.5,0.1,1,0.2,1.6,0.2c6.9,0,12.6-10.1,12.6-22.6
						C438,182.5,432.4,172.4,425.4,172.4z"/>
					<g>
						<path class="st5" d="M297.6,158.4c0-9-7.3-16.3-16.4-16.3c-9,0-16.4,7.2-16.4,16.2c0,2.8,0.7,5.6,2,7.6h28.8
							C296.9,164,297.6,161.3,297.6,158.4z"/>
						<path class="st5" d="M378.2,158.4c0-9-7.3-16.3-16.4-16.3c-9,0-16.4,7.2-16.4,16.2c0,2.8,0.7,5.6,2,7.6h28.8
							C377.4,164,378.2,161.3,378.2,158.4z"/>
					</g>
					<path class="st6" d="M320,285.3c27.3,0.2,49.6-10.1,49.7-24.2l-99-0.8C270.6,274.4,292.7,285.1,320,285.3z"/>
				</g>
			</g>
			<g>
				<g>
					<path class="st7" d="M442.6,374.3l85.4,23.8c0,0,67.6,10.8,63,80.9H48.8c4-73.4,63.7-80.4,63.7-80.4l86.4-24.2
						c0,0,32.1,71.3,122.1,71.3S442.6,374.3,442.6,374.3z"/>
					<rect x="410.5" y="464.3" class="st8" width="74.2" height="14.7"/>
				</g>
				<g>
					<path class="st9" d="M425.4,368.8c-4.7,35-49.8,62.4-104.7,62.4c-54.8,0-99.9-27.4-104.7-62.3l-16.9,4.6
						c4.3,41.3,57.1,73.9,121.5,73.9c64.3,0,117-32.5,121.5-73.7L425.4,368.8z"/>
				</g>
			</g>
		</g>
	</g>
</g>
</svg>
