<?xml version="1.0" encoding="utf-8"?>
<!-- Generator: Adobe Illustrator 20.1.0, SVG Export Plug-In . SVG Version: 6.00 Build 0)  -->
<svg version="1.1" id="Computer" xmlns="http://www.w3.org/2000/svg" xmlns:xlink="http://www.w3.org/1999/xlink" x="0px" y="0px"
	 viewBox="0 0 640 480" style="enable-background:new 0 0 640 480;" xml:space="preserve">
<style type="text/css">
	.st0{fill:#00FF7F;}
	.st1{enable-background:new    ;}
	.st2{fill:#FFFFFF;}
</style>
<g>
	<path class="st0" d="M319.3,4.5C189.6,4.5,84.5,109.6,84.5,239.3c0,43.7,12,84.7,32.8,119.7l-10.8,38l-22,77.1l77.7-19.5l42.1-10.6
		c34,19.1,73.2,30,114.9,30C448.9,474,554,368.9,554,239.3S448.9,4.5,319.3,4.5z"/>
	<g class="st1">
		<path class="st2" d="M360.6,222.1l-32.5,16.3l-11.4,34.1H294v-55.3l35.7-17.9l6.5-13v-13l-6.5-13l-13-6.5h-29.3L254,165.3
			l15.6-47.1h79.6l35.7,35.8v43.9L360.6,222.1z M320,345.6h-26l-13-13v-26l13-13h26l13,13v26L320,345.6z"/>
	</g>
</g>
</svg>
