<?xml version="1.0" encoding="utf-8"?>
<!-- Generator: Adobe Illustrator 19.2.1, SVG Export Plug-In . SVG Version: 6.00 Build 0)  -->
<svg version="1.1" id="Computer" xmlns="http://www.w3.org/2000/svg" xmlns:xlink="http://www.w3.org/1999/xlink" x="0px" y="0px"
	 viewBox="0 0 640 480" style="enable-background:new 0 0 640 480;" xml:space="preserve">
<style type="text/css">
	.st0{fill:#A5A5A5;}
	.st1{fill:none;}
</style>
<g>
	<path class="st0" d="M550,268.8V218l-34.2-7.3c-2.1-14-5.7-27.6-10.6-40.5l25.9-23.4l-25.4-44l-33.5,10.8
		c-7.9-9.5-16.7-18.3-26.3-26.2l10.4-34.3l-44.5-24.6L389,54.6c-11.7-4.4-23.9-7.7-36.2-9.8L345.4,10h-50.8l-7.3,34.2
		c-12.5,2-24.9,5.3-37.1,9.9l-23.8-26.3l-44,25.4L193.3,87c-10.8,8.9-20.5,18.8-29,29.5L131,106.4l-24.6,44.5l26.3,23
		c-3.8,10.9-6.7,22.1-8.6,33.5L90,214.6v50.8l34,7.3c2.1,12.1,5.3,24.2,9.7,36l-26.3,23.8l25.4,44l33.8-10.9
		c8.7,10.6,18.6,20.4,29.6,29.2l-10.3,34l44.5,24.6l23.4-26.8c11,3.9,22.1,6.7,33.4,8.6l7.4,34.6h50.8l7.5-34.7
		c11.3-1.9,22.2-4.7,32.7-8.4l23.8,26.3l44-25.4l-10.5-32.5c11.8-9.3,22.4-19.9,31.8-31.7l33.8,10.3l24.6-44.5L506.6,306
		c3.4-9.6,6.1-19.6,8-29.8L550,268.8z M319.3,353.2c-62.5,0-113.2-50.7-113.2-113.2s50.7-113.2,113.2-113.2S432.5,177.5,432.5,240
		S381.8,353.2,319.3,353.2z"/>
	<circle class="st1" cx="319.3" cy="240.1" r="113.2"/>
</g>
</svg>
