<?xml version="1.0" encoding="utf-8"?>
<!-- Generator: Adobe Illustrator 19.2.1, SVG Export Plug-In . SVG Version: 6.00 Build 0)  -->
<svg version="1.1" id="Newspaper" xmlns="http://www.w3.org/2000/svg" xmlns:xlink="http://www.w3.org/1999/xlink" x="0px" y="0px"
	 viewBox="0 0 640 480" style="enable-background:new 0 0 640 480;" xml:space="preserve">
<style type="text/css">
	.st0{fill:#B0BEC5;}
	.st1{fill:#F9B701;}
	.st2{fill:#2638A2;}
	.st3{fill:#263238;}
</style>
<path class="st0" d="M511.4,480H128.6c-11,0-20-9-20-20V20c0-11,9-20,20-20h382.7c11,0,20,9,20,20v440
	C531.4,471,522.4,480,511.4,480z"/>
<rect x="130" y="18" class="st1" width="379.4" height="60.2"/>
<rect x="130.3" y="129.2" class="st2" width="144.9" height="105.3"/>
<rect x="130.3" y="99.2" class="st3" width="379.4" height="10.7"/>
<rect x="130" y="264.5" class="st3" width="379.4" height="10.7"/>
<rect x="130" y="298.4" class="st3" width="379.4" height="10.7"/>
<rect x="130" y="329.4" class="st3" width="379.4" height="10.7"/>
<rect x="130" y="360.3" class="st3" width="379.4" height="10.7"/>
<rect x="130" y="391.3" class="st3" width="379.4" height="10.7"/>
<rect x="130" y="422.2" class="st3" width="379.4" height="10.7"/>
<g>
	<rect x="299.3" y="128.9" class="st3" width="210.4" height="11.1"/>
	<rect x="299.3" y="159.3" class="st3" width="210.4" height="11.1"/>
	<rect x="299.3" y="191.5" class="st3" width="210.4" height="11.1"/>
	<rect x="299.3" y="223.7" class="st3" width="210.4" height="11.1"/>
</g>
</svg>
