<?xml version="1.0" encoding="utf-8"?>
<!-- Generator: Adobe Illustrator 20.1.0, SVG Export Plug-In . SVG Version: 6.00 Build 0)  -->
<svg version="1.1" id="Layer_2" xmlns="http://www.w3.org/2000/svg" xmlns:xlink="http://www.w3.org/1999/xlink" x="0px" y="0px"
	 viewBox="0 0 960 560" style="enable-background:new 0 0 960 560;" xml:space="preserve">
<style type="text/css">
	.st0{fill:#7C827F;}
	.st1{fill:#00FF7F;}
	.st2{fill:none;stroke:#00FF7F;stroke-width:10.1677;stroke-miterlimit:10;}
</style>
<g>
	<path class="st0" d="M754,5.4l-5.2,0.3c-4.5,0.3-8.4,3.2-9.9,7.5L605.2,389.1c-1.6,4.5-5.8,7.5-10.6,7.5h-388
		c-6.2,0-11.3,5-11.3,11.3l0,0c0,6.2,5,11.3,11.3,11.3h405.8c4.8,0,9.1-3.1,10.7-7.7l124.8-369c1.3-3.9,4.6-6.7,8.6-7.5l0.3-0.1
		c5.3-1,9.2-5.6,9.2-11.1v-7.3C766,10.1,760.5,5,754,5.4z"/>
	<ellipse class="st1" cx="803.1" cy="18" rx="30.2" ry="13.4"/>
	<path class="st1" d="M258.8,435.8c-31.6,0-57.3,25.6-57.3,57.3c0,31.6,25.6,57.3,57.3,57.3c31.6,0,57.3-25.6,57.3-57.3
		C316.1,461.4,290.4,435.8,258.8,435.8z M258.8,521.7c-15.8,0-28.6-12.8-28.6-28.6c0-15.8,12.8-28.6,28.6-28.6s28.6,12.8,28.6,28.6
		S274.6,521.7,258.8,521.7z"/>
	<path class="st1" d="M559.6,435.8c-31.6,0-57.3,25.6-57.3,57.3c0,31.6,25.6,57.3,57.3,57.3c31.6,0,57.3-25.6,57.3-57.3
		S591.2,435.8,559.6,435.8z M559.6,521.7c-15.8,0-28.6-12.8-28.6-28.6c0-15.8,12.8-28.6,28.6-28.6c15.8,0,28.6,12.8,28.6,28.6
		S575.4,521.7,559.6,521.7z"/>
	<g>
		<path class="st2" d="M678,105.6L593.1,343c-5.2,14.6-19.1,24.4-34.6,24.4H239.1c-16,0-30.2-10.3-35-25.6L128.4,105
			c-7.6-23.7,10.1-47.9,35-48l479.9-0.6C668.8,56.4,686.6,81.6,678,105.6z"/>
		<line class="st2" x1="137.9" y1="135.7" x2="666.7" y2="135.7"/>
		<line class="st2" x1="164.1" y1="210" x2="640.5" y2="210"/>
		<line class="st2" x1="186" y1="284.3" x2="614.3" y2="284.3"/>
		<line class="st2" x1="236.2" y1="369.5" x2="236.2" y2="54.9"/>
		<line class="st2" x1="345.5" y1="369.5" x2="345.5" y2="54.9"/>
		<line class="st2" x1="450.4" y1="54.9" x2="450.4" y2="369.5"/>
		<line class="st2" x1="559.6" y1="369.5" x2="559.6" y2="54.9"/>
	</g>
</g>
</svg>
