<?xml version="1.0" encoding="utf-8"?>
<!-- Generator: Adobe Illustrator 20.1.0, SVG Export Plug-In . SVG Version: 6.00 Build 0)  -->
<svg version="1.1" id="Layer_2" xmlns="http://www.w3.org/2000/svg" xmlns:xlink="http://www.w3.org/1999/xlink" x="0px" y="0px"
	 viewBox="0 0 960 560" style="enable-background:new 0 0 960 560;" xml:space="preserve">
<style type="text/css">
	.st0{fill:#7C827F;}
	.st1{fill:#00FF7F;}
	.st2{fill:#00FF7F;stroke:#00FF7F;stroke-width:1.0168;stroke-miterlimit:10;}
	.st3{fill:#FFFFFF;stroke:#00FF7F;stroke-width:1.0168;stroke-miterlimit:10;}
	.st4{fill:none;stroke:#00FF7F;stroke-width:10.1677;stroke-miterlimit:10;}
</style>
<g>
	<path class="st0" d="M754,9.4l-5.2,0.3c-4.5,0.3-8.4,3.2-9.9,7.5L605.2,393.1c-1.6,4.5-5.8,7.5-10.6,7.5h-388
		c-6.2,0-11.3,5-11.3,11.3v0c0,6.2,5,11.3,11.3,11.3h405.8c4.8,0,9.1-3.1,10.7-7.7L747.9,46.5c1.3-3.9,4.6-6.7,8.6-7.5l0.3-0.1
		c5.3-1,9.2-5.6,9.2-11.1v-7.3C766,14.1,760.5,9,754,9.4z"/>
	<ellipse class="st1" cx="803.1" cy="22" rx="30.2" ry="13.4"/>
	<g>
		<path class="st2" d="M536.4,439.8c-31.6,0-57.3,25.6-57.3,57.3c0,31.6,25.6,57.3,57.3,57.3c31.6,0,57.3-25.6,57.3-57.3
			C593.7,465.4,568,439.8,536.4,439.8z M536.4,525.7c-15.8,0-28.6-12.8-28.6-28.6c0-15.8,12.8-28.6,28.6-28.6s28.6,12.8,28.6,28.6
			C565,512.9,552.2,525.7,536.4,525.7z"/>
		<circle class="st3" cx="536.4" cy="497.1" r="28.6"/>
	</g>
	<path class="st1" d="M258.8,439.8c-31.6,0-57.3,25.6-57.3,57.3c0,31.6,25.6,57.3,57.3,57.3c31.6,0,57.3-25.6,57.3-57.3
		C316.1,465.4,290.4,439.8,258.8,439.8z M258.8,525.7c-15.8,0-28.6-12.8-28.6-28.6c0-15.8,12.8-28.6,28.6-28.6
		c15.8,0,28.6,12.8,28.6,28.6C287.4,512.9,274.6,525.7,258.8,525.7z"/>
	<g>
		<path class="st4" d="M678,109.6L593.1,347c-5.2,14.6-19.1,24.4-34.6,24.4H239.1c-16,0-30.2-10.3-35-25.6L128.4,109
			c-7.6-23.7,10.1-47.9,35-48l479.9-0.6C668.8,60.4,686.6,85.6,678,109.6z"/>
		<line class="st4" x1="137.9" y1="139.7" x2="666.7" y2="139.7"/>
		<line class="st4" x1="164.1" y1="214" x2="640.5" y2="214"/>
		<line class="st4" x1="186" y1="288.3" x2="614.3" y2="288.3"/>
		<line class="st4" x1="236.2" y1="373.5" x2="236.2" y2="58.9"/>
		<line class="st4" x1="345.5" y1="373.5" x2="345.5" y2="58.9"/>
		<line class="st4" x1="450.4" y1="58.9" x2="450.4" y2="373.5"/>
		<line class="st4" x1="559.6" y1="373.5" x2="559.6" y2="58.9"/>
	</g>
</g>
</svg>
