<?xml version="1.0" encoding="utf-8"?>
<!-- Generator: Adobe Illustrator 19.2.1, SVG Export Plug-In . SVG Version: 6.00 Build 0)  -->
<svg version="1.1" id="Layer_1" xmlns="http://www.w3.org/2000/svg" xmlns:xlink="http://www.w3.org/1999/xlink" x="0px" y="0px"
	 viewBox="0 0 640 480" style="enable-background:new 0 0 640 480;" xml:space="preserve">
<style type="text/css">
	.st0{fill:#263238;}
	.st1{fill:none;}
	.st2{fill:none;stroke:#000000;stroke-width:0.2881;stroke-miterlimit:10;}
	.st3{fill:#2638A2;}
	.st4{fill:#F9B701;}
</style>
<g>
	<g id="Layer_2">
		<g>
			<path class="st0" d="M2.4,341.8L2.4,341.8v41.9l0,0c85.5,50.1,191.4,50.1,276.9,0l0,0v-41.9l0,0
				C193.8,391.8,87.9,391.8,2.4,341.8z"/>
			<path class="st0" d="M2.4,204.9L2.4,204.9v37.6v21l0,0c85.5,50.1,191.4,50.1,276.9,0l0,0v-21v-37.6l0,0
				C193.8,254.8,87.9,254.8,2.4,204.9z"/>
			<path class="st0" d="M279.3,191.6c-85.5-50.1-191.4-50.1-276.9,0l0,0v4.4l0,0c85.5,50.1,191.4,50.1,276.9,0l0,0V191.6
				L279.3,191.6z"/>
			<path class="st0" d="M2.4,272.7L2.4,272.7v58.5l0,0l0,0c85.5,50.1,191.4,50.1,276.9,0l0,0v-58.5l0,0
				C193.8,322.8,87.9,322.8,2.4,272.7z"/>
			<path class="st1" d="M2.4,341.8L2.4,341.8v30.4l0,0c85.5,50.1,191.4,50.1,276.9,0l0,0v-30.4l0,0
				C193.8,391.8,87.9,391.8,2.4,341.8z"/>
			<path class="st1" d="M2.4,252.8L2.4,252.8v30.4l0,0c85.5,50.1,191.4,50.1,276.9,0l0,0v-30.4l0,0
				C193.8,302.9,87.9,302.9,2.4,252.8z"/>
			<path class="st1" d="M2.4,164L2.4,164v39.8l0,0c85.5,65.6,191.4,65.6,276.9,0l0,0V164l0,0C193.8,229.4,87.9,229.4,2.4,164z"/>
			<line class="st2" x1="2.4" y1="191.6" x2="2.4" y2="383.6"/>
			<line class="st2" x1="279.3" y1="191.6" x2="279.3" y2="383.6"/>
		</g>
	</g>
	<g id="Layer_3">
	</g>
</g>
<g>
	<g id="Layer_2_1_">
		<g>
			<path class="st3" d="M360.7,340.2L360.7,340.2v41.9l0,0c85.5,50.1,191.4,50.1,276.9,0l0,0v-41.9l0,0
				C552.1,390.3,446.2,390.3,360.7,340.2z"/>
			<path class="st3" d="M360.7,203.3L360.7,203.3v37.6v21l0,0c85.5,50.1,191.4,50.1,276.9,0l0,0v-21v-37.6l0,0
				C552.1,253.3,446.2,253.3,360.7,203.3z"/>
			<path class="st3" d="M637.6,190c-85.5-50.1-191.4-50.1-276.9,0l0,0v4.4l0,0c85.5,50.1,191.4,50.1,276.9,0l0,0V190L637.6,190z"/>
			<path class="st3" d="M360.7,271.2L360.7,271.2v58.5l0,0l0,0c85.5,50.1,191.4,50.1,276.9,0l0,0v-58.5l0,0
				C552.1,321.3,446.2,321.3,360.7,271.2z"/>
			<path class="st1" d="M360.7,340.2L360.7,340.2v30.4l0,0c85.5,50.1,191.4,50.1,276.9,0l0,0v-30.4l0,0
				C552.1,390.3,446.2,390.3,360.7,340.2z"/>
			<path class="st1" d="M360.7,251.3L360.7,251.3v30.4l0,0c85.5,50.1,191.4,50.1,276.9,0l0,0v-30.4l0,0
				C552.1,301.3,446.2,301.3,360.7,251.3z"/>
			<path class="st1" d="M360.7,162.5L360.7,162.5v39.8l0,0c85.5,65.6,191.4,65.6,276.9,0l0,0v-39.8l0,0
				C552.1,227.9,446.2,227.9,360.7,162.5z"/>
			<line class="st2" x1="360.7" y1="190" x2="360.7" y2="382.1"/>
			<line class="st2" x1="637.6" y1="190" x2="637.6" y2="382.1"/>
		</g>
	</g>
	<g id="Layer_3_1_">
	</g>
</g>
<path class="st4" d="M412,139.1l-0.3-76.5c0-4.1-4.9-6.1-7.8-3.4L375.3,86c-89.9-56.6-169.3,32.7-169.3,32.7l28.8,20
	c0,0,44.4-69.6,116.9-30.6l-25,23.4c-3,2.8-1.2,7.8,2.9,8l77.5,4.2C409.8,143.9,412,141.8,412,139.1z"/>
</svg>
