<?xml version="1.0" encoding="utf-8"?>
<!-- Generator: Adobe Illustrator 20.1.0, SVG Export Plug-In . SVG Version: 6.00 Build 0)  -->
<svg version="1.1" id="Computer" xmlns="http://www.w3.org/2000/svg" xmlns:xlink="http://www.w3.org/1999/xlink" x="0px" y="0px"
	 viewBox="0 0 640 480" style="enable-background:new 0 0 640 480;" xml:space="preserve">
<style type="text/css">
	.st0{fill:#A5A5A5;}
	.st1{fill:none;}
	.st2{fill:#263238;}
</style>
<g>
	<g>
		<path class="st0" d="M634,200.6v-36.4l-24.5-5.2c-1.5-10-4.1-19.8-7.6-29l18.6-16.8l-18.2-31.6l-24,7.7
			c-5.7-6.8-12-13.1-18.9-18.8l7.5-24.6l-31.9-17.6L518.5,47c-8.4-3.2-17.1-5.5-26-7l-5.3-25h-36.4l-5.2,24.5
			c-9,1.4-17.9,3.8-26.6,7.1l-17.1-18.9L370.4,46l7.8,24.2c-7.7,6.4-14.7,13.5-20.8,21.2l-23.9-7.2l-17.6,31.9l18.9,16.5
			c-2.7,7.8-4.8,15.8-6.2,24l-24.5,5.2v36.4l24.4,5.2c1.5,8.7,3.8,17.4,7,25.8l-18.9,17.1l18.2,31.6l24.2-7.8
			c6.2,7.6,13.3,14.6,21.2,20.9l-7.4,24.4l31.9,17.6l16.8-19.2c7.9,2.8,15.8,4.8,24,6.2l5.3,24.8h36.4l5.4-24.9
			c8.1-1.4,15.9-3.4,23.4-6l17.1,18.9l31.6-18.2l-7.5-23.3c8.5-6.7,16.1-14.3,22.8-22.7l24.2,7.4l17.6-31.9l-19-16.6
			c2.4-6.9,4.4-14.1,5.7-21.4L634,200.6z M468.6,261.2c-44.8,0-81.2-36.4-81.2-81.2s36.4-81.2,81.2-81.2c44.8,0,81.2,36.4,81.2,81.2
			S513.4,261.2,468.6,261.2z"/>
		<circle class="st1" cx="468.6" cy="180.1" r="81.2"/>
	</g>
	<g>
		<path class="st2" d="M335.9,320.8v-36.4l-24.5-5.2c-1.5-10-4.1-19.8-7.6-29l18.6-16.8l-18.2-31.6l-24,7.7
			c-5.7-6.8-12-13.1-18.9-18.8l7.5-24.6l-31.9-17.6l-16.4,18.7c-8.4-3.2-17.1-5.5-26-7l-5.3-25h-36.4l-5.2,24.5
			c-9,1.4-17.9,3.8-26.6,7.1L103.8,148l-31.6,18.2l7.8,24.2c-7.7,6.4-14.7,13.5-20.8,21.2l-23.9-7.2l-17.6,31.9l18.9,16.5
			c-2.7,7.8-4.8,15.8-6.2,24L6,281.9v36.4l24.4,5.2c1.5,8.7,3.8,17.4,7,25.8l-18.9,17.1L36.7,398l24.2-7.8
			c6.2,7.6,13.3,14.6,21.2,20.9l-7.4,24.4l31.9,17.6l16.8-19.2c7.9,2.8,15.8,4.8,24,6.2l5.3,24.8h36.4l5.4-24.9
			c8.1-1.4,15.9-3.4,23.4-6l17.1,18.9l31.6-18.2l-7.5-23.3c8.5-6.7,16.1-14.3,22.8-22.7l24.2,7.4l17.6-31.9l-19-16.6
			c2.4-6.9,4.4-14.1,5.7-21.4L335.9,320.8z M170.4,381.3c-44.8,0-81.2-36.4-81.2-81.2s36.4-81.2,81.2-81.2s81.2,36.4,81.2,81.2
			S215.3,381.3,170.4,381.3z"/>
		<circle class="st1" cx="170.4" cy="300.2" r="81.2"/>
	</g>
</g>
</svg>
