<?xml version="1.0" encoding="utf-8"?>
<!-- Generator: Adobe Illustrator 19.2.1, SVG Export Plug-In . SVG Version: 6.00 Build 0)  -->
<svg version="1.1"
	 id="svg2" inkscape:export-filename="./Portal Design - Logotipo Quadrado - Somente Ãcone - 1.0.0 - 2048x2048.png" inkscape:export-xdpi="90" inkscape:export-ydpi="90" inkscape:version="0.48.5 r10040" sodipodi:docname="Portal Design - Logotipo Horizontal - Ãcone + Nome - 1.0.0.svg" xmlns:cc="http://creativecommons.org/ns#" xmlns:dc="http://purl.org/dc/elements/1.1/" xmlns:inkscape="http://www.inkscape.org/namespaces/inkscape" xmlns:rdf="http://www.w3.org/1999/02/22-rdf-syntax-ns#" xmlns:sodipodi="http://sodipodi.sourceforge.net/DTD/sodipodi-0.dtd" xmlns:svg="http://www.w3.org/2000/svg"
	 xmlns="http://www.w3.org/2000/svg" xmlns:xlink="http://www.w3.org/1999/xlink" x="0px" y="0px" viewBox="0 0 2048 2048"
	 style="enable-background:new 0 0 2048 2048;" xml:space="preserve">
<style type="text/css">
	.st0{fill:#263238;}
	.st1{fill:#344FC1;}
	.st2{fill:#2638A2;}
</style>
<sodipodi:namedview  bordercolor="#666666" borderlayer="true" borderopacity="1.0" fit-margin-bottom="0" fit-margin-left="0" fit-margin-right="0" fit-margin-top="0" id="base" inkscape:bbox-nodes="true" inkscape:bbox-paths="true" inkscape:current-layer="layer1" inkscape:cx="78.949786" inkscape:cy="-2233.8547" inkscape:document-units="px" inkscape:object-nodes="true" inkscape:object-paths="true" inkscape:pageopacity="0.0" inkscape:pageshadow="2" inkscape:snap-bbox="true" inkscape:snap-bbox-edge-midpoints="true" inkscape:snap-bbox-midpoints="true" inkscape:snap-center="true" inkscape:snap-global="false" inkscape:snap-intersection-paths="true" inkscape:snap-midpoints="true" inkscape:snap-nodes="false" inkscape:snap-object-midpoints="true" inkscape:snap-page="true" inkscape:snap-smooth-nodes="true" inkscape:window-height="744" inkscape:window-maximized="1" inkscape:window-width="1321" inkscape:window-x="45" inkscape:window-y="24" inkscape:zoom="0.04" pagecolor="#ffffff" showgrid="false" showguides="true">
	<sodipodi:guide  id="guide3895" orientation="2048.0,0" position="0.0,0"></sodipodi:guide>
	<sodipodi:guide  id="guide3897" orientation="2048.0,0" position="1024.0,0"></sodipodi:guide>
	<sodipodi:guide  id="guide3899" orientation="2048.0,0" position="2048.0,0"></sodipodi:guide>
	<sodipodi:guide  id="guide3901" orientation="0,2048.0" position="0,0.0"></sodipodi:guide>
	<sodipodi:guide  id="guide3903" orientation="0,2048.0" position="0,1024.0"></sodipodi:guide>
	<sodipodi:guide  id="guide3905" orientation="0,2048.0" position="0,2048.0"></sodipodi:guide>
</sodipodi:namedview>
<g id="layer1" transform="translate(-317.55875,1048.9015)" inkscape:groupmode="layer" inkscape:label="Camada 1">
	<g id="g3861" transform="matrix(2.0086469,0,0,2.0086469,-1890.9288,644.28405)">
		<path id="path3021" inkscape:connector-curvature="0" class="st0" d="M1974-842.9c-1.8,0-3.8,0.8-5.6,3.2
			c-2.6,3.6-337.9,469.1-414.2,606.6c1.8,0.6,3.7,1.2,5.6,1.9c11.8,4.2,24.8,9.9,38.7,17.8c16.5,9.3,34.3,21.5,52.7,37.6
			c83.8-135.9,326.4-653,328.3-657c1.7-4.5,0-7.7-1.8-8.9c-0.1-0.1-0.2-0.2-0.4-0.2C1976.6-842.5,1975.4-843,1974-842.9L1974-842.9z
			 M1545-215.5c-1.3,2.7-2.4,5.2-3.3,7.3c-28.4,69.4-70.9,152.7-82.7,184.5c22.6,3.5,42.2,15.9,55.1,33.6
			c22-25.7,73.9-103,120.4-161.2c1.8-2.2,3.8-4.9,5.9-8c-16.7-14.8-32.8-26.2-47.7-34.9c-14.4-8.4-27.7-14.4-39.6-18.6
			C1550.4-213.7,1547.6-214.7,1545-215.5L1545-215.5z"/>
		<g id="g3795">
			<path id="path3793" inkscape:connector-curvature="0" class="st1" d="M1441.2,159c-0.4,0-0.6,0-1,0c-3.5-0.2-7.1-0.5-10.7-0.9
				s-7.3-0.8-11-1.2s-7.4-1.1-11-1.7c-3.6-0.7-7.1-1.4-10.6-2.3c-3.4-0.9-6.7-1.8-9.8-2.9c-1.5-0.5-3.1-1.1-4.5-1.7
				c-1.4-0.6-2.8-1.2-4.2-1.9c-1.3-0.7-2.6-1.3-3.8-2.1c-1.2-0.7-2.3-1.5-3.4-2.3s-2-1.6-2.9-2.5s-1.7-1.8-2.4-2.7s-1.3-1.9-1.9-2.9
				c-0.5-1-0.9-2.1-1.3-3.2c-0.3-1.1-0.5-2.2-0.6-3.4c-0.1-1.2-0.1-2.4,0.1-3.7c0.1-1.3,0.2-2.5,0.2-3.7s-0.2-2.4-0.4-3.5
				c-0.2-1.2-0.5-2.3-0.8-3.4c-0.4-1.1-0.8-2.2-1.3-3.2c-0.5-1.1-1.1-2.1-1.7-3.1s-1.3-2-2.1-2.9c-0.8-1-1.6-1.9-2.4-2.8
				s-1.8-1.8-2.7-2.6c-1-0.9-2-1.7-3-2.5s-2.1-1.6-3.3-2.3c-0.5-0.3-1-0.6-1.5-0.9c-16.9,37.6-43.9,60.9-99.4,71.3
				c-9.1,1.7-6.1,12.8,0,12.8C1309.5,176.6,1384.9,176.3,1441.2,159L1441.2,159z"/>
			<path id="path3849" inkscape:connector-curvature="0" class="st2" d="M1439.7-15.2c-41.4,0-75.9,29.9-82.9,69.2
				c-3.8,14.3-8.1,27.1-13.3,38.6c0.5,0.3,1,0.6,1.5,0.9c1.1,0.8,2.2,1.5,3.3,2.3c1,0.8,2,1.6,3,2.5s1.9,1.7,2.7,2.6
				s1.7,1.8,2.4,2.8c0.8,1,1.4,1.9,2.1,2.9c0.6,1,1.2,2,1.7,3.1s0.9,2.1,1.3,3.2s0.6,2.2,0.8,3.4s0.3,2.3,0.4,3.5
				c0,1.2,0,2.5-0.2,3.7c-0.1,1.3-0.2,2.5-0.1,3.7c0.1,1.2,0.3,2.3,0.6,3.4c0.3,1.1,0.7,2.2,1.3,3.2c0.5,1,1.1,2,1.9,2.9
				c0.7,0.9,1.5,1.8,2.4,2.7s1.9,1.7,2.9,2.5c1.1,0.8,2.2,1.6,3.4,2.3c1.2,0.7,2.5,1.4,3.8,2.1c1.3,0.7,2.7,1.3,4.2,1.9
				c1.4,0.6,3,1.2,4.5,1.7c3.1,1.1,6.4,2,9.8,2.9s6.9,1.6,10.6,2.3c3.6,0.7,7.3,1.2,11,1.7s7.4,0.9,11,1.2s7.2,0.6,10.7,0.9
				c0.4,0,0.6,0,1,0c32.5-10,58.6-25.7,72.9-50.3c6.3-11.8,9.9-25.3,9.9-39.6C1523.9,22.5,1486.2-15.2,1439.7-15.2L1439.7-15.2z"/>
		</g>
	</g>
</g>
</svg>
