<?xml version="1.0" encoding="utf-8"?>
<!-- Generator: Adobe Illustrator 19.2.1, SVG Export Plug-In . SVG Version: 6.00 Build 0)  -->
<svg version="1.1" id="Layer_1" xmlns="http://www.w3.org/2000/svg" xmlns:xlink="http://www.w3.org/1999/xlink" x="0px" y="0px"
	 viewBox="0 0 640 480" style="enable-background:new 0 0 640 480;" xml:space="preserve">
<style type="text/css">
	.st0{fill:#2965ED;}
	.st1{fill:#FFFFFF;}
	.st2{fill:#EF5350;}
	.st3{fill:none;}
	.st4{fill:#2F2F2F;}
	.st5{fill:#B7B7B7;}
</style>
<g>
	<g>
		<g>
			<path class="st0" d="M186.3,229c0,0,0.2-1.5,0.6-4.4c0.1-0.7,0.2-1.5,0.3-2.4c0.2-0.9,0.3-1.8,0.5-2.9c0.4-2.1,0.8-4.4,1.4-7.1
				c1.1-5.3,3-11.6,5.6-18.6c2.7-7,6.3-14.8,11.1-22.8c4.8-8,10.8-16.2,18.1-24.1c0.9-1,1.8-2,2.8-2.9c1-1,1.9-1.9,2.9-2.9
				c1-0.9,2-1.9,3.1-2.8c1-0.9,2.1-1.9,3.2-2.8c1.1-0.9,2.2-1.8,3.3-2.7c1.1-0.9,2.3-1.7,3.4-2.6c2.3-1.8,4.7-3.4,7.1-5.1
				c9.9-6.4,20.9-12,32.7-15.9c2.9-1,6-1.8,9-2.7c3.1-0.7,6.1-1.5,9.3-2c1.6-0.3,3.1-0.6,4.7-0.8l4.7-0.6c1.6-0.2,3.2-0.3,4.8-0.4
				l2.4-0.2l2.4-0.1c6.4-0.3,12.8,0.1,19.1,0.7c1.6,0.2,3.3,0.3,4.9,0.6c1.6,0.3,3.2,0.5,4.7,0.8c1.6,0.3,3.1,0.7,4.7,1
				c1.6,0.3,3.1,0.8,4.6,1.2c6.1,1.7,12.1,3.8,17.7,6.4c5.7,2.6,11.1,5.6,16.1,8.8c10.1,6.6,18.9,14.4,26.2,22.5
				c7.4,8.1,13.3,16.7,18,24.9c4.7,8.2,8.2,16.2,10.8,23.4c0.6,1.8,1.2,3.6,1.7,5.3c0.5,1.7,1,3.4,1.4,5c0.5,1.6,0.8,3.1,1.1,4.6
				c0.3,1.5,0.7,2.9,0.9,4.2c0.5,2.7,0.9,5.1,1.2,7.2c0.3,2.1,0.5,3.9,0.6,5.3c0.2,2.9,0.3,4.4,0.3,4.4l-1.4,0.2
				c0,0-0.5-1.5-1.4-4.2c-0.9-2.7-2.3-6.7-4.2-11.6c-0.4-1.2-1-2.5-1.6-3.8c-0.6-1.3-1.2-2.7-1.8-4.2c-0.7-1.4-1.3-2.9-2.1-4.5
				c-0.8-1.5-1.6-3.1-2.4-4.7c-3.4-6.4-7.6-13.4-12.8-20.6c-1.3-1.8-2.6-3.6-4.1-5.4c-0.7-0.9-1.4-1.8-2.1-2.7
				c-0.8-0.9-1.5-1.8-2.3-2.7c-0.4-0.5-0.8-0.9-1.1-1.4c-0.4-0.4-0.8-0.9-1.2-1.3c-0.8-0.9-1.6-1.8-2.4-2.7
				c-0.8-0.9-1.7-1.8-2.6-2.7l-1.3-1.3l-1.3-1.3c-0.9-0.9-1.8-1.7-2.7-2.6c-0.9-0.8-1.9-1.7-2.8-2.6c-0.9-0.9-1.9-1.7-2.9-2.5
				c-1-0.8-2-1.7-3-2.5c-4.1-3.3-8.4-6.5-12.9-9.4c-9-5.9-19-11.2-29.7-14.9c-1.3-0.4-2.7-1-4.1-1.3c-1.4-0.4-2.7-0.8-4.1-1.2
				c-1.4-0.3-2.8-0.6-4.2-1c-0.7-0.2-1.4-0.3-2.1-0.4l-2.1-0.4c-0.7-0.1-1.4-0.3-2.1-0.4l-2.3-0.3l-2.3-0.3l-0.6-0.1l-0.3,0
				c0.3,0,0,0,0,0l-0.1,0l-1.1-0.1l-4.4-0.3c-1.5-0.1-2.9-0.1-4.4-0.1l-2.2,0l-2.2,0.1c-1.5,0.1-2.9,0.1-4.4,0.2l-4.4,0.4
				c-1.5,0.1-2.9,0.4-4.3,0.5c-2.9,0.3-5.7,1-8.6,1.5c-2.8,0.7-5.7,1.3-8.4,2.1c-11.1,3.1-21.7,7.8-31.2,13.4
				c-9.5,5.7-18.1,12.3-25.5,19.5c-7.4,7.1-13.6,14.7-18.6,22.1c-5.1,7.4-9,14.8-11.9,21.5c-0.8,1.7-1.4,3.3-2.1,4.9
				c-0.6,1.6-1.3,3.1-1.8,4.6c-0.5,1.5-1,2.9-1.5,4.3c-0.5,1.4-0.8,2.7-1.2,4c-0.8,2.5-1.3,4.8-1.8,6.8c-0.2,1-0.5,1.9-0.7,2.8
				c-0.2,0.9-0.3,1.6-0.5,2.3c-0.6,2.8-0.9,4.3-0.9,4.3L186.3,229z"/>
		</g>
		<g>
			<path class="st1" d="M320.2,229.1c0,0,0-0.8,0-2.3c0-0.7,0.1-1.6,0.1-2.7c0.1-1,0.2-2.2,0.3-3.5c0.1-1.3,0.3-2.7,0.5-4.3
				c0.2-1.5,0.5-3.2,0.8-4.9c0.6-3.5,1.5-7.3,2.5-11.3c2.1-8.1,5.3-17.2,9.4-26.3c4.1-9.2,9.3-18.5,15.1-27.4
				c2.9-4.4,6-8.8,9.2-12.9c3.2-4.2,6.5-8.1,9.9-11.8c6.8-7.5,13.8-13.9,20.4-19.1c3.3-2.6,6.5-4.9,9.4-6.8c2.9-1.9,5.6-3.6,7.9-4.8
				c1.1-0.6,2.2-1.2,3.1-1.7c0.9-0.5,1.7-0.9,2.4-1.2c1.3-0.6,2.1-0.9,2.1-0.9s0,0.8,0,2.3c0,0.7,0,1.6-0.1,2.7
				c-0.1,1-0.2,2.2-0.3,3.5c-0.3,2.6-0.7,5.7-1.3,9.2c-0.6,3.5-1.4,7.3-2.5,11.3c-2.1,8.1-5.3,17.2-9.4,26.3
				c-2.1,4.6-4.4,9.2-6.9,13.8c-2.5,4.6-5.3,9.1-8.2,13.6c-5.9,8.9-12.3,17.3-19.1,24.7c-6.8,7.5-13.8,13.9-20.4,19.1
				c-3.3,2.6-6.5,4.9-9.4,6.8c-1.5,1-2.9,1.9-4.2,2.7c-1.3,0.8-2.5,1.5-3.7,2.2c-1.1,0.6-2.2,1.2-3.1,1.7c-0.9,0.5-1.7,0.9-2.4,1.2
				C321,228.8,320.2,229.1,320.2,229.1z"/>
		</g>
	</g>
	<g>
		<path class="st2" d="M398.6,111.9c0,0-0.9,2.1-2.5,5.6c-0.8,1.8-1.8,3.9-2.9,6.4c-1.1,2.5-2.4,5.2-3.9,8.3c-1.4,3-3,6.3-4.7,9.7
			c-1.7,3.4-3.5,7-5.3,10.8c-1.9,3.7-3.8,7.6-5.8,11.4c-2,3.9-4.1,7.8-6.2,11.7c-2.1,3.9-3.9,8-5.7,12c-0.9,2-1.8,4-2.8,5.9
			c-1,1.9-2,3.7-3.1,5.5c-2.2,3.5-4.7,6.6-7.3,9.5c-2.6,2.9-5.1,5.4-7.6,7.7c-5,4.6-9.8,8-13.5,10.2c-1.8,1.1-3.3,1.9-4.4,2.5
			c-1.1,0.5-1.7,0.8-1.7,0.8l-2.1-1.4c0,0,0-0.7,0.1-1.9c0-1.2,0.2-2.9,0.5-5c0.6-4.2,1.8-10,4-16.5c1.1-3.2,2.5-6.6,4.1-10.1
			c1.6-3.5,3.5-7,5.8-10.5c1.2-1.7,2.4-3.4,3.8-5c1.4-1.6,2.8-3.3,4.3-4.9c3-3.2,5.9-6.6,8.7-10c2.8-3.5,5.5-6.9,8.3-10.3
			c2.7-3.4,5.5-6.7,8.2-9.9c2.7-3.2,5.3-6.2,7.8-9.1c2.5-2.9,4.8-5.6,7-8.1c2.2-2.5,4.2-4.8,6-6.8c1.8-2,3.4-3.8,4.7-5.2
			c2.6-2.9,4.2-4.5,4.2-4.5L398.6,111.9z"/>
	</g>
</g>
<g id="Computer">
	<g>
		<g>
			<g>
				<g>
					<rect x="79" y="25" class="st3" width="482" height="315"/>
					<path class="st4" d="M592,31.7C592,15.8,579.2,3,563.3,3H75.7C59.8,3,47,15.8,47,31.7v330.7c0,15.8,12.8,28.7,28.7,28.7h487.7
						c15.8,0,28.7-12.8,28.7-28.7V31.7H592z M561,340H79V25h482V340z"/>
				</g>
				<polygon class="st4" points="251,390 246.9,411 393.3,411 389.8,390 				"/>
			</g>
			<path class="st4" d="M247.1,411h146.2c0,0,7.7,39.9,39.5,69H207C207,480,234.5,459,247.1,411z"/>
		</g>
		<circle class="st5" cx="526.8" cy="365.1" r="8.6"/>
	</g>
</g>
</svg>
