<?xml version="1.0" encoding="utf-8"?>
<!-- Generator: Adobe Illustrator 19.2.1, SVG Export Plug-In . SVG Version: 6.00 Build 0)  -->
<svg version="1.1" id="Layer_1" xmlns="http://www.w3.org/2000/svg" xmlns:xlink="http://www.w3.org/1999/xlink" x="0px" y="0px"
	 viewBox="0 0 640 480" style="enable-background:new 0 0 640 480;" xml:space="preserve">
<style type="text/css">
	.st0{fill:none;}
	.st1{fill:#2F2F2F;}
	.st2{fill:#B7B7B7;}
	.st3{fill:#464342;}
	.st4{clip-path:url(#SVGID_2_);}
	.st5{clip-path:url(#SVGID_15_);}
	.st6{clip-path:url(#SVGID_16_);}
	.st7{clip-path:url(#SVGID_17_);}
	.st8{clip-path:url(#SVGID_18_);}
	.st9{clip-path:url(#SVGID_19_);}
	.st10{clip-path:url(#SVGID_20_);}
	.st11{clip-path:url(#SVGID_21_);}
	.st12{clip-path:url(#SVGID_22_);}
	.st13{clip-path:url(#SVGID_23_);}
	.st14{clip-path:url(#SVGID_24_);}
	.st15{clip-path:url(#SVGID_25_);}
	.st16{clip-path:url(#SVGID_26_);fill:#263238;}
	.st17{clip-path:url(#SVGID_26_);fill:#344FC1;}
	.st18{clip-path:url(#SVGID_26_);fill:#2638A2;}
</style>
<g id="Computer">
	<g>
		<g>
			<g>
				<g>
					<rect x="79" y="25" class="st0" width="482" height="315"/>
					<path class="st1" d="M592,31.7C592,15.8,579.2,3,563.3,3H75.7C59.8,3,47,15.8,47,31.7v330.7c0,15.8,12.8,28.7,28.7,28.7h487.7
						c15.8,0,28.7-12.8,28.7-28.7V31.7H592z M561,340H79V25h482V340z"/>
				</g>
				<polygon class="st1" points="251,390 246.9,411 393.3,411 389.8,390 				"/>
			</g>
			<path class="st1" d="M247.1,411h146.2c0,0,7.7,39.9,39.5,69H207C207,480,234.5,459,247.1,411z"/>
		</g>
		<circle class="st2" cx="526.8" cy="365.1" r="8.6"/>
	</g>
</g>
<g id="Layer_2">
	<g>
		<g>
			<path class="st3" d="M221.5,176.2c0,39,22.7,72.7,55.5,88.6l-47-128.7C224.6,148.4,221.5,161.9,221.5,176.2z"/>
			<path class="st3" d="M386.5,171.2c0-12.2-4.4-20.6-8.1-27.2c-5-8.1-9.7-15-9.7-23.1c0-9.1,6.9-17.5,16.5-17.5
				c0.4,0,0.9,0.1,1.3,0.1c-17.5-16-40.9-25.8-66.5-25.8c-34.4,0-64.7,17.6-82.3,44.4c2.3,0.1,4.5,0.1,6.3,0.1
				c10.3,0,26.2-1.2,26.2-1.2c5.3-0.3,5.9,7.5,0.6,8.1c0,0-5.3,0.6-11.3,0.9l35.9,106.7l21.5-64.6l-15.3-42
				c-5.3-0.3-10.3-0.9-10.3-0.9c-5.3-0.3-4.7-8.4,0.6-8.1c0,0,16.3,1.2,25.9,1.2c10.3,0,26.2-1.2,26.2-1.2c5.3-0.3,5.9,7.5,0.6,8.1
				c0,0-5.3,0.6-11.3,0.9l35.6,105.8l9.8-32.8C383.2,189.5,386.5,179.7,386.5,171.2z"/>
			<path class="st3" d="M321.7,184.8l-29.5,85.8c8.8,2.6,18.1,4,27.8,4c11.5,0,22.5-2,32.7-5.6c-0.3-0.4-0.5-0.9-0.7-1.4
				L321.7,184.8z"/>
			<path class="st3" d="M406.4,129c0.4,3.1,0.7,6.5,0.7,10.1c0,10-1.9,21.2-7.5,35.3l-30.1,87c29.3-17.1,49-48.8,49-85.1
				C418.5,159.1,414.1,143,406.4,129z"/>
			<path class="st3" d="M320,61.4c-63.3,0-114.8,51.5-114.8,114.8S256.7,291,320,291s114.8-51.5,114.8-114.8S383.3,61.4,320,61.4z
				 M320,285.7c-60.4,0-109.5-49.1-109.5-109.5S259.6,66.7,320,66.7s109.5,49.1,109.5,109.5S380.4,285.7,320,285.7z"/>
		</g>
	</g>
</g>
<g>
	<g>
		<g>
			<g>
				<defs>
					
						<rect id="SVGID_1_" x="355.4" y="130.9" transform="matrix(0.166 -0.9861 0.9861 0.166 131.5429 606.2431)" width="137.6" height="189"/>
				</defs>
				<clipPath id="SVGID_2_">
					<use xlink:href="#SVGID_1_"  style="overflow:visible;"/>
				</clipPath>
				<g id="layer1" class="st4">
					<g>
						<g>
							<defs>
								
									<rect id="SVGID_3_" x="355.4" y="130.9" transform="matrix(0.166 -0.9861 0.9861 0.166 131.5426 606.2432)" width="137.6" height="189"/>
							</defs>
							<defs>
								
									<rect id="SVGID_4_" x="355.4" y="130.9" transform="matrix(0.166 -0.9861 0.9861 0.166 131.5426 606.2432)" width="137.6" height="189"/>
							</defs>
							<defs>
								
									<rect id="SVGID_5_" x="355.4" y="130.9" transform="matrix(0.166 -0.9861 0.9861 0.166 131.5426 606.2432)" width="137.6" height="189"/>
							</defs>
							<defs>
								
									<rect id="SVGID_6_" x="355.4" y="130.9" transform="matrix(0.166 -0.9861 0.9861 0.166 131.5426 606.2432)" width="137.6" height="189"/>
							</defs>
							<defs>
								
									<rect id="SVGID_7_" x="355.4" y="130.9" transform="matrix(0.166 -0.9861 0.9861 0.166 131.5426 606.2432)" width="137.6" height="189"/>
							</defs>
							<defs>
								
									<rect id="SVGID_8_" x="355.4" y="130.9" transform="matrix(0.166 -0.9861 0.9861 0.166 131.5425 606.2433)" width="137.6" height="189"/>
							</defs>
							<defs>
								
									<rect id="SVGID_9_" x="355.4" y="130.9" transform="matrix(0.166 -0.9861 0.9861 0.166 131.5426 606.2432)" width="137.6" height="189"/>
							</defs>
							<defs>
								
									<rect id="SVGID_10_" x="355.4" y="130.9" transform="matrix(0.166 -0.9861 0.9861 0.166 131.5426 606.2432)" width="137.6" height="189"/>
							</defs>
							<defs>
								
									<rect id="SVGID_11_" x="355.4" y="130.9" transform="matrix(0.166 -0.9861 0.9861 0.166 131.5425 606.2433)" width="137.6" height="189"/>
							</defs>
							<defs>
								
									<rect id="SVGID_12_" x="355.4" y="130.9" transform="matrix(0.166 -0.9861 0.9861 0.166 131.5426 606.2432)" width="137.6" height="189"/>
							</defs>
							<defs>
								
									<rect id="SVGID_13_" x="355.4" y="130.9" transform="matrix(0.166 -0.9861 0.9861 0.166 131.5426 606.2432)" width="137.6" height="189"/>
							</defs>
							<defs>
								
									<rect id="SVGID_14_" x="355.4" y="130.9" transform="matrix(0.166 -0.9861 0.9861 0.166 131.5425 606.2433)" width="137.6" height="189"/>
							</defs>
							<clipPath id="SVGID_15_">
								<use xlink:href="#SVGID_3_"  style="overflow:visible;"/>
							</clipPath>
							<clipPath id="SVGID_16_" class="st5">
								<use xlink:href="#SVGID_4_"  style="overflow:visible;"/>
							</clipPath>
							<clipPath id="SVGID_17_" class="st6">
								<use xlink:href="#SVGID_5_"  style="overflow:visible;"/>
							</clipPath>
							<clipPath id="SVGID_18_" class="st7">
								<use xlink:href="#SVGID_6_"  style="overflow:visible;"/>
							</clipPath>
							<clipPath id="SVGID_19_" class="st8">
								<use xlink:href="#SVGID_7_"  style="overflow:visible;"/>
							</clipPath>
							<clipPath id="SVGID_20_" class="st9">
								<use xlink:href="#SVGID_8_"  style="overflow:visible;"/>
							</clipPath>
							<clipPath id="SVGID_21_" class="st10">
								<use xlink:href="#SVGID_9_"  style="overflow:visible;"/>
							</clipPath>
							<clipPath id="SVGID_22_" class="st11">
								<use xlink:href="#SVGID_10_"  style="overflow:visible;"/>
							</clipPath>
							<clipPath id="SVGID_23_" class="st12">
								<use xlink:href="#SVGID_11_"  style="overflow:visible;"/>
							</clipPath>
							<clipPath id="SVGID_24_" class="st13">
								<use xlink:href="#SVGID_12_"  style="overflow:visible;"/>
							</clipPath>
							<clipPath id="SVGID_25_" class="st14">
								<use xlink:href="#SVGID_13_"  style="overflow:visible;"/>
							</clipPath>
							<clipPath id="SVGID_26_" class="st15">
								<use xlink:href="#SVGID_14_"  style="overflow:visible;"/>
							</clipPath>
							<path class="st16" d="M506.1,307.8c0.1-0.3,0-0.7-0.4-1.1c-0.6-0.6-75.4-76.2-98.1-94.4c-0.2,0.3-0.3,0.6-0.5,1
								c-1.1,2-2.6,4.2-4.4,6.5c-2.2,2.7-5,5.6-8.5,8.5c22.3,19.5,109.3,79.8,110,80.2c0.8,0.4,1.4,0.2,1.7-0.1c0,0,0,0,0-0.1
								C506,308.2,506.1,308,506.1,307.8 M404.7,210.1c-0.5-0.3-0.9-0.6-1.2-0.8c-11.8-7.3-25.7-17.7-31.2-20.8
								c-1.3,4-4.2,7.2-7.8,9c4,4.8,16.6,16.7,25.8,27c0.3,0.4,0.8,0.8,1.3,1.3c3.2-2.6,5.8-5.2,7.8-7.6c2-2.4,3.5-4.6,4.6-6.7
								C404.2,211,404.4,210.5,404.7,210.1"/>
							<path class="st17" d="M339.7,179.9v-0.2c0.1-0.6,0.3-1.3,0.5-1.9c0.2-0.6,0.4-1.3,0.6-2s0.4-1.3,0.6-2
								c0.2-0.6,0.5-1.3,0.7-1.9c0.3-0.6,0.5-1.2,0.8-1.7c0.1-0.3,0.3-0.5,0.4-0.8c0.2-0.2,0.3-0.5,0.5-0.7s0.3-0.4,0.5-0.6
								c0.2-0.2,0.3-0.4,0.5-0.6c0.2-0.2,0.4-0.3,0.5-0.5c0.2-0.1,0.4-0.3,0.6-0.4c0.2-0.1,0.4-0.2,0.6-0.3s0.4-0.1,0.6-0.1
								s0.4,0,0.6,0s0.4,0.1,0.7,0.1c0.2,0.1,0.5,0.1,0.7,0.2c0.2,0,0.4,0,0.7,0c0.2,0,0.4,0,0.6,0s0.4-0.1,0.6-0.1
								c0.2-0.1,0.4-0.1,0.6-0.2c0.2-0.1,0.4-0.2,0.6-0.3s0.4-0.2,0.6-0.4c0.2-0.1,0.4-0.3,0.6-0.4c0.2-0.2,0.4-0.3,0.5-0.5
								c0.2-0.2,0.4-0.3,0.5-0.5c0.1-0.1,0.1-0.2,0.2-0.2c-6.4-4.2-9.9-10-10.1-20.5c0-1.7-2.2-1.5-2.3-0.4
								C340.5,155,338.3,168.9,339.7,179.9"/>
							<path class="st18" d="M371.3,184.6c1.3-7.6-3.1-14.8-10.1-17.3c-2.5-1.1-4.7-2.3-6.6-3.6c-0.1,0.1-0.1,0.2-0.2,0.2
								c-0.2,0.2-0.3,0.4-0.5,0.5c-0.2,0.2-0.4,0.3-0.5,0.5c-0.2,0.2-0.4,0.3-0.6,0.4c-0.2,0.1-0.4,0.3-0.6,0.4
								c-0.2,0.1-0.4,0.2-0.6,0.3s-0.4,0.2-0.6,0.2c-0.2,0.1-0.4,0.1-0.6,0.1s-0.4,0-0.6,0s-0.4,0-0.7,0c-0.2,0-0.5-0.1-0.7-0.2
								c-0.2-0.1-0.5-0.1-0.7-0.1s-0.4,0-0.6,0s-0.4,0.1-0.6,0.1c-0.2,0.1-0.4,0.1-0.6,0.3c-0.2,0.1-0.4,0.2-0.6,0.4
								c-0.2,0.1-0.4,0.3-0.5,0.5c-0.2,0.2-0.4,0.4-0.5,0.6c-0.2,0.2-0.3,0.4-0.5,0.6c-0.2,0.2-0.3,0.5-0.5,0.7s-0.3,0.5-0.4,0.8
								c-0.3,0.5-0.6,1.1-0.8,1.7c-0.3,0.6-0.5,1.2-0.7,1.9c-0.2,0.6-0.4,1.3-0.6,2s-0.4,1.3-0.6,2c-0.2,0.6-0.3,1.3-0.5,1.9v0.2
								c0.8,6.2,2.9,11.5,7,14.9c2,1.5,4.3,2.6,6.9,3C361.8,198.9,369.8,193.1,371.3,184.6"/>
						</g>
					</g>
				</g>
			</g>
		</g>
	</g>
</g>
</svg>
