<?xml version="1.0" encoding="utf-8"?>
<!-- Generator: Adobe Illustrator 19.2.1, SVG Export Plug-In . SVG Version: 6.00 Build 0)  -->
<svg version="1.1" id="Layer_1" xmlns="http://www.w3.org/2000/svg" xmlns:xlink="http://www.w3.org/1999/xlink" x="0px" y="0px"
	 viewBox="0 0 640 480" style="enable-background:new 0 0 640 480;" xml:space="preserve">
<style type="text/css">
	.st0{clip-path:url(#SVGID_2_);}
	.st1{clip-path:url(#SVGID_4_);fill:#263238;}
	.st2{clip-path:url(#SVGID_4_);fill:none;stroke:#000000;stroke-width:0.288;stroke-miterlimit:10;}
	.st3{clip-path:url(#SVGID_4_);fill:#2638A2;}
	.st4{clip-path:url(#SVGID_4_);fill:#F9B701;}
	.st5{clip-path:url(#SVGID_6_);}
	.st6{clip-path:url(#SVGID_8_);fill:#2F2F2F;}
	.st7{clip-path:url(#SVGID_8_);fill:#B7B7B7;}
	.st8{clip-path:url(#SVGID_8_);fill:#464342;}
	.st9{clip-path:url(#SVGID_10_);fill:#F9B701;}
	.st10{clip-path:url(#SVGID_12_);fill:#2638A2;}
	.st11{clip-path:url(#SVGID_14_);fill:#263238;}
	.st12{clip-path:url(#SVGID_14_);fill:#344FC1;}
	.st13{clip-path:url(#SVGID_14_);fill:#2638A2;}
	.st14{clip-path:url(#SVGID_16_);}
	.st15{clip-path:url(#SVGID_18_);fill:#2F2F2F;}
	.st16{clip-path:url(#SVGID_18_);fill:#B7B7B7;}
	.st17{clip-path:url(#SVGID_18_);fill:#F9B701;}
	.st18{clip-path:url(#SVGID_18_);fill:none;stroke:#F9B701;stroke-width:2.321;stroke-miterlimit:10;}
	.st19{clip-path:url(#SVGID_20_);fill:#2965ED;}
	.st20{clip-path:url(#SVGID_20_);fill:#FFFFFF;}
	.st21{clip-path:url(#SVGID_20_);fill:#EF5350;}
	.st22{clip-path:url(#SVGID_22_);fill:#263238;}
	.st23{clip-path:url(#SVGID_22_);fill:#0F90F9;}
	.st24{clip-path:url(#SVGID_22_);fill:#FFFFFF;}
</style>
<g id="Artwork_7">
	<g>
		<defs>
			<rect id="SVGID_1_" x="152.1" y="275.8" width="335.8" height="192"/>
		</defs>
		<clipPath id="SVGID_2_">
			<use xlink:href="#SVGID_1_"  style="overflow:visible;"/>
		</clipPath>
		<g class="st0">
			<defs>
				<rect id="SVGID_3_" x="152.1" y="275.8" width="335.8" height="192"/>
			</defs>
			<clipPath id="SVGID_4_">
				<use xlink:href="#SVGID_3_"  style="overflow:visible;"/>
			</clipPath>
			<path class="st1" d="M152.2,425.8L152.2,425.8v22.1c45.2,26.5,101.2,26.5,146.3,0v-22.1C253.3,452.2,197.3,452.2,152.2,425.8"/>
			<path class="st1" d="M152.2,353.4L152.2,353.4v19.9v11.1c45.2,26.5,101.2,26.5,146.3,0v-11.1v-19.9
				C253.3,379.8,197.3,379.8,152.2,353.4"/>
			<path class="st1" d="M298.5,346.4c-45.2-26.5-101.2-26.5-146.3,0v2.3c45.2,26.5,101.2,26.5,146.3,0V346.4z"/>
			<path class="st1" d="M152.2,389.3L152.2,389.3v30.9c45.2,26.5,101.2,26.5,146.3,0v-30.9C253.3,415.7,197.3,415.7,152.2,389.3"/>
			<line class="st2" x1="152.2" y1="346.4" x2="152.2" y2="447.9"/>
			<line class="st2" x1="298.5" y1="346.4" x2="298.5" y2="447.9"/>
			<path class="st3" d="M341.5,424.9L341.5,424.9v22.1c45.2,26.5,101.2,26.5,146.3,0v-22.1C442.7,451.4,386.7,451.4,341.5,424.9"/>
			<path class="st3" d="M341.5,352.6L341.5,352.6v19.9v11.1c45.2,26.5,101.2,26.5,146.3,0v-11.1v-19.9
				C442.7,379,386.7,379,341.5,352.6"/>
			<path class="st3" d="M487.8,345.5c-45.2-26.5-101.2-26.5-146.3,0v2.3c45.2,26.5,101.2,26.5,146.3,0V345.5z"/>
			<path class="st3" d="M341.5,388.5L341.5,388.5v30.9c45.2,26.5,101.2,26.5,146.3,0v-30.9C442.7,414.9,386.7,414.9,341.5,388.5"/>
			<line class="st2" x1="341.5" y1="345.5" x2="341.5" y2="447.1"/>
			<line class="st2" x1="487.8" y1="345.5" x2="487.8" y2="447.1"/>
			<path class="st4" d="M368.6,318.6l-0.2-40.4c0-2.2-2.6-3.2-4.1-1.8l-15.1,14.2c-47.5-29.9-89.5,17.3-89.5,17.3l15.2,10.6
				c0,0,23.5-36.8,61.8-16.2l-13.2,12.4c-1.6,1.5-0.6,4.1,1.5,4.2l41,2.2C367.5,321.2,368.6,320.1,368.6,318.6"/>
		</g>
	</g>
</g>
<g id="Artwork_8">
	<g>
		<defs>
			<rect id="SVGID_5_" x="10.5" y="20.6" width="291.6" height="255.2"/>
		</defs>
		<clipPath id="SVGID_6_">
			<use xlink:href="#SVGID_5_"  style="overflow:visible;"/>
		</clipPath>
		<g class="st5">
			<defs>
				<rect id="SVGID_7_" x="10.5" y="20.6" width="291.6" height="255.2"/>
			</defs>
			<clipPath id="SVGID_8_">
				<use xlink:href="#SVGID_7_"  style="overflow:visible;"/>
			</clipPath>
			<path class="st6" d="M302,35.9c0-8.5-6.8-15.4-15.4-15.4H25.8c-8.5,0-15.4,6.8-15.4,15.4v176.9c0,8.5,6.8,15.4,15.4,15.4h260.9
				c8.5,0,15.4-6.8,15.4-15.4L302,35.9L302,35.9z M285.4,200.9H27.6V32.4h257.8V200.9z"/>
			<polygon class="st6" points="119.6,227.6 117.4,238.9 195.7,238.9 193.8,227.6 			"/>
			<path class="st6" d="M117.5,238.9h78.2c0,0,4.1,21.3,21.1,36.9H96C96,275.8,110.8,264.5,117.5,238.9"/>
			<path class="st7" d="M267.1,209.7c2.5,0,4.6,2.1,4.6,4.6s-2.1,4.6-4.6,4.6s-4.6-2.1-4.6-4.6S264.6,209.7,267.1,209.7"/>
			<path class="st8" d="M103.8,113.2c0,20.9,12.1,38.9,29.7,47.4l-25.1-68.8C105.5,98.4,103.8,105.6,103.8,113.2"/>
			<path class="st8" d="M192.1,110.6c0-6.5-2.4-11-4.3-14.6c-2.7-4.3-5.2-8-5.2-12.4c0-4.9,3.7-9.4,8.8-9.4c0.2,0,0.5,0.1,0.7,0.1
				c-9.4-8.6-21.9-13.8-35.6-13.8c-18.4,0-34.6,9.4-44,23.8c1.2,0.1,2.4,0.1,3.4,0.1c5.5,0,14-0.6,14-0.6c2.8-0.2,3.2,4,0.3,4.3
				c0,0-2.8,0.3-6,0.5l19.2,57.1l11.5-34.6l-8.2-22.5c-2.8-0.2-5.5-0.5-5.5-0.5c-2.8-0.2-2.5-4.5,0.3-4.3c0,0,8.7,0.6,13.9,0.6
				c5.5,0,14-0.6,14-0.6c2.8-0.2,3.2,4,0.3,4.3c0,0-2.8,0.3-6,0.5l19,56.6l5.2-17.5C190.3,120.4,192.1,115.1,192.1,110.6"/>
			<path class="st8" d="M157.4,117.8l-15.8,45.9c4.7,1.4,9.7,2.1,14.9,2.1c6.2,0,12-1.1,17.5-3c-0.2-0.2-0.3-0.5-0.4-0.7
				L157.4,117.8z"/>
			<path class="st8" d="M202.7,88c0.2,1.7,0.4,3.5,0.4,5.4c0,5.3-1,11.3-4,18.9L183,158.8c15.7-9.1,26.2-26.1,26.2-45.5
				C209.2,104.1,206.8,95.5,202.7,88"/>
			<path class="st8" d="M156.5,51.8c-33.9,0-61.4,27.6-61.4,61.4s27.6,61.4,61.4,61.4s61.4-27.6,61.4-61.4S190.4,51.8,156.5,51.8
				 M156.5,171.8c-32.3,0-58.6-26.3-58.6-58.6s26.3-58.6,58.6-58.6s58.6,26.3,58.6,58.6S188.8,171.8,156.5,171.8"/>
		</g>
		<g class="st5">
			<defs>
				<rect id="SVGID_9_" x="133.5" y="147.2" width="49.8" height="49.3"/>
			</defs>
			<clipPath id="SVGID_10_">
				<use xlink:href="#SVGID_9_"  style="overflow:visible;"/>
			</clipPath>
			<path class="st9" d="M134.8,156.4c2.7,8.9,11,7.9,11,7.9c1.6,0.1,8.8,7.3,8.8,7.3l5-5c-6.2-5.6-8.2-9.8-8.2-9.8
				c0.8-11-11.7-9.5-11.7-9.5l-0.6,1.3l6.6,3.8c0.2,5-4.1,7.3-4.1,7.3l-6.6-3.8"/>
			<path class="st9" d="M183.3,185.4c-2.7-8.9-11-7.9-11-7.9c-1.6-0.1-8.8-7.3-8.8-7.3l-5,5c6.2,5.6,8.2,9.8,8.2,9.8
				c-0.8,11,11.7,9.5,11.7,9.5l0.6-1.3l-6.6-3.8c-0.2-5,4.1-7.3,4.1-7.3l6.6,3.8"/>
			<path class="st9" d="M154,174.1l-2.5-1.6l-1.3,1.3c0,0-0.1,4.6-6.3,5.7l-10.4,10.4c0,0,0,5.7,6.6,6.6l10.4-10.4
				c0,0,0.4-5.8,5.7-6.3l1.3-1.3l-1.6-2.5l18.3-18.3l2.5-0.6l4.4-6.3l-1.9-1.9l-6.3,4.4l-0.6,2.6L154,174.1z"/>
		</g>
		<g class="st5">
			<defs>
				<rect id="SVGID_11_" x="84.5" y="74.4" width="38.6" height="49"/>
			</defs>
			<clipPath id="SVGID_12_">
				<use xlink:href="#SVGID_11_"  style="overflow:visible;"/>
			</clipPath>
			<path class="st10" d="M86.9,106.5h-1.3c-0.9,0-1.4-0.9-1-1.6l1.1-1.8l8.1-13.2l8.5-14l0.5-0.9c0.4-0.7,1.5-0.7,2,0l0.6,1l5.7,9.4
				l2,3.3l6.1,10.1l3.8,6.2c0.4,0.7-0.1,1.6-1,1.6h-2.8h-9.8v15.7c0,0.7-0.6,1.3-1.3,1.3h-9.5c-0.7,0-1.3-0.6-1.3-1.3v-1.9v-2.7v-6
				v-5.1h-4.9h-3.8L86.9,106.5L86.9,106.5z"/>
		</g>
		<g class="st5">
			<defs>
				
					<rect id="SVGID_13_" x="197.6" y="75.2" transform="matrix(0.166 -0.9861 0.9861 0.166 80.0811 300.8578)" width="40.5" height="55.7"/>
			</defs>
			<clipPath id="SVGID_14_">
				<use xlink:href="#SVGID_13_"  style="overflow:visible;"/>
			</clipPath>
			<path class="st11" d="M242,127.4c0-0.1,0-0.2-0.1-0.3c-0.2-0.2-22.2-22.4-28.9-27.8c-0.1,0.1-0.1,0.2-0.1,0.3
				c-0.3,0.6-0.8,1.2-1.3,1.9c-0.6,0.8-1.5,1.6-2.5,2.5c6.6,5.7,32.2,23.5,32.4,23.6c0.2,0.1,0.4,0.1,0.5,0v0
				C242,127.5,242,127.4,242,127.4 M212.2,98.6c-0.1-0.1-0.3-0.2-0.4-0.2c-3.5-2.2-7.6-5.2-9.2-6.1c-0.4,1.2-1.2,2.1-2.3,2.7
				c1.2,1.4,4.9,4.9,7.6,8c0.1,0.1,0.2,0.2,0.4,0.4c0.9-0.8,1.7-1.5,2.3-2.2c0.6-0.7,1-1.4,1.4-2C212,98.9,212.1,98.7,212.2,98.6"/>
			<path class="st12" d="M193,89.7L193,89.7c0-0.2,0.1-0.4,0.1-0.6c0.1-0.2,0.1-0.4,0.2-0.6c0.1-0.2,0.1-0.4,0.2-0.6
				c0.1-0.2,0.1-0.4,0.2-0.6c0.1-0.2,0.1-0.4,0.2-0.5c0-0.1,0.1-0.1,0.1-0.2c0.1-0.1,0.1-0.1,0.1-0.2c0.1-0.1,0.1-0.1,0.1-0.2
				c0.1-0.1,0.1-0.1,0.1-0.2c0.1-0.1,0.1-0.1,0.1-0.1c0.1,0,0.1-0.1,0.2-0.1l0.2-0.1c0.1,0,0.1,0,0.2,0h0.2c0.1,0,0.1,0,0.2,0
				c0.1,0,0.1,0,0.2,0.1h0.2h0.2c0.1,0,0.1,0,0.2,0c0.1,0,0.1,0,0.2-0.1c0.1,0,0.1-0.1,0.2-0.1c0.1,0,0.1-0.1,0.2-0.1
				c0.1,0,0.1-0.1,0.2-0.1c0.1-0.1,0.1-0.1,0.1-0.1c0.1-0.1,0.1-0.1,0.1-0.1c0,0,0-0.1,0.1-0.1c-1.9-1.2-2.9-2.9-3-6
				c0-0.5-0.6-0.4-0.7-0.1C193.2,82.4,192.6,86.5,193,89.7"/>
			<path class="st13" d="M202.3,91.1c0.4-2.2-0.9-4.4-3-5.1c-0.7-0.3-1.4-0.7-1.9-1.1c0,0,0,0.1-0.1,0.1c-0.1,0.1-0.1,0.1-0.1,0.1
				c-0.1,0.1-0.1,0.1-0.1,0.1c-0.1,0.1-0.1,0.1-0.2,0.1c-0.1,0-0.1,0.1-0.2,0.1c-0.1,0-0.1,0.1-0.2,0.1c-0.1,0-0.1,0.1-0.2,0.1
				c-0.1,0-0.1,0-0.2,0H196h-0.2c-0.1,0-0.1,0-0.2-0.1c-0.1,0-0.1,0-0.2,0h-0.2c-0.1,0-0.1,0-0.2,0c-0.1,0-0.1,0-0.2,0.1
				c-0.1,0-0.1,0.1-0.2,0.1c-0.1,0-0.1,0.1-0.1,0.1c-0.1,0.1-0.1,0.1-0.1,0.2c-0.1,0.1-0.1,0.1-0.1,0.2c-0.1,0.1-0.1,0.1-0.1,0.2
				c-0.1,0.1-0.1,0.1-0.1,0.2c-0.1,0.1-0.2,0.3-0.2,0.5c-0.1,0.2-0.1,0.4-0.2,0.6c-0.1,0.2-0.1,0.4-0.2,0.6
				c-0.1,0.2-0.1,0.4-0.2,0.6c-0.1,0.2-0.1,0.4-0.1,0.6v0.1c0.2,1.8,0.9,3.4,2.1,4.4c0.6,0.4,1.3,0.8,2,0.9
				C199.5,95.3,201.9,93.6,202.3,91.1"/>
		</g>
	</g>
</g>
<g id="Artwork_10">
	<g>
		<defs>
			<rect id="SVGID_15_" x="337" y="20.6" width="291.6" height="255.2"/>
		</defs>
		<clipPath id="SVGID_16_">
			<use xlink:href="#SVGID_15_"  style="overflow:visible;"/>
		</clipPath>
		<g class="st14">
			<defs>
				<rect id="SVGID_17_" x="337" y="20.6" width="291.6" height="255.2"/>
			</defs>
			<clipPath id="SVGID_18_">
				<use xlink:href="#SVGID_17_"  style="overflow:visible;"/>
			</clipPath>
			<path class="st15" d="M628.6,35.9c0-8.5-6.8-15.4-15.4-15.4H352.4c-8.5,0-15.4,6.8-15.4,15.4v176.9c0,8.5,6.8,15.4,15.4,15.4
				h260.9c8.5,0,15.4-6.8,15.4-15.4L628.6,35.9L628.6,35.9z M612,200.9H354.1V32.4H612V200.9z"/>
			<polygon class="st15" points="446.1,227.6 443.9,238.9 522.3,238.9 520.4,227.6 			"/>
			<path class="st15" d="M444,238.9h78.2c0,0,4.1,21.3,21.1,36.9H422.6C422.6,275.8,437.3,264.5,444,238.9"/>
			<path class="st16" d="M593.7,209.7c2.5,0,4.6,2.1,4.6,4.6s-2.1,4.6-4.6,4.6c-2.5,0-4.6-2.1-4.6-4.6S591.1,209.7,593.7,209.7"/>
			<path class="st17" d="M421.5,179.1c4.6,0,8.4,3.7,8.4,8.4s-3.7,8.4-8.4,8.4c-4.6,0-8.4-3.7-8.4-8.4S416.9,179.1,421.5,179.1"/>
			<path class="st17" d="M459.7,146.3c4.6,0,8.4,3.7,8.4,8.4s-3.7,8.4-8.4,8.4s-8.4-3.7-8.4-8.4S455.1,146.3,459.7,146.3"/>
			<path class="st17" d="M506.4,170.7c4.6,0,8.4,3.7,8.4,8.4s-3.7,8.4-8.4,8.4c-4.6,0-8.4-3.7-8.4-8.4S501.8,170.7,506.4,170.7"/>
			<path class="st17" d="M544.6,137.9c4.6,0,8.4,3.7,8.4,8.4c0,4.6-3.7,8.4-8.4,8.4c-4.6,0-8.4-3.7-8.4-8.4
				C536.2,141.7,539.9,137.9,544.6,137.9"/>
			<line class="st18" x1="459.7" y1="154.7" x2="421.5" y2="187.5"/>
			<line class="st18" x1="504.9" y1="180.3" x2="461.3" y2="155.1"/>
			<line class="st18" x1="544.6" y1="146.3" x2="506.4" y2="179.1"/>
		</g>
		<g class="st14">
			<defs>
				<rect id="SVGID_19_" x="367.3" y="65.3" width="110.7" height="59.1"/>
			</defs>
			<clipPath id="SVGID_20_">
				<use xlink:href="#SVGID_19_"  style="overflow:visible;"/>
			</clipPath>
			<path class="st19" d="M367.3,124c0,0,0.1-0.6,0.2-1.8c0-0.3,0.1-0.6,0.1-1c0.1-0.4,0.1-0.7,0.2-1.2c0.2-0.9,0.3-1.8,0.6-2.9
				c0.5-2.2,1.2-4.8,2.3-7.7c1.1-2.9,2.6-6.1,4.6-9.4c2-3.3,4.5-6.7,7.5-10c0.4-0.4,0.7-0.8,1.2-1.2l1.2-1.2
				c0.4-0.4,0.8-0.8,1.3-1.2c0.4-0.4,0.9-0.8,1.3-1.2c0.5-0.4,0.9-0.7,1.4-1.1c0.5-0.4,1-0.7,1.4-1.1c1-0.7,1.9-1.4,2.9-2.1
				c4.1-2.6,8.7-5,13.5-6.6c1.2-0.4,2.5-0.7,3.7-1.1c1.3-0.3,2.5-0.6,3.8-0.8c0.7-0.1,1.3-0.2,1.9-0.3l1.9-0.2
				c0.7-0.1,1.3-0.1,2-0.2l1-0.1l1,0c2.6-0.1,5.3,0,7.9,0.3c0.7,0.1,1.4,0.1,2,0.2c0.7,0.1,1.3,0.2,1.9,0.3c0.7,0.1,1.3,0.3,1.9,0.4
				c0.7,0.1,1.3,0.3,1.9,0.5c2.5,0.7,5,1.6,7.3,2.6c2.4,1.1,4.6,2.3,6.7,3.6c4.2,2.7,7.8,6,10.8,9.3c3.1,3.4,5.5,6.9,7.4,10.3
				c1.9,3.4,3.4,6.7,4.5,9.7c0.2,0.7,0.5,1.5,0.7,2.2c0.2,0.7,0.4,1.4,0.6,2.1c0.2,0.7,0.3,1.3,0.5,1.9c0.1,0.6,0.3,1.2,0.4,1.7
				c0.2,1.1,0.4,2.1,0.5,3c0.1,0.9,0.2,1.6,0.2,2.2c0.1,1.2,0.1,1.8,0.1,1.8l-0.6,0.1c0,0-0.2-0.6-0.6-1.7c-0.4-1.1-1-2.8-1.7-4.8
				c-0.2-0.5-0.4-1-0.7-1.6c-0.2-0.5-0.5-1.1-0.7-1.7c-0.3-0.6-0.5-1.2-0.9-1.9c-0.3-0.6-0.7-1.3-1-1.9c-1.4-2.6-3.1-5.5-5.3-8.5
				c-0.5-0.7-1.1-1.5-1.7-2.2c-0.3-0.4-0.6-0.7-0.9-1.1c-0.3-0.4-0.6-0.7-1-1.1c-0.2-0.2-0.3-0.4-0.5-0.6c-0.2-0.2-0.3-0.4-0.5-0.5
				c-0.3-0.4-0.7-0.7-1-1.1c-0.3-0.4-0.7-0.7-1.1-1.1l-0.5-0.5l-0.5-0.5c-0.4-0.4-0.7-0.7-1.1-1.1c-0.4-0.3-0.8-0.7-1.2-1.1
				c-0.4-0.4-0.8-0.7-1.2-1c-0.4-0.3-0.8-0.7-1.2-1c-1.7-1.4-3.5-2.7-5.3-3.9c-3.7-2.4-7.9-4.6-12.3-6.2c-0.5-0.2-1.1-0.4-1.7-0.5
				c-0.6-0.2-1.1-0.3-1.7-0.5c-0.6-0.1-1.2-0.2-1.7-0.4c-0.3-0.1-0.6-0.1-0.9-0.2l-0.9-0.2c-0.3,0-0.6-0.1-0.9-0.2l-1-0.1l-1-0.1
				l-0.2,0h-0.1c0.1,0,0,0,0,0h0l-0.5,0l-1.8-0.1c-0.6,0-1.2,0-1.8,0h-0.9l-0.9,0c-0.6,0-1.2,0-1.8,0.1l-1.8,0.2
				c-0.6,0-1.2,0.2-1.8,0.2c-1.2,0.1-2.4,0.4-3.6,0.6c-1.2,0.3-2.4,0.5-3.5,0.9c-4.6,1.3-9,3.2-12.9,5.5c-3.9,2.4-7.5,5.1-10.6,8.1
				c-3.1,2.9-5.6,6.1-7.7,9.1c-2.1,3.1-3.7,6.1-4.9,8.9c-0.3,0.7-0.6,1.4-0.9,2c-0.2,0.7-0.5,1.3-0.7,1.9c-0.2,0.6-0.4,1.2-0.6,1.8
				c-0.2,0.6-0.3,1.1-0.5,1.7c-0.3,1-0.5,2-0.7,2.8c-0.1,0.4-0.2,0.8-0.3,1.2c-0.1,0.4-0.1,0.7-0.2,1c-0.2,1.2-0.4,1.8-0.4,1.8
				L367.3,124z"/>
			<path class="st20" d="M422.7,124.1v-1c0-0.3,0-0.7,0-1.1c0-0.4,0.1-0.9,0.1-1.4c0-0.5,0.1-1.1,0.2-1.8c0.1-0.6,0.2-1.3,0.3-2
				c0.2-1.4,0.6-3,1-4.7c0.9-3.4,2.2-7.1,3.9-10.9c1.7-3.8,3.8-7.7,6.2-11.3c1.2-1.8,2.5-3.6,3.8-5.3c1.3-1.7,2.7-3.4,4.1-4.9
				c2.8-3.1,5.7-5.8,8.4-7.9c1.4-1.1,2.7-2,3.9-2.8c1.2-0.8,2.3-1.5,3.3-2c0.5-0.2,0.9-0.5,1.3-0.7c0.4-0.2,0.7-0.4,1-0.5
				c0.5-0.2,0.9-0.4,0.9-0.4v1c0,0.3,0,0.7,0,1.1c0,0.4-0.1,0.9-0.1,1.4c-0.1,1.1-0.3,2.4-0.5,3.8c-0.2,1.4-0.6,3-1,4.7
				c-0.9,3.4-2.2,7.1-3.9,10.9c-0.9,1.9-1.8,3.8-2.9,5.7s-2.2,3.8-3.4,5.6c-2.4,3.7-5.1,7.2-7.9,10.2c-2.8,3.1-5.7,5.8-8.4,7.9
				c-1.4,1.1-2.7,2-3.9,2.8c-0.6,0.4-1.2,0.8-1.7,1.1c-0.5,0.3-1,0.6-1.5,0.9c-0.5,0.2-0.9,0.5-1.3,0.7c-0.4,0.2-0.7,0.4-1,0.5
				C423,123.9,422.7,124.1,422.7,124.1"/>
			<path class="st21" d="M455.1,75.6c0,0-0.4,0.9-1,2.3c-0.3,0.7-0.7,1.6-1.2,2.6c-0.5,1-1,2.2-1.6,3.4c-0.6,1.2-1.2,2.6-1.9,4
				c-0.7,1.4-1.4,2.9-2.2,4.5c-0.8,1.5-1.6,3.1-2.4,4.7c-0.8,1.6-1.7,3.2-2.6,4.8c-0.9,1.6-1.6,3.3-2.4,5c-0.4,0.8-0.7,1.7-1.2,2.4
				c-0.4,0.8-0.8,1.5-1.3,2.3c-0.9,1.4-1.9,2.7-3,3.9c-1.1,1.2-2.1,2.2-3.1,3.2c-2.1,1.9-4.1,3.3-5.6,4.2c-0.7,0.5-1.4,0.8-1.8,1
				c-0.5,0.2-0.7,0.3-0.7,0.3l-0.9-0.6c0,0,0-0.3,0-0.8c0-0.5,0.1-1.2,0.2-2.1c0.2-1.7,0.7-4.1,1.7-6.8c0.5-1.3,1-2.7,1.7-4.2
				c0.7-1.4,1.4-2.9,2.4-4.3c0.5-0.7,1-1.4,1.6-2.1c0.6-0.7,1.2-1.4,1.8-2c1.2-1.3,2.4-2.7,3.6-4.1c1.2-1.4,2.3-2.9,3.4-4.3
				c1.1-1.4,2.3-2.8,3.4-4.1c1.1-1.3,2.2-2.6,3.2-3.8c1-1.2,2-2.3,2.9-3.4c0.9-1,1.7-2,2.5-2.8c0.7-0.8,1.4-1.6,1.9-2.2
				c1.1-1.2,1.7-1.9,1.7-1.9L455.1,75.6z"/>
		</g>
		<g class="st14">
			<defs>
				<rect id="SVGID_21_" x="525.5" y="61" width="73.8" height="63.4"/>
			</defs>
			<clipPath id="SVGID_22_">
				<use xlink:href="#SVGID_21_"  style="overflow:visible;"/>
			</clipPath>
			<path class="st22" d="M586.7,89H583V72.2c0-6.2-5-11.2-11.2-11.2h-29.3c-6.2,0-11.2,5-11.2,11.2V89h-3.8c-1.1,0-2,0.9-2,2v31.4
				c0,1.1,0.9,2,2,2h59.2c1.1,0,2-0.9,2-2V91C588.7,89.9,587.8,89,586.7,89 M560,106.9v7.3c0,1.1-0.9,2-2,2h-1.8c-1.1,0-2-0.9-2-2
				v-7.3c-1.4-0.7-2.5-1.9-3.1-3.4c-1.3-3.3,0.3-7,3.6-8.3c3.3-1.3,7,0.3,8.3,3.6C564.3,102,562.9,105.5,560,106.9 M578,89h-41.8
				V74.5c0-4.3,3.4-7.7,7.7-7.7h26.4c4.3,0,7.7,3.4,7.7,7.7V89z"/>
			<path class="st23" d="M598.6,103.3l-15.1-10.6c0.5-1.5,0.8-3.2,0.8-4.9c0-8.2-6.6-14.8-14.8-14.8c-8.2,0-14.8,6.6-14.8,14.8
				c0,8.2,6.6,14.8,14.8,14.8c3.2,0,6.2-1,8.6-2.8l15.3,10.7c0.8,0.5,1.8,0.3,2.4-0.4l3.1-4.4C599.6,104.9,599.4,103.8,598.6,103.3"
				/>
			<path class="st24" d="M569.6,75.7c6.7,0,12.1,5.4,12.1,12.1c0,6.7-5.4,12.1-12.1,12.1s-12.1-5.4-12.1-12.1
				C557.5,81.1,562.9,75.7,569.6,75.7"/>
		</g>
	</g>
</g>
</svg>
