<?xml version="1.0" encoding="utf-8"?>
<!-- Generator: Adobe Illustrator 19.2.1, SVG Export Plug-In . SVG Version: 6.00 Build 0)  -->
<svg version="1.1" id="Layer_1" xmlns="http://www.w3.org/2000/svg" xmlns:xlink="http://www.w3.org/1999/xlink" x="0px" y="0px"
	 viewBox="0 0 640 480" style="enable-background:new 0 0 640 480;" xml:space="preserve">
<style type="text/css">
	.st0{fill:none;}
	.st1{fill:#2F2F2F;}
	.st2{fill:#B7B7B7;}
	.st3{fill:#464342;}
</style>
<g id="Computer">
	<g>
		<g>
			<g>
				<g>
					<rect x="79" y="25" class="st0" width="482" height="315"/>
					<path class="st1" d="M592,31.7C592,15.8,579.2,3,563.3,3H75.7C59.8,3,47,15.8,47,31.7v330.7c0,15.8,12.8,28.7,28.7,28.7h487.7
						c15.8,0,28.7-12.8,28.7-28.7V31.7H592z M561,340H79V25h482V340z"/>
				</g>
				<g>
					<rect x="481" y="67.9" class="st0" width="482" height="315"/>
				</g>
				<g>
					<rect x="398.3" y="342.9" class="st0" width="71.2" height="146"/>
				</g>
				<polygon class="st1" points="251,390 246.9,411 393.3,411 389.8,390 				"/>
			</g>
			<path class="st1" d="M247.1,411h146.2c0,0,7.7,39.9,39.5,69H207C207,480,234.5,459,247.1,411z"/>
		</g>
		<circle class="st2" cx="526.8" cy="365.1" r="8.6"/>
	</g>
</g>
<g id="Layer_2">
	<g>
		<g>
			<path class="st3" d="M221.5,176.2c0,39,22.7,72.7,55.5,88.6l-47-128.7C224.6,148.4,221.5,161.9,221.5,176.2z"/>
			<path class="st3" d="M386.5,171.2c0-12.2-4.4-20.6-8.1-27.2c-5-8.1-9.7-15-9.7-23.1c0-9.1,6.9-17.5,16.5-17.5
				c0.4,0,0.9,0.1,1.3,0.1c-17.5-16-40.9-25.8-66.5-25.8c-34.4,0-64.7,17.6-82.3,44.4c2.3,0.1,4.5,0.1,6.3,0.1
				c10.3,0,26.2-1.2,26.2-1.2c5.3-0.3,5.9,7.5,0.6,8.1c0,0-5.3,0.6-11.3,0.9l35.9,106.7l21.5-64.6l-15.3-42
				c-5.3-0.3-10.3-0.9-10.3-0.9c-5.3-0.3-4.7-8.4,0.6-8.1c0,0,16.3,1.2,25.9,1.2c10.3,0,26.2-1.2,26.2-1.2c5.3-0.3,5.9,7.5,0.6,8.1
				c0,0-5.3,0.6-11.3,0.9l35.6,105.8l9.8-32.8C383.2,189.5,386.5,179.7,386.5,171.2z"/>
			<path class="st3" d="M321.7,184.8l-29.5,85.8c8.8,2.6,18.1,4,27.8,4c11.5,0,22.5-2,32.7-5.6c-0.3-0.4-0.5-0.9-0.7-1.4
				L321.7,184.8z"/>
			<path class="st3" d="M406.4,129c0.4,3.1,0.7,6.5,0.7,10.1c0,10-1.9,21.2-7.5,35.3l-30.1,87c29.3-17.1,49-48.8,49-85.1
				C418.5,159.1,414.1,143,406.4,129z"/>
			<path class="st3" d="M320,61.4c-63.3,0-114.8,51.5-114.8,114.8S256.7,291,320,291s114.8-51.5,114.8-114.8S383.3,61.4,320,61.4z
				 M320,285.7c-60.4,0-109.5-49.1-109.5-109.5S259.6,66.7,320,66.7s109.5,49.1,109.5,109.5S380.4,285.7,320,285.7z"/>
		</g>
	</g>
</g>
</svg>
